<?xml version="1.0" encoding="utf-8"?>
<!-- Generator: Adobe Illustrator 23.0.1, SVG Export Plug-In . SVG Version: 6.00 Build 0)  -->
<svg version="1.1" id="Calque_1" xmlns="http://www.w3.org/2000/svg" xmlns:xlink="http://www.w3.org/1999/xlink" x="0px" y="0px"
	 viewBox="0 0 717.7 542.3" style="enable-background:new 0 0 717.7 542.3;" xml:space="preserve">
<style type="text/css">
	.st0{fill:#F2F2F2;}
	.st1{fill:#FFB6B6;}
	.st2{fill:#2F2E41;}
	.st3{fill:#FFB8B8;}
	.st4{fill:#FF9100;}
	.st5{fill:#00285C;}
	.st6{fill:#A0616A;}
	.st7{fill:#3F3D56;}
	.st8{fill:none;stroke:#FF9100;stroke-width:2;stroke-miterlimit:10;}
</style>
<path class="st0" d="M430.5,137.8C376.2,126.4,320.8,20.1,204,73.5S60.3,233.8,90.5,341.8s159.8,190.8,296.3,161.4
	c136.4-29.5,197.7-99.1,212.4-161.4C613.8,279.5,597.6,172.9,430.5,137.8z"/>
<polygon class="st1" points="526.9,523 516.8,522.8 512.5,483.4 527.5,483.7 "/>
<path class="st2" d="M532,539.9l-0.1-1l-0.3-4.8l-1.2-18.1l-3.3-0.3l-11.2-0.8l-1.8-0.1l-0.1,7l-15.6,10.4c-2,1.3-2.5,4.1-1.2,6
	c0.5,0.7,1.2,1.3,2,1.6c0.5,0.2,1,0.3,1.5,0.3l19.4,0.3l0.3-0.6l3.1-6.3l1.1,6.3l0.1,0.7l7.3,0.1L532,539.9z"/>
<polygon class="st1" points="547.7,510 539.7,516.2 511.7,488.2 523.6,479 "/>
<path class="st2" d="M562.8,520.6l-16.8-18.2l-2.8,1.9l-9.2,6.3l-1.5,1l4.3,5.5l-5.3,17l-0.3,0.9c-0.4,1.3-0.2,2.7,0.6,3.8
	c0,0,0.1,0.1,0.1,0.1c0.2,0.3,0.5,0.6,0.9,0.8c0.8,0.6,1.7,0.9,2.6,0.8c0.9,0,1.8-0.3,2.6-0.8c0,0,0,0,0.1-0.1l15.3-11.9l-1.6-7.5
	l5.3,4.6L562.8,520.6z"/>
<path class="st3" d="M555.6,263.6l-12.9-47.8c-1.2-4.2-5.5-6.7-9.7-5.6l0,0c-4.3,1.1-6.9,5.5-5.8,9.7l0,0c0,0.1,0.1,0.3,0.1,0.4
	l15,49.3l7.8,30.3c-3.1,2.3-3.7,6.7-1.3,9.8c2.3,3.1,6.7,3.7,9.8,1.3c3.1-2.3,3.7-6.7,1.3-9.8c-0.3-0.3-0.5-0.6-0.8-0.9L555.6,263.6
	z"/>
<path class="st3" d="M461.6,253.9l34.5-35.6c3-3.1,3-8.1-0.1-11.2l0,0c-3.1-3.1-8.2-3.1-11.3,0c0,0,0,0,0,0
	c-0.1,0.1-0.2,0.2-0.3,0.3l-34.7,38.1l-22.1,22.2c-3.6-1.4-7.6,0.3-9.1,3.9c-1.4,3.6,0.3,7.6,3.9,9.1c3.6,1.4,7.6-0.3,9.1-3.9
	c0.2-0.4,0.3-0.8,0.4-1.2L461.6,253.9z"/>
<path class="st3" d="M487.1,261.1l6.8,30.1l44.3-2.8c-4.6-15.5-6.2-18.7-2.8-29.5L487.1,261.1z"/>
<path class="st4" d="M520.6,190.2h-18.1l-7.8,13.3l-3.7-0.2c-7.7-0.4-26.1,15.8-26.1,23.5l0,0l10.6,13.6l9.2-8.3
	c0,0-11.4,5.8,0.3,12.8c0,0-2.1,13.2,0,13.1s6.9-2.8,2.1-0.1s-4.5,3-3.8,3.7l0.6,0.6l50.8,8.5c0,0,1.5-9.9,1.6-11.6
	s-0.9,2.5,0.2-1.8s2.7-2.7,1.1-4.3s3.1-21.6-1.9-29.3l-2.1,24.1l17.5-5.5c2.1-9.6,0.2-19.5-4.6-29.5c0-7.4-7.4-10.2-14.9-10.2h-1
	L520.6,190.2z"/>
<path class="st5" d="M540,285.7l1.5,17c0,0,17.2,17.1,11.4,39c-5.8,21.9-16.7,81.6-16.7,81.6s5.8,54-6.4,77.4l-18.4-3.7l-11-73.2
	l-5-83.3l-4-23.7l2.5-27.5L540,285.7z"/>
<polygon class="st5" points="503.6,307.1 491.4,316.8 465,430.1 523.9,505.2 535.2,494.7 495.8,426 505,364.1 498.1,335 "/>
<path class="st2" d="M485.4,165.1c6.2,10.7-5.5,28.7,6.3,32.4l-1-1c-7.1-8.7,7.7-27.2,0.6-35.9c-1.1-1.3-2-2.7-2.8-4.2L485.4,165.1z
	"/>
<path class="st2" d="M533.7,163.5c0,11.7-9.5,21.1-21.1,21.1c-11.7,0-21.1-9.5-21.1-21.1c0-5.5,2.1-10.7,5.9-14.7l0.1-0.1
	c0.2-0.2,0.3-0.4,0.5-0.5c0,0,0,0,0,0c0,0,0,0,0,0v0c0.2-0.2,0.4-0.4,0.7-0.6c8.8-7.7,22.1-6.8,29.8,2
	C531.8,153.4,533.7,158.4,533.7,163.5L533.7,163.5z"/>
<circle class="st3" cx="507.4" cy="168.4" r="17.7"/>
<path class="st2" d="M520,151.3c-5.6-5.2-13.7-6.8-20.9-4c-0.1,0-0.2,0.1-0.3,0.1c-0.3,0.1-0.7,0.3-1,0.5l-0.2,0.1v0l-0.1,0.1
	c-0.1,0.1-0.2,0.1-0.3,0.2c-3.1-0.1-6.1,1.2-8.3,3.4c-2.7,3-4,7.8-3.6,13.6l0,0.2l0.2,0.1c0,0,0.1,0.1,0.1,0.1
	c1.4,0.9,2.7,1.6,4,2.3c0.8,0.4,1.5,0.8,2.3,1.1l0.3,0.1c0.3,0.1,0.6,0.3,0.9,0.4c7.3,3.2,14.1,3.7,20.5,1.5l0.1,0l2.2-3.6l0.7-1.1
	c0.2,0.8,0.2,2.1,0.3,3.6c0.1,2.3,0.4,4.6,0.8,6.9v0c0.4,2,1,3.6,2,4.2c0.2,0.1,0.3,0.2,0.5,0.2l1.6-2.1l4.3-5.6l0.1-0.3
	C528,165.3,525.5,156.5,520,151.3z"/>
<path class="st2" d="M590,182.1c-3.6,4.8-13,12.8-18.3,15.6c-0.5,0.3-1.1,0.5-1.6,0.8c0.5-1.3,0.6-2.7,0.3-4c-0.6-1.6-1.6-3-2.8-4.1
	c-3.2-3.4-6.5-6.8-9.8-10.2c4.4,5.9,6.2,13.3,4.8,20.5c-2.7,0.4-5.5,0.3-8.2-0.2c-5.8-1.3-11.2-5.2-13.5-10.7
	c-2-4.6-1.7-9.9-1.1-14.9c0.6-5,1.6-10.1,0.9-15c-0.7-5-3.4-10.1-8.1-11.9c0.9,0.7,1,2.1,0.3,3c-0.1,0.1-0.1,0.1-0.2,0.2
	c-0.7,0.6-1.6,0.9-2.6,0.9c-0.3,0-0.6,0-0.9-0.1c-3.7-0.6-6.5-3.7-8.8-6.6c-1.2-0.2-2.3-1-2.7-2.2c-0.2-0.6-0.2-1.3,0-1.9
	c0.8-1.5,2.7-2.2,4.2-1.4c0.4,0.2,0.7,0.5,1,0.8c-1.3-5.5,2-11,7.5-12.3c0.5-0.1,1-0.2,1.5-0.3c4.3-0.4,11.2-1.1,14,2.2
	c4.4,5.1,11.3,10.3,12,17c0.7,6.7,4.4,5.4,6,12c1.6,6.6,8,8.9,14,12C584.8,174.6,583.8,186.5,590,182.1z"/>
<path class="st2" d="M515.8,167.2c6.2,10.7-5.5,28.7,6.3,32.4l-1-1c-7.1-8.7,7.7-27.2,0.6-35.9c-1.1-1.3-2-2.7-2.8-4.2L515.8,167.2z
	"/>
<path class="st4" d="M525.4,172.9c-4.1-12.5-14.8-21.7-27.7-24.1c0,0-0.1,0-0.2-0.1c-0.1,0-0.2-0.1-0.2-0.1c0.3-0.1,0.5-0.3,0.8-0.4
	c0,0,0,0,0,0c0,0,0,0,0,0v0c0.2-0.2,0.4-0.4,0.7-0.6l0.6,0C499.3,147.6,521.9,144,525.4,172.9z"/>
<path class="st6" d="M305,219c-0.5,3.5-3.7,5.9-7.1,5.5c-0.3,0-0.7-0.1-1-0.2l-28.1,34.1l-9-12l33.2-30.4c1.1-2.7,3.8-4.4,6.8-4.1
	c3.4,0.4,5.8,3.5,5.4,6.9l0,0l0,0C305,218.8,305,218.9,305,219z"/>
<path class="st7" d="M221.8,212.3c0,0,18.8-2.1,22.8,6.9s14.1,27.7,14.1,27.7s-5.2,2.2,0.1-3.5c2.4-2.6-2-1,1-2s4,0,4,0l10,17
	c0,0-0.8,3.9-6,4s3-5-4,2c-3.6,3.6-6.1,2.2-6.1,2.2l-44.2-24.5L221.8,212.3z"/>
<path class="st6" d="M135.9,346.6c2.5-2.5,2.6-6.5,0.2-9c-0.2-0.2-0.5-0.5-0.8-0.7l13.4-48.5l-16-7l-6.4,57.3
	c-1.6,2.5-1.2,5.7,0.8,7.9c2.4,2.5,6.3,2.6,8.7,0.2l0,0l0,0C135.9,346.7,135.9,346.6,135.9,346.6z"/>
<path class="st7" d="M172.4,206.9c0,0-8.1-11.8-21.8,3.5s-18.1,55.3-17.4,57.8s4.3,1.1,0,5.3s-7.3,1.2-4.3,4.2s2,7.5-3.1,8.6
	s22.1,5.4,22.1,5.4s2.9-1.1,3-8.1c0.1-3.9-1.9-5.9,1.1-6.9s-0.7-7.7-0.4-8.8s13.3-22.2,13.3-22.2L172.4,206.9z"/>
<ellipse transform="matrix(7.561574e-03 -1 1 7.561574e-03 -127.1064 752.1733)" class="st0" cx="315.4" cy="440.1" rx="4.8" ry="3.3"/>
<ellipse transform="matrix(7.561574e-03 -1 1 7.561574e-03 -103.9266 714.786)" class="st0" cx="308.1" cy="409.8" rx="4.8" ry="3.3"/>
<ellipse transform="matrix(7.561574e-03 -1 1 7.561574e-03 379.7473 558.8743)" class="st0" cx="471.4" cy="88.1" rx="4.8" ry="3.3"/>
<polygon class="st6" points="191.5,530.5 201.4,530.5 206.2,492.3 191.5,492.3 "/>
<path class="st2" d="M191.2,540.8l30.4,0v-0.4c0-6.5-5.3-11.9-11.9-11.9h0l-5.6-4.2l-10.4,4.2h-2.7L191.2,540.8z"/>
<polygon class="st6" points="148.5,530.5 158.4,530.5 163.2,492.3 148.5,492.3 "/>
<path class="st2" d="M148.2,540.8l30.4,0v-0.4c0-6.5-5.3-11.9-11.9-11.9h0l-5.6-4.2l-10.4,4.2h-2.7L148.2,540.8z"/>
<path class="st5" d="M220.9,323.2c0,0,11.3,15.7,3.1,42.9s2.4,51.4,0.1,56.3s-6.9,9.5-3.1,13.2s5.8,6.7,2.8,7.7s-19,71-19,71l-17,1
	c0,0-6.2-32.5,0.4-58.8c0,0-1.4-19.1,1.6-24.6s2.4-0.5,2.2-7.6c-0.1-5.1-0.9-10.1-2.2-15c-1-4-1.6-44.3-1.6-44.3l-10.1,53.8
	c-0.7,1.8-0.9,3.8-0.7,5.8c0.4,2.8,0.4,6.9-0.1,8.3s-1.1,1.7-0.8,4.6s-11.7,74.4-11.7,74.4h-19l-9-75.5c1.6-1.8,3-3.8,4-6
	c2-4,2.1-4.2,1-7.1s-1-8.5-1-10.2s-1-78.2,12-89.4S220.9,323.2,220.9,323.2z"/>
<path class="st4" d="M162.5,203.2l19-4.9l8.9-12.2l21,2.6l4.5,16.7l15,8.7c0,0-8.3,87.6-6.3,92.4s-2.8,8.8-8.8,15s5-0.7,6.4,6
	s11.6,13.9,0,13.8s-75.4,3.2-73.4-4.8s-4.2-10.2-1.2-15.2s5-2.2,4-9.6s0-12.4,0-16.4s3.4-40.3,3.4-40.3L162.5,203.2z"/>
<circle class="st6" cx="204" cy="160.9" r="23.1"/>
<path class="st2" d="M188.9,178.8c5.5-4.3-2-23,7-19c0,0,11-7,13.2-2.4c2.6,5.3,11.7,2.9,17.3,1c-0.4-1-0.8-2.1-0.9-3.2
	c1,0.8,2.1,1.5,3.3,2.2c0.8-0.4,1.4-1,2-1.6c1.1-1.3,1.3-3.1,0.5-4.6c-0.9-1.4-2.9-1.9-4-3.1c-0.3-0.4-0.3-0.8-0.2-1.3
	c0.5-1.9-0.6-3.9-2.6-4.4c-0.2-0.1-0.4-0.1-0.7-0.1c-0.2,0-0.4,0-0.6-0.1c-0.9-0.6-1.8-1.3-2.6-2.1c1.3,0.1,2.6,0,3.9-0.1
	c0.3,0,0.5-0.1,0.8-0.1c-1-2.4-3-4.2-5.5-5c-2.6-0.8-5.2-1.2-7.9-1.1c-1.5,0-3.1-0.1-4.6-0.1c-3.3-0.2-6.5-0.1-9.8,0.3
	c-7,1.3-13.1,5.6-16.6,11.8C177.5,152,173.9,171.8,188.9,178.8z"/>
<path class="st7" d="M230.7,341.4c3.6,6.5-16.8,8.4-38.9,7.5c-0.4-1.6-1.1-3.2-2.1-4.6c-2.4-3.5,0.5-27.5-3-29.9
	c1.6,3.9-4.9,29.8-6.3,33.8c-20-1.6-38.2-5.2-38-9.5c0.1-1.3,4.2-25.3,6.3-27.1c2-1.8,0-36.2,0-43.5c0-7.4,11-61.6,11-63.6
	s26-12,26-12l11,63l16.7-59.2c1.6,2.2,3.5,4.2,5.6,6c3.4,2.8,16.6,14.2,16.6,14.2l-11.4,84.3c0,0,5.4,12.7,5.1,17.8
	c-0.1,4-0.9,8-2.3,11.7C225.5,334.9,225.7,332.3,230.7,341.4z"/>
<g>
	<path class="st4" d="M361.2,268.5c0,1.7-1.4,3.2-3.2,3.2c-1.7,0-3.2-1.4-3.2-3.2c0-1.7,1.4-3.2,3.2-3.2
		C359.8,265.4,361.2,266.8,361.2,268.5z"/>
	<path class="st4" d="M385.8,230.2c-0.2,0.1-0.4,0.1-0.5,0.2c-24.6,7.5-32.3,22-33.8,25.5c0,0.1-0.1,0.1-0.1,0.2
		c-0.1,0.2-0.1,0.4-0.1,0.6c0,0.2,0.1,0.4,0.1,0.6l0.1,0.2l1.8,4.2l0.1,0.1c0.3,0.6,0.9,1,1.6,1h6.6c0.5,0,0.9-0.2,1.2-0.5l0.2-0.2
		l3.3-3.8l0.1-0.2c0.3-0.3,0.4-0.7,0.4-1.1l0-0.1l-0.2-2.9c0.6-8.1,12.3-17.1,19.5-21.9c0.1-0.1,0.2-0.2,0.4-0.2
		c0.2-0.2,0.3-0.4,0.3-0.7C386.7,230.7,386.3,230.2,385.8,230.2z"/>
	<path class="st4" d="M370.3,254.7c0-1.7,1.4-3.2,3.2-3.2c1.7,0,3.1,1.4,3.1,3.2c0,1.7-1.4,3.2-3.1,3.2
		C371.8,257.8,370.3,256.4,370.3,254.7z"/>
	<path class="st4" d="M345.7,293.1c0.2-0.1,0.4-0.1,0.5-0.2c24.6-7.5,32.3-22,33.8-25.5c0-0.1,0.1-0.1,0.1-0.2
		c0.1-0.2,0.1-0.4,0.1-0.6c0-0.2-0.1-0.4-0.1-0.6l-0.1-0.2l-1.8-4.2l-0.1-0.1c-0.3-0.6-0.9-1-1.6-1h-6.6c-0.5,0-0.9,0.2-1.2,0.5
		l-0.2,0.2l-3.3,3.8l-0.1,0.2c-0.3,0.3-0.4,0.7-0.4,1.1l0,0.1l0.2,2.9c-0.6,8.1-12.3,17.1-19.5,21.9c-0.1,0.1-0.2,0.2-0.4,0.2
		c-0.2,0.2-0.3,0.4-0.3,0.7C344.8,292.6,345.2,293.1,345.7,293.1z"/>
</g>
<circle class="st8" cx="366.1" cy="260.5" r="43.7"/>
<line class="st8" x1="315.4" y1="246.8" x2="293" y2="239.5"/>
<line class="st8" x1="366.1" y1="199.1" x2="366.1" y2="174.8"/>
<line class="st8" x1="327" y1="212" x2="313.3" y2="191.9"/>
<line class="st8" x1="308.9" y1="185.2" x2="303.3" y2="177"/>
<line class="st8" x1="414.4" y1="207.1" x2="407.1" y2="213.8"/>
<path class="st8" d="M342.4,230.5c0,0-7,5.3-9.6,12.4"/>
<path class="st8" d="M379.2,297.5c0,0,8.3-2.6,13.2-8.5"/>
<line class="st8" x1="404.2" y1="309.4" x2="417.5" y2="328.8"/>
<line class="st8" x1="419" y1="238.7" x2="441.9" y2="232.9"/>
<line class="st8" x1="335" y1="316.1" x2="320.1" y2="335.4"/>
<line class="st8" x1="370.1" y1="321.7" x2="370.6" y2="346.1"/>
<line class="st8" x1="370.6" y1="354.2" x2="370.8" y2="364"/>
<line class="st8" x1="313.3" y1="282.6" x2="292.3" y2="294.9"/>
<line class="st8" x1="285.3" y1="298.9" x2="276.7" y2="303.9"/>
</svg>
