<svg xmlns="http://www.w3.org/2000/svg" width="51.533" height="39.641" viewBox="0 0 51.533 39.641">
  <g id="camera_icon" transform="translate(0)">
    <path id="Tracé_515" data-name="Tracé 515" d="M95.371,102.318H87.009l-5-5.054s-.025-.025-.037-.025l-.025-.025h0A4.052,4.052,0,0,0,79.056,96H68.651A4.1,4.1,0,0,0,65.6,97.35v.012l-4.893,4.955H52.162A4.114,4.114,0,0,0,48,106.431v25.036a4.166,4.166,0,0,0,4.162,4.175H95.371a4.174,4.174,0,0,0,4.162-4.175V106.431A4.121,4.121,0,0,0,95.371,102.318Zm-21.6,27.067a11.471,11.471,0,1,1,11.446-11.471A11.48,11.48,0,0,1,73.767,129.385Zm20.824-20.44a1.747,1.747,0,1,1,1.734-1.747A1.742,1.742,0,0,1,94.591,108.945Z" transform="translate(-48 -96)" fill="#fff"/>
    <path id="Tracé_516" data-name="Tracé 516" d="M194.847,202.9a8.672,8.672,0,1,0,8.647,8.671A8.652,8.652,0,0,0,194.847,202.9Z" transform="translate(-169.08 -189.658)" fill="#fff"/>
  </g>
</svg>
