<svg xmlns="http://www.w3.org/2000/svg" xmlns:xlink="http://www.w3.org/1999/xlink" width="368.323" height="245.986" viewBox="0 0 368.323 245.986">
  <defs>
    <radialGradient id="radial-gradient" cx="0.704" cy="0.148" r="0.327" gradientTransform="matrix(-0.245, -0.906, 0.526, -0.423, 0.798, 0.849)" gradientUnits="objectBoundingBox">
      <stop offset="0" stop-color="#2b2424"/>
      <stop offset="1" stop-color="#170707"/>
    </radialGradient>
    <filter id="Rectangle_224" x="0" y="7.057" width="368.323" height="238.929" filterUnits="userSpaceOnUse">
      <feOffset dy="10" input="SourceAlpha"/>
      <feGaussianBlur stdDeviation="10" result="blur"/>
      <feFlood flood-opacity="0.278"/>
      <feComposite operator="in" in2="blur"/>
      <feComposite in="SourceGraphic"/>
    </filter>
  </defs>
  <g id="card_template" transform="translate(10.818 -11.12)">
    <g id="Ellipse_220" data-name="Ellipse 220" transform="translate(298.426 11.12)" fill="none" stroke="#002f65" stroke-width="2">
      <ellipse cx="29.079" cy="29.079" rx="29.079" ry="29.079" stroke="none"/>
      <ellipse cx="29.079" cy="29.079" rx="28.079" ry="28.079" fill="none"/>
    </g>
    <g id="Ellipse_221" data-name="Ellipse 221" transform="translate(309.504 22.197)" fill="none" stroke="#002f65" stroke-width="2">
      <ellipse cx="18.001" cy="18.001" rx="18.001" ry="18.001" stroke="none"/>
      <ellipse cx="18.001" cy="18.001" rx="17.001" ry="17.001" fill="none"/>
    </g>
    <g id="Ellipse_222" data-name="Ellipse 222" transform="translate(319.197 31.891)" fill="none" stroke="#002f65" stroke-width="2">
      <ellipse cx="8.308" cy="8.308" rx="8.308" ry="8.308" stroke="none"/>
      <ellipse cx="8.308" cy="8.308" rx="7.308" ry="7.308" fill="none"/>
    </g>
    <rect id="Rectangle_224-2" data-name="Rectangle 224" width="312.62" height="186.668" rx="16" transform="translate(21.077 31.275)" fill="#fff"/>
    <g id="card_template-2" data-name="card_template" transform="translate(19.182 38.177)">
      <g transform="matrix(1, 0, 0, 1, -30, -27.06)" filter="url(#Rectangle_224)">
        <rect id="Rectangle_224-3" data-name="Rectangle 224" width="308.323" height="178.929" rx="16" transform="translate(30 27.06)" fill="url(#radial-gradient)"/>
      </g>
      <text id="Your_Name" data-name="Your Name" transform="translate(26.283 134.275)" fill="#eaeaea" font-size="15" font-family="Poppins-Bold, Poppins" font-weight="700"><tspan x="0" y="0">Your Name</tspan></text>
      <text id="Digital_Business_Card" data-name="Digital Business Card" transform="translate(26.283 152.526)" fill="#ababab" font-size="10" font-family="Poppins-MediumItalic, Poppins" font-weight="500" font-style="italic"><tspan x="0" y="0">Digital Business Card</tspan></text>
      <g id="Groupe_73" data-name="Groupe 73" transform="translate(230.166 131.089)">
        <rect id="Rectangle_215" data-name="Rectangle 215" width="13.858" height="10.243" transform="translate(0 0)" fill="#fff"/>
        <rect id="Rectangle_218" data-name="Rectangle 218" width="13.858" height="10.243" transform="translate(25.908 22.896) rotate(180)" fill="#fff"/>
        <rect id="Rectangle_216" data-name="Rectangle 216" width="9.038" height="10.243" transform="translate(16.87 0)" fill="#fff"/>
        <rect id="Rectangle_217" data-name="Rectangle 217" width="9.038" height="10.243" transform="translate(9.038 22.896) rotate(180)" fill="#fff"/>
      </g>
      <path id="Polygone_2" data-name="Polygone 2" d="M7.076,0l7.076,12.131H0Z" transform="translate(258.726 139.811) rotate(-30)" fill="#fff"/>
      <g id="Logo" transform="translate(26.029 10.181)">
        <path id="Tracé_645" data-name="Tracé 645" d="M10.066,18.769a2.2,2.2,0,0,1-1.513,1.945,2.223,2.223,0,0,1-2.382-.667A2.195,2.195,0,0,1,6.8,16.686a2.223,2.223,0,0,1,2.74.513,2.2,2.2,0,0,1,.522,1.57Z" transform="translate(3.053 7.959)" fill="#ec910a"/>
        <path id="Tracé_646" data-name="Tracé 646" d="M30.429,1.815l-.386.08C12.377,5.435,6.016,14.954,4.685,17.306l-.013.128a1,1,0,0,0-.135.41,1.165,1.165,0,0,0,.052.44l-.011.117.956,3.047-.009.093a1.26,1.26,0,0,0,1.1.826l4.593.45a1.288,1.288,0,0,0,.851-.234l.169-.16,2.6-2.416.1-.1a1.284,1.284,0,0,0,.38-.739l.009-.093.094-2.05c1-5.6,9.763-11.033,15.1-13.816l.278-.185a.665.665,0,0,0,.234-.459.7.7,0,0,0-.155-.5.708.708,0,0,0-.457-.255Z" transform="translate(2.449)" fill="#ec910a"/>
        <path id="Tracé_647" data-name="Tracé 647" d="M13.254,12.815a2.2,2.2,0,0,1,1.558-1.891,2.222,2.222,0,0,1,2.354.71,2.195,2.195,0,0,1-.664,3.338,2.222,2.222,0,0,1-2.755-.545,2.2,2.2,0,0,1-.494-1.612Z" transform="translate(7.194 4.912)" fill="#ec910a"/>
        <path id="Tracé_648" data-name="Tracé 648" d="M.672,35.692l.4-.079C18.723,32.071,25.1,22.553,26.415,20.2a.629.629,0,0,0,.071-.122,1.165,1.165,0,0,0,.082-.839l.013-.128L25.565,16.07l.009-.093a1.248,1.248,0,0,0-1.1-.826l-4.593-.45a1.182,1.182,0,0,0-.852.246l-.168.148-2.6,2.416-.117.106a1.262,1.262,0,0,0-.379.728l-.009.093-.081,2.039C14.66,26.084,5.9,31.509.56,34.293l-.275.15a.654.654,0,0,0-.233.448.679.679,0,0,0,.347.722.687.687,0,0,0,.273.08Z" transform="translate(0 7.018)" fill="#ec910a"/>
      </g>
    </g>
  </g>
</svg>
