<svg xmlns="http://www.w3.org/2000/svg" width="67.391" height="51.345" viewBox="0 0 67.391 51.345">
  <path id="discord_icon" d="M83.137,36.336a.172.172,0,0,0-.088-.08A55.593,55.593,0,0,0,69.332,32a.208.208,0,0,0-.22.1A38.672,38.672,0,0,0,67.4,35.614a51.327,51.327,0,0,0-15.407,0,35.478,35.478,0,0,0-1.735-3.507.217.217,0,0,0-.221-.1,55.435,55.435,0,0,0-13.717,4.253.2.2,0,0,0-.09.077C27.5,49.38,25.1,62.106,26.279,74.675a.231.231,0,0,0,.088.158,55.892,55.892,0,0,0,16.828,8.5.218.218,0,0,0,.236-.077,39.908,39.908,0,0,0,3.443-5.6.213.213,0,0,0-.117-.3,36.809,36.809,0,0,1-5.257-2.5.216.216,0,0,1-.021-.358c.353-.265.707-.54,1.044-.818a.208.208,0,0,1,.218-.029,39.867,39.867,0,0,0,33.867,0,.208.208,0,0,1,.221.027c.337.278.691.556,1.047.821a.216.216,0,0,1-.019.358,34.544,34.544,0,0,1-5.259,2.5.215.215,0,0,0-.115.3,44.819,44.819,0,0,0,3.44,5.595.214.214,0,0,0,.236.08,55.706,55.706,0,0,0,16.855-8.5.216.216,0,0,0,.088-.155A56.459,56.459,0,0,0,83.137,36.336ZM48.52,67.022c-3.32,0-6.056-3.047-6.056-6.789s2.683-6.79,6.056-6.79c3.4,0,6.109,3.074,6.056,6.789C54.576,63.975,51.893,67.022,48.52,67.022Zm22.393,0c-3.32,0-6.056-3.047-6.056-6.789s2.683-6.79,6.056-6.79c3.4,0,6.11,3.074,6.056,6.789C76.969,63.975,74.313,67.022,70.913,67.022Z" transform="translate(-26 -31.999)"  />
</svg>
