<svg id="email_icon" xmlns="http://www.w3.org/2000/svg" width="57.901" height="46.32" viewBox="0 0 57.901 46.32">
  <path id="Tracé_15" data-name="Tracé 15" d="M31.3,27.334a2.9,2.9,0,0,1-3.879,0L2.87,5.013A5.79,5.79,0,0,1,6.141,4H52.462a5.79,5.79,0,0,1,3.271,1.013Z" transform="translate(-0.351 -4)"      />
  <path id="Tracé_16" data-name="Tracé 16" d="M59.9,6.26V37.353a8.685,8.685,0,0,1-8.685,8.685H10.685A8.685,8.685,0,0,1,2,37.353V6.26L27.129,29.189a5.807,5.807,0,0,0,7.672-.058Z" transform="translate(-2 0.283)"      />
</svg>
