<svg id="hero_bg" xmlns="http://www.w3.org/2000/svg" width="1920" height="954.608" viewBox="0 0 1920 954.608">
  <g id="I" transform="translate(844.593 88.618)">
    <g id="XMLID_49_" transform="translate(49.495 0)">
      <path id="XMLID_54_" d="M353.358,418.937a15.555,15.555,0,0,1-4.2,10.648,13.914,13.914,0,0,1-2.513,2.148,15.875,15.875,0,0,1-5.3,2.376,15.614,15.614,0,0,1-3.61.411,15.4,15.4,0,0,1-8.911-2.788c-.091-.091-.228-.137-.32-.228a15.128,15.128,0,0,1-2.011-1.782c0-.091.046-.137.046-.229a.412.412,0,0,0-.228.046,16.287,16.287,0,0,1-1.874-2.422,15.659,15.659,0,0,1-2.331-8.18,11.133,11.133,0,0,1,.046-1.234,17.764,17.764,0,0,1,.594-3.245,14.689,14.689,0,0,1,1.005-2.468,15.647,15.647,0,0,1,29.613,6.946Z" transform="translate(-322.1 -403.4)" fill="#ec910a"/>
      <path id="XMLID_53_" d="M331.628,460.6c0,.091-.046.137-.046.229l-.183-.183A.5.5,0,0,1,331.628,460.6Z" transform="translate(-327.15 -434.46)" fill="#ec910a"/>
    </g>
    <g id="XMLID_56_" transform="translate(18.237 13.71)">
      <path id="XMLID_58_" d="M277.6,445.419a11.942,11.942,0,0,1-3.245,8.18,13.387,13.387,0,0,1-1.919,1.691,12.107,12.107,0,0,1-4.067,1.828,11.912,11.912,0,0,1-5.484,0,11.716,11.716,0,0,1-4.067-1.828.8.8,0,0,1-.228-.183,11.118,11.118,0,0,1-1.554-1.371.345.345,0,0,1,.046-.183.346.346,0,0,0-.183.046,11.211,11.211,0,0,1-1.417-1.874,11.809,11.809,0,0,1-1.782-6.306,6.747,6.747,0,0,1,.046-.96,15.231,15.231,0,0,1,.457-2.513,9.936,9.936,0,0,1,.777-1.919,11.933,11.933,0,0,1,22.621,5.393Z" transform="translate(-253.7 -433.4)" fill="#ec910a"/>
      <path id="XMLID_57_" d="M260.683,477.5a.345.345,0,0,1-.046.183l-.137-.137C260.591,477.546,260.637,477.5,260.683,477.5Z" transform="translate(-257.392 -457.347)" fill="#ec910a"/>
    </g>
    <path id="XMLID_43_" d="M251.271,503.058a27.185,27.185,0,0,0-2.1,10.419v11.059a124.239,124.239,0,0,0-26.368,12.43h0v-16.04A24.7,24.7,0,0,1,240.531,497.3,20.093,20.093,0,0,0,251.271,503.058Z" transform="translate(-218.684 -454.388)" fill="#ec910a"/>
    <g id="XMLID_31_" transform="translate(35.237 32.264)">
      <path id="XMLID_39_" d="M350.72,507.016v2.422c-.183,0-.366-.046-.5-.046a.58.58,0,0,1-.274-.046h-.229c-21.57-2.148-42.592,2.056-58.815,7.129v-9.46a22.244,22.244,0,0,1,2.422-10.1,24.49,24.49,0,0,1,1.554-2.6,23,23,0,0,1,2.742-3.2c.457-.457.96-.868,1.462-1.28a21.93,21.93,0,0,1,4.616-2.925,20.6,20.6,0,0,1,3.976-1.417.579.579,0,0,1,.274-.046,12.6,12.6,0,0,0,1.782,1.28A20.338,20.338,0,0,0,333.72,485.4,22.3,22.3,0,0,1,350.72,507.016Z" transform="translate(-290.9 -480.19)" fill="#ec910a"/>
      <path id="XMLID_37_" d="M331.5,474.046c.046.046.091.137.183.183,0-.091.046-.137.046-.228A.5.5,0,0,1,331.5,474.046Z" transform="translate(-312.946 -474)" fill="#ec910a"/>
    </g>
    <path id="XMLID_26_" d="M213.8,569.163c-.457.091,50.772-30.8,100.584-22.027l-8.409,9.871C305.971,557.052,263.2,548.735,213.8,569.163Z" transform="translate(-213.793 -480.598)" fill="#ec910a"/>
    <path id="XMLID_12_" d="M419.883,537.8h0Z" transform="translate(-325.603 -476.38)" fill="#ec910a"/>
    <path id="XMLID_59_" d="M257.9,494.753s7.632-3.016,19.514-3.153c0,0-5.575,4.113-7.815,10.328S262.607,506,262.607,506Z" transform="translate(-237.744 -451.293)" fill="#ec910a"/>
    <path id="XMLID_60_" d="M353.007,485.129s-18.462-12.065-38.707,0l14.35,16.909Z" transform="translate(-268.369 -444.868)" fill="#ec910a"/>
  </g>
  <g id="Groupe_14" data-name="Groupe 14" transform="translate(963.825 116.494)">
    <path id="XMLID_75_" d="M517.746,451.3h7.4v32.126H517.7V451.3Z" transform="translate(-517.7 -451.3)" fill="#ec910a"/>
    <path id="XMLID_77_" d="M545.8,507.387a4.433,4.433,0,0,1,8.866,0,4.433,4.433,0,1,1-8.866,0Z" transform="translate(-532.959 -479.374)" fill="#ec910a"/>
    <path id="XMLID_79_" d="M606.293,483.527l-.046-19.285-9.46,15.9h-3.336l-9.414-15.492v18.874H577V451.4h6.169l12.019,19.971L607.024,451.4h6.124l.091,32.126Z" transform="translate(-549.9 -451.354)" fill="#ec910a"/>
    <path id="XMLID_81_" d="M693.206,477.54v5.987H668.3V451.4h24.312v5.987H675.7v6.992h14.944v5.8H675.7v7.449h17.5Z" transform="translate(-599.477 -451.354)" fill="#ec910a"/>
    <path id="XMLID_83_" d="M742.782,457.378H732.5V451.3h28.014v6.078H750.231v26.094h-7.449Z" transform="translate(-634.338 -451.3)" fill="#ec910a"/>
  </g>
  <path id="Tracé_112" data-name="Tracé 112" d="M0,0H1920V866.156s-377.678-196.751-958.545.85S0,866.156,0,866.156Z" fill="#ec910a"/>
</svg>
