<svg xmlns="http://www.w3.org/2000/svg" width="534" height="534" viewBox="0 0 534 534">
  <g id="how_1" transform="translate(-461 -1028)">
    <circle id="Ellipse_208" data-name="Ellipse 208" cx="267" cy="267" r="267" transform="translate(461 1028)" fill="#f18901"/>
    <g id="Rectangle_225" data-name="Rectangle 225" transform="translate(630.816 1114.553)" fill="#fff" stroke="#1d1d1d" stroke-width="5">
      <rect width="194.368" height="361.894" rx="23" stroke="none"/>
      <rect x="2.5" y="2.5" width="189.368" height="356.894" rx="20.5" fill="none"/>
    </g>
    <rect id="Rectangle_229" data-name="Rectangle 229" width="35" height="86" rx="17.5" transform="translate(656 1143)" fill="#1d1d1d"/>
    <circle id="Ellipse_210" data-name="Ellipse 210" cx="50" cy="50" r="50" transform="translate(678 1326)" fill="#1d1d1d"/>
    <g id="logo" transform="translate(-139.231 1267.407)">
      <g id="I" transform="translate(844.593 88.618)">
        <g id="XMLID_49_" transform="translate(22.676 0)">
          <path id="XMLID_54_" d="M336.421,410.518a7.127,7.127,0,0,1-1.926,4.878,6.377,6.377,0,0,1-1.152.984,7.273,7.273,0,0,1-2.429,1.089,7.153,7.153,0,0,1-1.654.188,7.056,7.056,0,0,1-4.083-1.277c-.042-.042-.1-.063-.147-.1a6.93,6.93,0,0,1-.921-.817c0-.042.021-.063.021-.1a.189.189,0,0,0-.1.021,7.461,7.461,0,0,1-.858-1.11,7.174,7.174,0,0,1-1.068-3.748,5.1,5.1,0,0,1,.021-.565,8.137,8.137,0,0,1,.272-1.487,6.73,6.73,0,0,1,.461-1.131,7.169,7.169,0,0,1,13.567,3.182Z" transform="translate(-322.1 -403.4)" fill="#fff"/>
          <path id="XMLID_53_" d="M331.5,460.6c0,.042-.021.063-.021.1l-.084-.084A.228.228,0,0,1,331.5,460.6Z" transform="translate(-329.453 -448.624)" fill="#fff"/>
        </g>
        <g id="XMLID_56_" transform="translate(8.355 6.281)">
          <path id="XMLID_58_" d="M264.65,438.906a5.471,5.471,0,0,1-1.487,3.748,6.13,6.13,0,0,1-.879.775,5.546,5.546,0,0,1-1.863.838,5.458,5.458,0,0,1-2.512,0,5.367,5.367,0,0,1-1.863-.838.367.367,0,0,1-.1-.084,5.093,5.093,0,0,1-.712-.628.158.158,0,0,1,.021-.084.158.158,0,0,0-.084.021,5.137,5.137,0,0,1-.649-.858,5.41,5.41,0,0,1-.817-2.889,3.092,3.092,0,0,1,.021-.44,6.978,6.978,0,0,1,.209-1.152,4.552,4.552,0,0,1,.356-.879,5.467,5.467,0,0,1,10.364,2.471Z" transform="translate(-253.7 -433.4)" fill="#fff"/>
          <path id="XMLID_57_" d="M260.584,477.5a.158.158,0,0,1-.021.084l-.063-.063C260.542,477.521,260.563,477.5,260.584,477.5Z" transform="translate(-259.076 -468.267)" fill="#fff"/>
        </g>
        <path id="XMLID_43_" d="M235.844,499.938a12.455,12.455,0,0,0-.963,4.774v5.067a56.919,56.919,0,0,0-12.081,5.695h0v-7.349a11.318,11.318,0,0,1,8.124-10.824A9.206,9.206,0,0,0,235.844,499.938Z" transform="translate(-220.914 -477.64)" fill="#fff"/>
        <g id="XMLID_31_" transform="translate(16.144 14.782)">
          <path id="XMLID_39_" d="M318.307,495.3v1.11c-.084,0-.168-.021-.23-.021a.265.265,0,0,1-.126-.021h-.1c-9.882-.984-19.513.942-26.946,3.266V495.3a10.191,10.191,0,0,1,1.11-4.627,11.223,11.223,0,0,1,.712-1.193,10.542,10.542,0,0,1,1.256-1.466c.209-.209.44-.4.67-.586a10.049,10.049,0,0,1,2.115-1.34,9.445,9.445,0,0,1,1.822-.649.266.266,0,0,1,.126-.021,5.774,5.774,0,0,0,.817.586,9.318,9.318,0,0,0,10.992-.607A10.215,10.215,0,0,1,318.307,495.3Z" transform="translate(-290.9 -483.013)" fill="#fff"/>
          <path id="XMLID_37_" d="M331.5,474.021c.021.021.042.063.084.084,0-.042.021-.063.021-.1A.228.228,0,0,1,331.5,474.021Z" transform="translate(-323 -474)" fill="#fff"/>
        </g>
        <path id="XMLID_26_" d="M213.795,556.377c-.209.042,23.261-14.112,46.082-10.092l-3.852,4.522A81.026,81.026,0,0,0,213.795,556.377Z" transform="translate(-213.793 -515.801)" fill="#fff"/>
        <path id="XMLID_12_" d="M419.784,537.8h0Z" transform="translate(-376.589 -509.661)" fill="#fff"/>
        <path id="XMLID_59_" d="M257.9,493.045a27.388,27.388,0,0,1,8.94-1.445,11.521,11.521,0,0,0-3.58,4.732c-1.026,2.847-3.2,1.863-3.2,1.863Z" transform="translate(-248.665 -473.133)" fill="#fff"/>
        <path id="XMLID_60_" d="M332.034,482.223a17.434,17.434,0,0,0-17.734,0l6.574,7.747Z" transform="translate(-293.257 -463.778)" fill="#fff"/>
      </g>
    </g>
    <circle id="Ellipse_211" data-name="Ellipse 211" cx="10" cy="10" r="10" transform="translate(664 1151)" fill="#fff"/>
    <circle id="Ellipse_212" data-name="Ellipse 212" cx="10" cy="10" r="10" transform="translate(664 1201)" fill="#fff"/>
    <circle id="Ellipse_213" data-name="Ellipse 213" cx="5" cy="5" r="5" transform="translate(669 1181)" fill="#fff"/>
    <path id="Tracé_635" data-name="Tracé 635" d="M11132.578,508.121c-.374,12.08,12.31,39.737,40.723,41.841" transform="translate(-10449 871)" fill="none" stroke="#fff" stroke-width="2" opacity="0.5"/>
  </g>
</svg>
