<svg xmlns="http://www.w3.org/2000/svg" width="534" height="534" viewBox="0 0 534 534">
  <g id="how_3" transform="translate(-1137 -1677)">
    <circle id="Ellipse_215" data-name="Ellipse 215" cx="267" cy="267" r="267" transform="translate(1137 1677)" fill="#f18901"/>
    <g id="Groupe_75" data-name="Groupe 75" transform="matrix(0.985, -0.174, 0.174, 0.985, -264.337, 230.374)">
      <g id="Rectangle_249" data-name="Rectangle 249" transform="translate(1226.816 1774.553)" fill="#fff" stroke="#1d1d1d" stroke-width="5">
        <rect width="145.264" height="270.467" rx="23" stroke="none"/>
        <rect x="2.5" y="2.5" width="140.264" height="265.467" rx="20.5" fill="none"/>
      </g>
      <rect id="Rectangle_250" data-name="Rectangle 250" width="26.158" height="64.273" rx="13.079" transform="translate(1245.638 1795.813)" fill="#1d1d1d"/>
      <circle id="Ellipse_216" data-name="Ellipse 216" cx="37.368" cy="37.368" r="37.368" transform="translate(1262.08 1932.581)" fill="#1d1d1d"/>
      <circle id="Ellipse_217" data-name="Ellipse 217" cx="7.474" cy="7.474" r="7.474" transform="translate(1251.617 1801.792)" fill="#fff"/>
      <circle id="Ellipse_218" data-name="Ellipse 218" cx="7.474" cy="7.474" r="7.474" transform="translate(1251.617 1839.16)" fill="#fff"/>
      <circle id="Ellipse_219" data-name="Ellipse 219" cx="3.737" cy="3.737" r="3.737" transform="translate(1255.354 1824.213)" fill="#fff"/>
      <path id="Tracé_636" data-name="Tracé 636" d="M11132.576,508.121c-.28,9.028,9.2,29.7,30.435,31.271" transform="translate(-9866.327 1464.161)" fill="none" stroke="#fff" stroke-width="2" opacity="0.5"/>
    </g>
    <g id="Groupe_74" data-name="Groupe 74" transform="matrix(0.985, -0.174, 0.174, 0.985, -130.771, 332.728)">
      <g id="Rectangle_247" data-name="Rectangle 247" transform="translate(1215.816 1763.553)" fill="#fff" stroke="#1d1d1d" stroke-width="5">
        <rect width="153.178" height="285.203" rx="23" stroke="none"/>
        <rect x="2.5" y="2.5" width="148.178" height="280.203" rx="20.5" fill="none"/>
      </g>
      <path id="Rectangle_248" data-name="Rectangle 248" d="M0,0H82.424a0,0,0,0,1,0,0V3.13a10,10,0,0,1-10,10H10a10,10,0,0,1-10-10V0A0,0,0,0,1,0,0Z" transform="translate(1251.558 1763.553)" fill="#1d1d1d"/>
      <text id="Share_Data" data-name="Share Data" transform="translate(1247.484 1910.727)" fill="#1d1d1d" font-size="15" font-family="Poppins-Bold, Poppins" font-weight="700"><tspan x="0" y="0">Share Data</tspan></text>
      <g id="Logo" transform="translate(1269.836 1836.159) rotate(-9)">
        <path id="Tracé_645" data-name="Tracé 645" d="M10.782,19.149a2.557,2.557,0,0,1-1.758,2.26,2.582,2.582,0,0,1-2.767-.774,2.55,2.55,0,0,1,.735-3.9,2.582,2.582,0,0,1,3.184.6,2.551,2.551,0,0,1,.607,1.824Z" transform="translate(4.454 11.61)" fill="#1d1d1d"/>
        <path id="Tracé_646" data-name="Tracé 646" d="M34.618,1.815l-.449.093C13.646,6.021,6.255,17.08,4.71,19.813l-.015.149a1.164,1.164,0,0,0-.157.477,1.354,1.354,0,0,0,.06.512l-.013.136,1.11,3.54-.011.108a1.464,1.464,0,0,0,1.28.959l5.336.523a1.5,1.5,0,0,0,.989-.272l.2-.186L16.51,22.95l.121-.111a1.491,1.491,0,0,0,.441-.859l.011-.108.109-2.381c1.159-6.5,11.343-12.818,17.542-16.052l.323-.214a.773.773,0,0,0,.272-.534.814.814,0,0,0-.18-.579.822.822,0,0,0-.531-.3Z" transform="translate(3.572 0)" fill="#1d1d1d"/>
        <path id="Tracé_647" data-name="Tracé 647" d="M13.256,13.137a2.558,2.558,0,0,1,1.81-2.2,2.582,2.582,0,0,1,2.735.825,2.55,2.55,0,0,1-.771,3.878,2.582,2.582,0,0,1-3.2-.633,2.55,2.55,0,0,1-.573-1.873Z" transform="translate(10.494 7.165)" fill="#1d1d1d"/>
        <path id="Tracé_648" data-name="Tracé 648" d="M.774,39.089,1.236,39C21.746,34.882,29.15,23.825,30.683,21.091a.731.731,0,0,0,.083-.142,1.353,1.353,0,0,0,.1-.975l.015-.149L29.7,16.292l.011-.108a1.451,1.451,0,0,0-1.28-.959L23.089,14.7a1.373,1.373,0,0,0-.99.286l-.2.172L18.88,17.967l-.136.123a1.466,1.466,0,0,0-.44.846l-.011.108L18.2,21.413C17.026,27.927,6.843,34.23.644,37.464l-.319.174a.76.76,0,0,0-.271.52.789.789,0,0,0,.4.839.8.8,0,0,0,.317.093Z" transform="translate(0 10.238)" fill="#1d1d1d"/>
      </g>
    </g>
    <g id="Logo-2" data-name="Logo" transform="matrix(0.921, -0.391, 0.391, 0.921, 1334.041, 1929.075)">
      <path id="Tracé_645-2" data-name="Tracé 645" d="M9.7,18.575a2.018,2.018,0,0,1-1.388,1.784,2.039,2.039,0,0,1-2.185-.611,2.013,2.013,0,0,1,.58-3.083,2.039,2.039,0,0,1,2.514.47,2.014,2.014,0,0,1,.479,1.44Z" transform="translate(2.337 6.093)" fill="#fff"/>
      <path id="Tracé_646-2" data-name="Tracé 646" d="M28.287,1.815l-.354.073c-16.2,3.248-22.039,11.98-23.26,14.137l-.012.118a.919.919,0,0,0-.124.376,1.069,1.069,0,0,0,.047.4l-.01.107.877,2.795-.008.085a1.156,1.156,0,0,0,1.011.757l4.213.413a1.182,1.182,0,0,0,.781-.215l.155-.147L13.99,18.5l.1-.088a1.177,1.177,0,0,0,.348-.678l.008-.086.086-1.88c.915-5.134,8.956-10.12,13.85-12.674l.255-.169a.61.61,0,0,0,.215-.421.643.643,0,0,0-.142-.457.649.649,0,0,0-.42-.234Z" transform="translate(1.874 0)" fill="#fff"/>
      <path id="Tracé_647-2" data-name="Tracé 647" d="M13.253,12.651a2.02,2.02,0,0,1,1.429-1.735,2.038,2.038,0,0,1,2.159.651,2.013,2.013,0,0,1-.609,3.062,2.039,2.039,0,0,1-2.527-.5,2.014,2.014,0,0,1-.453-1.479Z" transform="translate(5.507 3.76)" fill="#fff"/>
      <path id="Tracé_648-2" data-name="Tracé 648" d="M.62,33.955l.365-.072C17.178,30.634,23.024,21.9,24.234,19.745a.577.577,0,0,0,.065-.112,1.069,1.069,0,0,0,.075-.77l.011-.118-.931-2.789.008-.085a1.145,1.145,0,0,0-1.011-.757L18.239,14.7a1.084,1.084,0,0,0-.782.226l-.154.136-2.387,2.216-.107.1a1.157,1.157,0,0,0-.347.668l-.008.085L14.378,20C13.451,25.142,5.412,30.118.517,32.672l-.252.137a.6.6,0,0,0-.214.411.623.623,0,0,0,.318.662.63.63,0,0,0,.25.073Z" transform="translate(0 5.372)" fill="#fff"/>
    </g>
  </g>
</svg>
