<svg xmlns="http://www.w3.org/2000/svg" width="534" height="534" viewBox="0 0 534 534">
  <g id="how_1" transform="translate(-461 -1028)">
    <circle id="Ellipse_208" data-name="Ellipse 208" cx="267" cy="267" r="267" transform="translate(461 1028)" fill="#f18901"/>
    <g id="Rectangle_225" data-name="Rectangle 225" transform="translate(630.816 1114.553)" fill="#fff" stroke="#1d1d1d" stroke-width="5">
      <rect width="194.368" height="361.894" rx="23" stroke="none"/>
      <rect x="2.5" y="2.5" width="189.368" height="356.894" rx="20.5" fill="none"/>
    </g>
    <rect id="Rectangle_229" data-name="Rectangle 229" width="35" height="86" rx="17.5" transform="translate(656 1143)" fill="#1d1d1d"/>
    <circle id="Ellipse_210" data-name="Ellipse 210" cx="50" cy="50" r="50" transform="translate(678 1326)" fill="#1d1d1d"/>
    <circle id="Ellipse_211" data-name="Ellipse 211" cx="10" cy="10" r="10" transform="translate(664 1151)" fill="#fff"/>
    <circle id="Ellipse_212" data-name="Ellipse 212" cx="10" cy="10" r="10" transform="translate(664 1201)" fill="#fff"/>
    <circle id="Ellipse_213" data-name="Ellipse 213" cx="5" cy="5" r="5" transform="translate(669 1181)" fill="#fff"/>
    <path id="Tracé_635" data-name="Tracé 635" d="M11132.578,508.121c-.374,12.08,12.31,39.737,40.723,41.841" transform="translate(-10449 871)" fill="none" stroke="#fff" stroke-width="2" opacity="0.5"/>
    <g id="Logo" transform="translate(707.198 1347.202)">
      <path id="Tracé_645" data-name="Tracé 645" d="M11.4,19.475a2.863,2.863,0,0,1-1.968,2.531,2.892,2.892,0,0,1-3.1-.867,2.856,2.856,0,0,1,.823-4.373,2.892,2.892,0,0,1,3.565.667,2.857,2.857,0,0,1,.679,2.042Z" transform="translate(5.66 14.753)" fill="#fff"/>
      <path id="Tracé_646" data-name="Tracé 646" d="M38.224,1.815l-.5.1C14.739,6.525,6.462,18.91,4.731,21.97l-.016.167a1.3,1.3,0,0,0-.175.534,1.516,1.516,0,0,0,.067.573l-.015.152,1.243,3.964-.012.121a1.639,1.639,0,0,0,1.434,1.074l5.976.585a1.676,1.676,0,0,0,1.107-.3l.22-.208,3.386-3.143.135-.125a1.67,1.67,0,0,0,.494-.962l.012-.121.123-2.667c1.3-7.282,12.7-14.354,19.644-17.976l.362-.24a.866.866,0,0,0,.3-.6.911.911,0,0,0-.2-.649.921.921,0,0,0-.6-.332Z" transform="translate(4.539 0)" fill="#fff"/>
      <path id="Tracé_647" data-name="Tracé 647" d="M13.257,13.413a2.865,2.865,0,0,1,2.027-2.46,2.891,2.891,0,0,1,3.063.924,2.855,2.855,0,0,1-.864,4.343,2.892,2.892,0,0,1-3.584-.709,2.856,2.856,0,0,1-.642-2.1Z" transform="translate(13.334 9.105)" fill="#fff"/>
      <path id="Tracé_648" data-name="Tracé 648" d="M.862,42.013l.518-.1C24.347,37.3,32.639,24.919,34.355,21.857a.818.818,0,0,0,.092-.159,1.516,1.516,0,0,0,.107-1.092l.016-.167L33.25,16.484l.012-.121a1.624,1.624,0,0,0-1.434-1.074L25.852,14.7a1.538,1.538,0,0,0-1.109.32l-.219.193-3.386,3.143-.152.138a1.641,1.641,0,0,0-.493.947l-.012.121-.106,2.653C19.061,29.514,7.658,36.571.717,40.193l-.358.195a.851.851,0,0,0-.3.582.884.884,0,0,0,.451.939.894.894,0,0,0,.355.1Z" transform="translate(0 13.008)" fill="#fff"/>
    </g>
  </g>
</svg>
