<svg xmlns="http://www.w3.org/2000/svg" width="534" height="534" viewBox="0 0 534 534">
  <g id="how_3" transform="translate(-1137 -1677)">
    <circle id="Ellipse_215" data-name="Ellipse 215" cx="267" cy="267" r="267" transform="translate(1137 1677)" fill="#f18901"/>
    <g id="Groupe_75" data-name="Groupe 75" transform="matrix(0.985, -0.174, 0.174, 0.985, -264.337, 230.374)">
      <g id="Rectangle_249" data-name="Rectangle 249" transform="translate(1226.816 1774.553)" fill="#fff" stroke="#1d1d1d" stroke-width="5">
        <rect width="145.264" height="270.467" rx="23" stroke="none"/>
        <rect x="2.5" y="2.5" width="140.264" height="265.467" rx="20.5" fill="none"/>
      </g>
      <rect id="Rectangle_250" data-name="Rectangle 250" width="26.158" height="64.273" rx="13.079" transform="translate(1245.638 1795.813)" fill="#1d1d1d"/>
      <circle id="Ellipse_216" data-name="Ellipse 216" cx="37.368" cy="37.368" r="37.368" transform="translate(1262.08 1932.581)" fill="#1d1d1d"/>
      <g id="logo" transform="translate(1282.53 1955.021)">
        <g id="I" transform="translate(0 0)">
          <g id="XMLID_49_" transform="translate(16.947 0)">
            <path id="XMLID_54_" d="M332.8,408.72a5.326,5.326,0,0,1-1.44,3.646,4.765,4.765,0,0,1-.861.735,5.435,5.435,0,0,1-1.815.814,5.345,5.345,0,0,1-1.236.141,5.273,5.273,0,0,1-3.051-.954c-.031-.031-.078-.047-.11-.078a5.179,5.179,0,0,1-.688-.61c0-.031.016-.047.016-.078a.141.141,0,0,0-.078.016,5.576,5.576,0,0,1-.642-.829,5.362,5.362,0,0,1-.8-2.8,3.818,3.818,0,0,1,.016-.422,6.083,6.083,0,0,1,.2-1.111,5.031,5.031,0,0,1,.344-.845,5.358,5.358,0,0,1,10.14,2.378Z" transform="translate(-322.1 -403.4)" fill="#fff"/>
            <path id="XMLID_53_" d="M331.478,460.6c0,.031-.016.047-.016.078l-.063-.063A.17.17,0,0,1,331.478,460.6Z" transform="translate(-329.945 -451.65)" fill="#fff"/>
          </g>
          <g id="XMLID_56_" transform="translate(6.244 4.694)">
            <path id="XMLID_58_" d="M261.884,437.515a4.089,4.089,0,0,1-1.111,2.8,4.58,4.58,0,0,1-.657.579,4.145,4.145,0,0,1-1.393.626,4.078,4.078,0,0,1-1.878,0,4.01,4.01,0,0,1-1.393-.626.274.274,0,0,1-.078-.063,3.809,3.809,0,0,1-.532-.469.118.118,0,0,1,.016-.063.118.118,0,0,0-.063.016,3.836,3.836,0,0,1-.485-.642,4.043,4.043,0,0,1-.61-2.159,2.314,2.314,0,0,1,.016-.329,5.218,5.218,0,0,1,.156-.861,3.4,3.4,0,0,1,.266-.657,4.086,4.086,0,0,1,7.746,1.846Z" transform="translate(-253.7 -433.4)" fill="#fff"/>
            <path id="XMLID_57_" d="M260.563,477.5a.118.118,0,0,1-.016.063l-.047-.047C260.531,477.516,260.547,477.5,260.563,477.5Z" transform="translate(-259.436 -470.599)" fill="#fff"/>
          </g>
          <path id="XMLID_43_" d="M232.548,499.272a9.308,9.308,0,0,0-.72,3.568v3.787a42.541,42.541,0,0,0-9.029,4.256h0V505.39a8.459,8.459,0,0,1,6.071-8.09A6.88,6.88,0,0,0,232.548,499.272Z" transform="translate(-221.391 -482.607)" fill="#fff"/>
          <g id="XMLID_31_" transform="translate(12.065 11.047)">
            <path id="XMLID_39_" d="M311.383,492.8v.829c-.063,0-.125-.016-.172-.016a.2.2,0,0,1-.094-.016h-.078A51.629,51.629,0,0,0,290.9,496.04V492.8a7.616,7.616,0,0,1,.829-3.458,8.388,8.388,0,0,1,.532-.892,7.881,7.881,0,0,1,.939-1.1c.156-.156.329-.3.5-.438a7.51,7.51,0,0,1,1.58-1,7.06,7.06,0,0,1,1.361-.485.2.2,0,0,1,.094-.016,4.313,4.313,0,0,0,.61.438,6.964,6.964,0,0,0,8.215-.454A7.634,7.634,0,0,1,311.383,492.8Z" transform="translate(-290.9 -483.616)" fill="#fff"/>
            <path id="XMLID_37_" d="M331.5,474.016c.016.016.031.047.063.063,0-.031.016-.047.016-.078A.17.17,0,0,1,331.5,474.016Z" transform="translate(-325.147 -474)" fill="#fff"/>
          </g>
          <path id="XMLID_26_" d="M213.794,553.646c-.156.031,17.385-10.547,34.44-7.542l-2.879,3.38A60.556,60.556,0,0,0,213.794,553.646Z" transform="translate(-213.793 -523.321)" fill="#fff"/>
          <path id="XMLID_12_" d="M419.763,537.8h0Z" transform="translate(-387.481 -516.77)" fill="#fff"/>
          <path id="XMLID_59_" d="M257.9,492.68a20.468,20.468,0,0,1,6.682-1.08,8.61,8.61,0,0,0-2.676,3.536c-.767,2.128-2.394,1.393-2.394,1.393Z" transform="translate(-250.998 -477.799)" fill="#fff"/>
          <path id="XMLID_60_" d="M327.553,481.6a13.029,13.029,0,0,0-13.254,0l4.913,5.79Z" transform="translate(-298.573 -467.817)" fill="#fff"/>
        </g>
      </g>
      <circle id="Ellipse_217" data-name="Ellipse 217" cx="7.474" cy="7.474" r="7.474" transform="translate(1251.617 1801.792)" fill="#fff"/>
      <circle id="Ellipse_218" data-name="Ellipse 218" cx="7.474" cy="7.474" r="7.474" transform="translate(1251.617 1839.16)" fill="#fff"/>
      <circle id="Ellipse_219" data-name="Ellipse 219" cx="3.737" cy="3.737" r="3.737" transform="translate(1255.354 1824.213)" fill="#fff"/>
      <path id="Tracé_636" data-name="Tracé 636" d="M11132.576,508.121c-.28,9.028,9.2,29.7,30.435,31.271" transform="translate(-9866.327 1464.161)" fill="none" stroke="#fff" stroke-width="2" opacity="0.5"/>
    </g>
    <g id="Groupe_74" data-name="Groupe 74" transform="matrix(0.985, -0.174, 0.174, 0.985, -130.771, 332.728)">
      <g id="Rectangle_247" data-name="Rectangle 247" transform="translate(1215.816 1763.553)" fill="#fff" stroke="#1d1d1d" stroke-width="5">
        <rect width="153.178" height="285.203" rx="23" stroke="none"/>
        <rect x="2.5" y="2.5" width="148.178" height="280.203" rx="20.5" fill="none"/>
      </g>
      <path id="Rectangle_248" data-name="Rectangle 248" d="M0,0H82.424a0,0,0,0,1,0,0V3.13a10,10,0,0,1-10,10H10a10,10,0,0,1-10-10V0A0,0,0,0,1,0,0Z" transform="translate(1251.558 1763.553)" fill="#1d1d1d"/>
      <g id="logo-2" data-name="logo" transform="translate(1268.833 1840.051)">
        <g id="I-2" data-name="I">
          <g id="XMLID_49_2" data-name="XMLID_49_" transform="translate(23.512 0)">
            <path id="XMLID_54_2" data-name="XMLID_54_" d="M336.949,410.781a7.39,7.39,0,0,1-2,5.058,6.608,6.608,0,0,1-1.194,1.02,7.54,7.54,0,0,1-2.518,1.129,7.414,7.414,0,0,1-1.715.2,7.316,7.316,0,0,1-4.233-1.324c-.043-.043-.109-.065-.152-.109a7.19,7.19,0,0,1-.955-.847c0-.043.022-.065.022-.109a.2.2,0,0,0-.109.022,7.738,7.738,0,0,1-.89-1.151,7.439,7.439,0,0,1-1.107-3.886,5.292,5.292,0,0,1,.022-.586,8.44,8.44,0,0,1,.282-1.541,6.98,6.98,0,0,1,.478-1.172,7.433,7.433,0,0,1,14.067,3.3Z" transform="translate(-322.1 -403.4)" fill="#1d1d1d"/>
            <path id="XMLID_53_2" data-name="XMLID_53_" d="M331.508,460.6c0,.043-.022.065-.022.109l-.087-.087A.236.236,0,0,1,331.508,460.6Z" transform="translate(-329.381 -448.183)" fill="#1d1d1d"/>
          </g>
          <g id="XMLID_56_2" data-name="XMLID_56_" transform="translate(8.663 6.513)">
            <path id="XMLID_58_2" data-name="XMLID_58_" d="M265.054,439.109A5.673,5.673,0,0,1,263.512,443a6.355,6.355,0,0,1-.912.8,5.751,5.751,0,0,1-1.932.868,5.658,5.658,0,0,1-2.605,0,5.566,5.566,0,0,1-1.932-.868.38.38,0,0,1-.109-.087,5.282,5.282,0,0,1-.738-.651.164.164,0,0,1,.022-.087.164.164,0,0,0-.087.022,5.327,5.327,0,0,1-.673-.89,5.61,5.61,0,0,1-.847-3,3.208,3.208,0,0,1,.022-.456,7.239,7.239,0,0,1,.217-1.194,4.72,4.72,0,0,1,.369-.912,5.669,5.669,0,0,1,10.746,2.562Z" transform="translate(-253.7 -433.4)" fill="#1d1d1d"/>
            <path id="XMLID_57_2" data-name="XMLID_57_" d="M260.587,477.5a.164.164,0,0,1-.022.087l-.065-.065C260.543,477.522,260.565,477.5,260.587,477.5Z" transform="translate(-259.024 -467.927)" fill="#1d1d1d"/>
          </g>
          <path id="XMLID_43_2" data-name="XMLID_43_" d="M236.324,500.035a12.914,12.914,0,0,0-1,4.95v5.253a59.012,59.012,0,0,0-12.526,5.9h0v-7.62a11.735,11.735,0,0,1,8.423-11.223A9.545,9.545,0,0,0,236.324,500.035Z" transform="translate(-220.845 -476.916)" fill="#1d1d1d"/>
          <g id="XMLID_31_2" data-name="XMLID_31_" transform="translate(16.739 15.326)">
            <path id="XMLID_39_2" data-name="XMLID_39_" d="M319.317,495.668v1.151c-.087,0-.174-.022-.239-.022a.275.275,0,0,1-.13-.022h-.109c-10.246-1.02-20.232.977-27.939,3.387v-4.494a10.566,10.566,0,0,1,1.151-4.8,11.633,11.633,0,0,1,.738-1.237,10.931,10.931,0,0,1,1.3-1.52c.217-.217.456-.412.695-.608a10.419,10.419,0,0,1,2.193-1.389,9.794,9.794,0,0,1,1.889-.673.275.275,0,0,1,.13-.022,5.988,5.988,0,0,0,.847.608,9.661,9.661,0,0,0,11.4-.63A10.591,10.591,0,0,1,319.317,495.668Z" transform="translate(-290.9 -482.925)" fill="#1d1d1d"/>
            <path id="XMLID_37_2" data-name="XMLID_37_" d="M331.5,474.022c.022.022.043.065.087.087,0-.043.022-.065.022-.109A.236.236,0,0,1,331.5,474.022Z" transform="translate(-322.686 -474)" fill="#1d1d1d"/>
          </g>
          <path id="XMLID_26_2" data-name="XMLID_26_" d="M213.795,556.776c-.217.043,24.118-14.632,47.781-10.464L257.581,551C257.581,551.023,237.262,547.072,213.795,556.776Z" transform="translate(-213.793 -514.704)" fill="#1d1d1d"/>
          <path id="XMLID_12_2" data-name="XMLID_12_" d="M419.787,537.8h0Z" transform="translate(-375 -508.624)" fill="#1d1d1d"/>
          <path id="XMLID_59_2" data-name="XMLID_59_" d="M257.9,493.1a28.4,28.4,0,0,1,9.27-1.5,11.945,11.945,0,0,0-3.712,4.906c-1.064,2.952-3.321,1.932-3.321,1.932Z" transform="translate(-248.325 -472.453)" fill="#1d1d1d"/>
          <path id="XMLID_60_2" data-name="XMLID_60_" d="M332.687,482.314a18.076,18.076,0,0,0-18.387,0l6.816,8.032Z" transform="translate(-292.481 -463.188)" fill="#1d1d1d"/>
        </g>
      </g>
      <text id="Share_Data" data-name="Share Data" transform="translate(1247.484 1910.727)" fill="#1d1d1d" font-size="15" font-family="Poppins-Bold, Poppins" font-weight="700"><tspan x="0" y="0">Share Data</tspan></text>
    </g>
  </g>
</svg>
