<svg id="instagram_icon" xmlns="http://www.w3.org/2000/svg" width="67.248" height="67.248" viewBox="0 0 67.248 67.248">
  <path id="Tracé_344" data-name="Tracé 344" d="M32.754,16.7A17.354,17.354,0,1,0,50.109,34.054,17.388,17.388,0,0,0,32.754,16.7Zm0,28.472A11.118,11.118,0,1,1,43.872,34.054,11.168,11.168,0,0,1,32.754,45.172Z" transform="translate(0.87 -0.566)"    />
  <ellipse id="Ellipse_80" data-name="Ellipse 80" cx="3.932" cy="3.932" rx="3.932" ry="3.932" transform="translate(47.724 11.796)"    />
  <path id="Tracé_345" data-name="Tracé 345" d="M65.225,10.359C61.7,6.7,56.683,4.8,50.989,4.8H23.059C11.264,4.8,3.4,12.664,3.4,24.459V52.253c0,5.83,1.9,10.846,5.694,14.507a19.786,19.786,0,0,0,14.1,5.288H50.853c5.83,0,10.711-1.9,14.236-5.288,3.661-3.525,5.559-8.542,5.559-14.372V24.459A19.436,19.436,0,0,0,65.225,10.359Zm-.542,42.03a13.248,13.248,0,0,1-3.932,9.9,14.014,14.014,0,0,1-9.9,3.525H23.195a14.014,14.014,0,0,1-9.9-3.525c-2.44-2.44-3.661-5.83-3.661-10.033V24.459c0-4.067,1.22-7.457,3.661-9.9,2.3-2.3,5.83-3.525,9.9-3.525h27.93c4.067,0,7.457,1.22,9.9,3.661a13.991,13.991,0,0,1,3.661,9.762v27.93Z" transform="translate(-3.4 -4.8)"    />
</svg>
