<svg xmlns="http://www.w3.org/2000/svg" xmlns:xlink="http://www.w3.org/1999/xlink" width="375.609" height="96.013" viewBox="0 0 375.609 96.013">
  <defs>
    <clipPath id="clip-path">
      <rect id="Rectangle_252" data-name="Rectangle 252" width="274.201" height="51.141" fill="#fff"/>
    </clipPath>
  </defs>
  <g id="Logo" transform="translate(-0.041 -1.815)">
    <g id="Groupe_77" data-name="Groupe 77" transform="translate(101.449 24.249)" clip-path="url(#clip-path)">
      <path id="Tracé_637" data-name="Tracé 637" d="M33.8,57.69A20.493,20.493,0,0,1,28,54.426L31.627,47.9a23.023,23.023,0,0,0,4.352,2.539,17.072,17.072,0,0,0,5.8,1.451,9.229,9.229,0,0,0,5.8-1.813q2.176-1.088,2.176-4.352a7.311,7.311,0,0,0-1.088-3.99,9.777,9.777,0,0,0-2.9-2.539,49.673,49.673,0,0,0-5.078-2.9,18.629,18.629,0,0,1-5.078-2.9c-4.715-2.9-6.891-6.891-6.891-11.969q0-6.529,4.352-9.793A17.818,17.818,0,0,1,43.959,8a19.022,19.022,0,0,1,11.969,3.99L52.3,18.156a8.794,8.794,0,0,0-3.627-2.176A12.8,12.8,0,0,0,43.6,14.891a8.741,8.741,0,0,0-5.44,1.451c-1.451,1.088-1.813,2.539-1.813,4.352a6.127,6.127,0,0,0,1.088,3.627,11.039,11.039,0,0,0,2.9,2.9,49.676,49.676,0,0,0,5.078,2.9c2.176,1.088,3.627,2.176,4.715,2.539s2.176,1.814,3.264,2.9a9.9,9.9,0,0,1,3.264,4.352,12.112,12.112,0,0,1,1.088,5.44,13.409,13.409,0,0,1-2.176,7.617,12.46,12.46,0,0,1-5.8,4.715,20.159,20.159,0,0,1-8.342,1.451A20.149,20.149,0,0,1,33.8,57.69Z" transform="translate(-28 -8)" fill="#fff"/>
      <path id="Tracé_638" data-name="Tracé 638" d="M38.4,8.2h7.617V28.511h17.41V8.2h7.617V57.89H63.426V35.04H46.017V58.253H38.4Z" transform="translate(-0.679 -7.475)" fill="#fff"/>
      <path id="Tracé_639" data-name="Tracé 639" d="M75.064,57.89,64.908,39.03H57.654V57.89H50.4V8.2H61.644c5.8,0,10.518,1.088,14.145,3.627s5.441,6.166,5.441,11.607a17.231,17.231,0,0,1-2.176,8.7,12.988,12.988,0,0,1-6.891,5.44L84.131,57.89ZM62.369,33.226c4.352,0,7.617-1.088,9.067-2.9a9.574,9.574,0,0,0,2.539-6.891q0-8.7-11.969-8.7H57.291v18.5Z" transform="translate(30.845 -7.475)" fill="#fff"/>
      <path id="Tracé_640" data-name="Tracé 640" d="M62,8.2h7.617V57.89H62Z" transform="translate(61.318 -7.475)" fill="#fff"/>
      <path id="Tracé_641" data-name="Tracé 641" d="M90.926,14.729H69.164V8.2H102.9L78.232,51.361h23.575V57.89H65.9Z" transform="translate(71.563 -7.475)" fill="#fff"/>
      <path id="Tracé_642" data-name="Tracé 642" d="M101.726,14.729H79.964V8.2H113.7L89.032,51.361h23.575V57.89H76.7Z" transform="translate(99.935 -7.475)" fill="#fff"/>
      <path id="Tracé_643" data-name="Tracé 643" d="M89.163,8.2h7.617V51.361h14.145v6.891H88.8V8.2Z" transform="translate(131.721 -7.475)" fill="#fff"/>
      <path id="Tracé_644" data-name="Tracé 644" d="M96.9,8.2h21.762v6.529H104.517V28.511h11.606V35.4H104.517V51.361H121.2V57.89H97.263V8.2Z" transform="translate(153 -7.475)" fill="#fff"/>
    </g>
    <path id="Tracé_645" data-name="Tracé 645" d="M16.026,21.932A5.166,5.166,0,0,1,12.474,26.5a5.218,5.218,0,0,1-5.592-1.565,5.153,5.153,0,0,1,1.484-7.891,5.218,5.218,0,0,1,6.434,1.2,5.156,5.156,0,0,1,1.226,3.685Z" transform="translate(14.721 38.373)" fill="#fff"/>
    <path id="Tracé_646" data-name="Tracé 646" d="M65.328,1.815,64.421,2C22.948,10.315,8.012,32.663,4.888,38.186l-.029.3a2.353,2.353,0,0,0-.317.963,2.735,2.735,0,0,0,.121,1.034l-.027.274L6.88,47.91l-.021.219a2.958,2.958,0,0,0,2.587,1.938l10.783,1.056a3.025,3.025,0,0,0,2-.55l.4-.375,6.11-5.672.244-.225a3.014,3.014,0,0,0,.892-1.736l.021-.219.221-4.812c2.342-13.14,22.922-25.9,35.448-32.438l.653-.433a1.562,1.562,0,0,0,.55-1.079A1.645,1.645,0,0,0,66.4,2.414a1.662,1.662,0,0,0-1.074-.6Z" transform="translate(11.805 0)" fill="#fff"/>
    <path id="Tracé_647" data-name="Tracé 647" d="M13.268,15.492a5.169,5.169,0,0,1,3.658-4.439,5.217,5.217,0,0,1,5.527,1.667,5.153,5.153,0,0,1-1.559,7.837,5.218,5.218,0,0,1-6.467-1.279,5.154,5.154,0,0,1-1.159-3.785Z" transform="translate(34.684 23.683)" fill="#fff"/>
    <path id="Tracé_648" data-name="Tracé 648" d="M1.522,63.991l.935-.185C43.9,55.49,58.865,33.145,61.962,27.62a1.476,1.476,0,0,0,.167-.287,2.735,2.735,0,0,0,.193-1.97l.029-.3-2.384-7.139.021-.219A2.931,2.931,0,0,0,57.4,15.765L46.618,14.71a2.774,2.774,0,0,0-2,.577l-.395.348-6.11,5.672-.274.249a2.962,2.962,0,0,0-.889,1.709l-.021.219-.191,4.788C34.364,41.435,13.787,54.171,1.26,60.706l-.645.351a1.535,1.535,0,0,0-.547,1.051A1.6,1.6,0,0,0,.881,63.8a1.614,1.614,0,0,0,.641.188Z" transform="translate(0 33.836)" fill="#fff"/>
  </g>
</svg>
