<svg xmlns="http://www.w3.org/2000/svg" width="250.729" height="90.485" viewBox="0 0 250.729 90.485">
  <g id="Logo" transform="translate(-844.593 -88.618)">
    <g id="I" transform="translate(844.593 88.618)">
      <g id="XMLID_49_" transform="translate(50.568 0)">
        <path id="XMLID_54_" d="M354.036,419.274a15.893,15.893,0,0,1-4.3,10.879,14.219,14.219,0,0,1-2.568,2.194,16.218,16.218,0,0,1-5.416,2.428,15.949,15.949,0,0,1-3.688.42,15.734,15.734,0,0,1-9.1-2.848c-.093-.093-.233-.14-.327-.233a15.453,15.453,0,0,1-2.054-1.821c0-.093.047-.14.047-.233a.421.421,0,0,0-.233.047,16.636,16.636,0,0,1-1.914-2.475,16,16,0,0,1-2.381-8.357,11.369,11.369,0,0,1,.047-1.261,18.15,18.15,0,0,1,.607-3.315,15.006,15.006,0,0,1,1.027-2.521,15.986,15.986,0,0,1,30.255,7.1Z" transform="translate(-322.1 -403.4)" fill="#fff"/>
        <path id="XMLID_53_" d="M331.633,460.6c0,.093-.047.14-.047.233l-.187-.187A.508.508,0,0,1,331.633,460.6Z" transform="translate(-327.058 -433.893)" fill="#fff"/>
      </g>
      <g id="XMLID_56_" transform="translate(18.632 14.007)">
        <path id="XMLID_58_" d="M278.119,445.679a12.2,12.2,0,0,1-3.315,8.357,13.673,13.673,0,0,1-1.961,1.728,12.369,12.369,0,0,1-4.155,1.868,12.169,12.169,0,0,1-5.6,0,11.97,11.97,0,0,1-4.155-1.868.819.819,0,0,1-.233-.187,11.36,11.36,0,0,1-1.587-1.4.353.353,0,0,1,.047-.187.353.353,0,0,0-.187.047,11.453,11.453,0,0,1-1.447-1.914,12.065,12.065,0,0,1-1.821-6.443,6.89,6.89,0,0,1,.047-.98,15.558,15.558,0,0,1,.467-2.568,10.152,10.152,0,0,1,.794-1.961,12.192,12.192,0,0,1,23.111,5.509Z" transform="translate(-253.7 -433.4)" fill="#fff"/>
        <path id="XMLID_57_" d="M260.687,477.5a.353.353,0,0,1-.047.187l-.14-.14C260.593,477.547,260.64,477.5,260.687,477.5Z" transform="translate(-257.325 -456.91)" fill="#fff"/>
      </g>
      <path id="XMLID_43_" d="M251.888,503.183a27.774,27.774,0,0,0-2.148,10.645v11.3a126.94,126.94,0,0,0-26.94,12.7h0V521.439A25.239,25.239,0,0,1,240.916,497.3,20.529,20.529,0,0,0,251.888,503.183Z" transform="translate(-218.595 -453.458)" fill="#fff"/>
      <g id="XMLID_31_" transform="translate(36.001 32.963)">
        <path id="XMLID_39_" d="M352.017,507.484v2.475c-.187,0-.374-.047-.514-.047a.591.591,0,0,1-.28-.047h-.234c-22.038-2.194-43.515,2.1-60.09,7.284v-9.665a22.726,22.726,0,0,1,2.475-10.318,25.039,25.039,0,0,1,1.587-2.661,23.508,23.508,0,0,1,2.8-3.268c.467-.467.98-.887,1.494-1.307a22.411,22.411,0,0,1,4.716-2.988,21.058,21.058,0,0,1,4.062-1.447.592.592,0,0,1,.28-.047,12.877,12.877,0,0,0,1.821,1.307,20.779,20.779,0,0,0,24.512-1.354A22.779,22.779,0,0,1,352.017,507.484Z" transform="translate(-290.9 -480.077)" fill="#fff"/>
        <path id="XMLID_37_" d="M331.5,474.047c.047.047.093.14.187.187,0-.093.047-.14.047-.233A.507.507,0,0,1,331.5,474.047Z" transform="translate(-312.544 -474)" fill="#fff"/>
      </g>
      <path id="XMLID_26_" d="M213.8,569.674c-.467.093,51.872-31.469,102.764-22.5l-8.591,10.085C307.97,557.3,264.268,548.8,213.8,569.674Z" transform="translate(-213.793 -479.189)" fill="#fff"/>
      <path id="XMLID_12_" d="M419.887,537.8h0Z" transform="translate(-323.563 -475.049)" fill="#fff"/>
      <path id="XMLID_59_" d="M257.9,494.822s7.8-3.081,19.937-3.222c0,0-5.7,4.2-7.984,10.552s-7.143,4.155-7.143,4.155Z" transform="translate(-237.307 -450.419)" fill="#fff"/>
      <path id="XMLID_60_" d="M353.846,485.245s-18.863-12.326-39.546,0l14.661,17.275Z" transform="translate(-267.374 -444.111)" fill="#fff"/>
    </g>
    <g id="Groupe_14" data-name="Groupe 14" transform="translate(966.41 117.099)">
      <path id="XMLID_75_" d="M517.747,451.3h7.564v32.823H517.7V451.3Z" transform="translate(-517.7 -451.3)" fill="#fff"/>
      <path id="XMLID_77_" d="M545.8,507.482a4.529,4.529,0,0,1,9.058,0,4.529,4.529,0,1,1-9.058,0Z" transform="translate(-532.68 -478.861)" fill="#fff"/>
      <path id="XMLID_79_" d="M606.928,484.223l-.047-19.7-9.665,16.248h-3.408L584.19,464.94v19.283H577V451.4h6.3l12.279,20.4,12.093-20.4h6.257l.093,32.823Z" transform="translate(-549.313 -451.353)" fill="#fff"/>
      <path id="XMLID_81_" d="M693.746,478.107v6.116H668.3V451.4h24.839v6.116H675.864v7.143h15.267v5.93H675.864v7.61h17.882Z" transform="translate(-597.985 -451.353)" fill="#fff"/>
      <path id="XMLID_83_" d="M743.005,457.51H732.5V451.3h28.621v6.21H750.616v26.66h-7.61Z" transform="translate(-632.21 -451.3)" fill="#fff"/>
    </g>
  </g>
</svg>
