<svg xmlns="http://www.w3.org/2000/svg" width="78.535" height="96.013" viewBox="0 0 78.535 96.013">
  <g id="Logo_icon" transform="translate(-0.041 -1.814)">
    <path id="Tracé_645" data-name="Tracé 645" d="M16.026,21.932A5.166,5.166,0,0,1,12.474,26.5a5.218,5.218,0,0,1-5.592-1.565,5.153,5.153,0,0,1,1.484-7.891,5.218,5.218,0,0,1,6.434,1.2,5.156,5.156,0,0,1,1.226,3.685Z" transform="translate(14.721 38.373)" fill="#ec910a"/>
    <path id="Tracé_646" data-name="Tracé 646" d="M65.328,1.815,64.421,2C22.948,10.315,8.012,32.663,4.888,38.186l-.029.3a2.353,2.353,0,0,0-.317.963,2.735,2.735,0,0,0,.121,1.034l-.027.274L6.88,47.91l-.021.219a2.958,2.958,0,0,0,2.587,1.938l10.783,1.056a3.025,3.025,0,0,0,2-.55l.4-.375,6.11-5.672.244-.225a3.014,3.014,0,0,0,.892-1.736l.021-.219.221-4.812c2.342-13.14,22.922-25.9,35.448-32.438l.653-.433a1.562,1.562,0,0,0,.55-1.079A1.645,1.645,0,0,0,66.4,2.414a1.662,1.662,0,0,0-1.074-.6Z" transform="translate(11.805 0)" fill="#ec910a"/>
    <path id="Tracé_647" data-name="Tracé 647" d="M13.268,15.492a5.169,5.169,0,0,1,3.658-4.439,5.217,5.217,0,0,1,5.527,1.667,5.153,5.153,0,0,1-1.559,7.837,5.218,5.218,0,0,1-6.467-1.279,5.154,5.154,0,0,1-1.159-3.785Z" transform="translate(34.684 23.683)" fill="#ec910a"/>
    <path id="Tracé_648" data-name="Tracé 648" d="M1.522,63.991l.935-.185C43.9,55.49,58.865,33.145,61.962,27.62a1.476,1.476,0,0,0,.167-.287,2.735,2.735,0,0,0,.193-1.97l.029-.3-2.384-7.139.021-.219A2.931,2.931,0,0,0,57.4,15.765L46.618,14.71a2.774,2.774,0,0,0-2,.577l-.395.348-6.11,5.672-.274.249a2.962,2.962,0,0,0-.889,1.709l-.021.219-.191,4.788C34.364,41.435,13.787,54.171,1.26,60.706l-.645.351a1.535,1.535,0,0,0-.547,1.051A1.6,1.6,0,0,0,.881,63.8a1.614,1.614,0,0,0,.641.188Z" transform="translate(0 33.836)" fill="#ec910a"/>
  </g>
</svg>
