<svg id="phone_icon" xmlns="http://www.w3.org/2000/svg"  viewBox="0 0 67.771 67.771">
  <path id="Tracé_17" data-name="Tracé 17" d="M0,0H67.771V67.771H0Z" fill="none"/>
  <path id="Tracé_18" data-name="Tracé 18" d="M16.236,28.011A42.526,42.526,0,0,0,34.845,46.606l6.212-6.226a2.833,2.833,0,0,1,2.866-.692A32.145,32.145,0,0,0,54,41.3a2.814,2.814,0,0,1,2.824,2.824V54A2.814,2.814,0,0,1,54,56.828a48,48,0,0,1-48-48A2.823,2.823,0,0,1,8.824,6h9.883a2.814,2.814,0,0,1,2.824,2.824A32.145,32.145,0,0,0,23.14,18.9a2.833,2.833,0,0,1-.692,2.866Z" transform="translate(2.471 2.471)" />
</svg>
