<svg id="snapshat_icon" xmlns="http://www.w3.org/2000/svg" width="75.644" height="75.644" viewBox="0 0 75.644 75.644">
  <path id="Tracé_340" data-name="Tracé 340" d="M0,0H75.644V75.644H0Z" fill="none"/>
  <path id="Tracé_341" data-name="Tracé 341" d="M33.111,62.141c-3.751,0-6.253-1.768-8.488-3.328a12.228,12.228,0,0,0-4.832-2.49,14.4,14.4,0,0,0-2.531-.208,17,17,0,0,0-3.511.394,8.712,8.712,0,0,1-1.336.183.941.941,0,0,1-1.009-.719c-.158-.5-.255-.983-.353-1.447-.252-1.166-.463-1.882-.9-1.954-4.693-.715-7.5-1.8-8.05-3.076A1.525,1.525,0,0,1,2,49.1a.749.749,0,0,1,.646-.788,16.62,16.62,0,0,0,9.89-5.856,20.792,20.792,0,0,0,3.36-5.241.029.029,0,0,1,.028-.032,3.4,3.4,0,0,0,.321-2.821c-.6-1.45-2.6-2.068-3.962-2.49-.35-.095-.646-.208-.9-.293-1.166-.463-3.108-1.45-2.852-2.811a2.629,2.629,0,0,1,2.556-1.686,1.56,1.56,0,0,1,.756.158,7.956,7.956,0,0,0,3.205.826,2.586,2.586,0,0,0,1.841-.574q-.044-.935-.11-1.869c-.284-4.3-.605-9.641.756-12.7a16.557,16.557,0,0,1,15.346-9.9L34.009,3h.158A16.522,16.522,0,0,1,49.51,12.894c1.377,3.06,1.04,8.415.756,12.7l-.025.211c-.032.574-.072,1.122-.1,1.686a2.577,2.577,0,0,0,1.686.545,8.006,8.006,0,0,0,3.007-.829A2.534,2.534,0,0,1,55.817,27a3.6,3.6,0,0,1,1.125.208h.028c.942.353,1.56,1.012,1.56,1.7.028.646-.479,1.629-2.881,2.6a7.01,7.01,0,0,1-.9.293c-1.336.41-3.331,1.056-3.965,2.49a3.325,3.325,0,0,0,.325,2.821.029.029,0,0,0,.028.032c.154.391,4.214,9.61,13.25,11.113a.775.775,0,0,1,.646.788.841.841,0,0,1-.1.407c-.548,1.292-3.331,2.345-8.053,3.076-.435.069-.646.788-.9,1.954q-.151.729-.353,1.447a.9.9,0,0,1-.939.715h-.073a7.062,7.062,0,0,1-1.333-.154,16.657,16.657,0,0,0-3.514-.366,15.662,15.662,0,0,0-2.528.211,12.179,12.179,0,0,0-4.835,2.49c-2.26,1.544-4.775,3.313-8.5,3.313h-.8Z" transform="translate(4.304 6.455)"   />
</svg>
