<svg xmlns="http://www.w3.org/2000/svg" width="459.722" height="290.145" viewBox="0 0 459.722 290.145">
  <g id="struggle_5" data-name="struggle 5" transform="translate(0 -49.894)">
    <path id="Tracé_579" data-name="Tracé 579" d="M140.265,481.308h7.1l3.376-27.375H140.264Z" transform="translate(-46.097 -149.182)" fill="#9e616a"/>
    <path id="Tracé_580" data-name="Tracé 580" d="M395.188,686.458h2l7.8-3.172,4.18,3.171h0a8.908,8.908,0,0,1,8.907,8.906v.29H395.188Z" transform="translate(-302.83 -356.649)" fill="#2f2e41"/>
    <path id="Tracé_581" data-name="Tracé 581" d="M189.378,481.308h7.1l3.376-27.375H189.377Z" transform="translate(-62.237 -149.182)" fill="#9e616a"/>
    <path id="Tracé_582" data-name="Tracé 582" d="M444.3,686.458h2l7.8-3.172,4.18,3.171h0a8.908,8.908,0,0,1,8.907,8.907v.29H444.3Z" transform="translate(-318.97 -356.649)" fill="#2f2e41"/>
    <path id="Tracé_583" data-name="Tracé 583" d="M428.151,468.318l-55.762,1.455.97,27.154s-.97,7.273.97,9.213,2.909,1.94,1.94,5.334,4.154,8.938,3.532,9.56a25.086,25.086,0,0,0-2.077,4.017l4.849,27.639s3.394,48,4.364,48.974,1.94,0,.97,2.424-1.94,1.455-.97,2.424a35.714,35.714,0,0,1,2.424,2.909h11.723s.884-4.849.884-5.334.97-3.394.97-3.879-.857-1.342-.857-1.342a15.953,15.953,0,0,1-.6-3.022c0-.97-2.909-38.306-2.909-38.306l5.819-48.489,14.062,47.519s0,41.7.97,42.67.97.485.485,2.424-2.424,1.455-.97,2.909,1.94-.97,1.455,1.455l-.485,2.424,14.547.208s1.94-4.087.97-5.542-.912-1.058.272-3.438,1.668-2.865,1.183-3.35-.485-3.064-.485-3.064L433.97,546.87s-.485-48.974-.485-50.428a4.836,4.836,0,0,1,.4-2.181v-1.975l-1.857-7Z" transform="translate(-295.337 -286.001)" fill="#2f2e41"/>
    <path id="Tracé_584" data-name="Tracé 584" d="M533.136,307.21a5.415,5.415,0,0,1-7.794,2.861L501.136,330.35l-1.315-9.912L523.5,302.315a5.444,5.444,0,0,1,9.64,4.9Z" transform="translate(-337.216 -230.648)" fill="#9e616a"/>
    <circle id="Ellipse_130" data-name="Ellipse 130" cx="15.031" cy="15.031" r="15.031" transform="translate(74.157 54.868)" fill="#9e616a"/>
    <path id="Tracé_585" data-name="Tracé 585" d="M394.065,276.117c-1.4-3.335-7.4-5.316-16.887-5.018s-11.152,11.615-11.152,11.615c-5.227,4.872,3.212,20.083,4.676,17.986s3.922-.115,3.922-.115l-2.343-13.177c2.474.952,5.134,1.591,7.461.482l-3.855-2.062,9.586,1.193-3.953-3.041.288-.1a14.048,14.048,0,0,0,5.008,1.137,5.475,5.475,0,0,0,5-2.789,4.121,4.121,0,0,0,.358-1.6c2.779.9,4.238,4.158,4.238,4.158A51.291,51.291,0,0,0,394.065,276.117Z" transform="translate(-292.691 -221.177)" fill="#2f2e41"/>
    <path id="Tracé_586" data-name="Tracé 586" d="M390.557,322.583c-3.357,0-5.519.463-10.742,1.343-9.641,1.625-3.867,10.785-3.867,10.785s.436-.222-.745,0-5.21,3.706-5.21,3.706l-7.2,6.4c-10.856,8.52-8.426,21.812-8.426,21.812l15.831,15.931-6.935,31.963s2.947,4.746,1.423,6.875,13.427,1.517,13.427,1.517c10.319,4.6,46.673.712,46.673.712-.5-1.316-5.371-11.514-5.371-11.514,2.115-3.652.1-8.929.1-8.929s-2.1-24.961-3.444-28.412,3.437-22.148,6.579-21.947,23.437-10.151,23.437-10.151-.51-.812,6.19-3.552a32.836,32.836,0,0,0,10.4-6.559l2.753-5.5c-1.323.51-5.787-7.909-5.787-7.909l-1.947.742-1.128-.326s-8.8,2.5-10.6,4.33-2.4,1.316-4.028,1.725-1.826,1.551-2.336,1.423-1.417,1.417-2.128,1.215-2.236.611-3.249.812S426,332.328,426,332.328c-4.458-2.256-16.542-1.343-16.542-1.343s-3.954-2.33-5.075,0a3.82,3.82,0,0,1-3.444,2.236l-4.82-2.061C395.843,332.182,390.585,321.524,390.557,322.583Z" transform="translate(-289.337 -236.98)" fill="#ec910a"/>
    <path id="Tracé_587" data-name="Tracé 587" d="M371.357,493.432a5.415,5.415,0,0,1,1.208-8.214l-6.83-26.847,9.337,3.578,5.189,25.351a5.444,5.444,0,0,1-8.905,6.132Z" transform="translate(-293.15 -282.732)" fill="#9e616a"/>
    <path id="Tracé_588" data-name="Tracé 588" d="M354.574,382.261l-.843,10.721s-1.048,11.778-.774,13.956.786,15.478.786,15.478L362.63,440l10.07-2.685-.6-8.248.6,7.577,1.343-6.714-3.357-11.413,2.014-4.028-1.016-13.522Z" transform="translate(-288.936 -257.719)" fill="#ec910a"/>
    <path id="Tracé_589" data-name="Tracé 589" d="M709.789,329.656l3.325.712a19.143,19.143,0,0,1,.517-4.128,12.4,12.4,0,0,0,1.872,4.638l19.068,4.072,18.307-19.32c.028-9.66-5.336-17-14.954-17-.58,0-1.18.028-1.788.084A20.341,20.341,0,0,0,712.848,314.7C706.031,321.414,708.5,325.36,709.789,329.656Z" transform="translate(-405.724 -230.169)" fill="#2f2e41"/>
    <path id="Tracé_590" data-name="Tracé 590" d="M433.951,471.663h-6.916l-3.29-26.678h10.208Z" transform="translate(-139.26 -146.241)" fill="#ffb6b6"/>
    <path id="Tracé_591" data-name="Tracé 591" d="M689.44,692.62h-4.908l-.876-4.634-2.244,4.634H668.4a2.926,2.926,0,0,1-1.663-5.334l10.4-7.179v-4.685l10.934.653Z" transform="translate(-391.655 -354.064)" fill="#2f2e41"/>
    <path id="Tracé_592" data-name="Tracé 592" d="M548.855,462.15l-6.016,3.413-16.027-21.58,8.879-5.037Z" transform="translate(-173.133 -144.256)" fill="#ffb6b6"/>
    <path id="Tracé_593" data-name="Tracé 593" d="M819.828,678.291l-4.269,2.422-3.049-3.6.335,5.137-11.321,6.424a2.926,2.926,0,0,1-4.078-3.819l5.5-11.374-2.312-4.074,9.832-4.828Z" transform="translate(-434.932 -350.501)" fill="#2f2e41"/>
    <path id="Tracé_594" data-name="Tracé 594" d="M655.018,351.869a6.126,6.126,0,0,1,4.937,7.991l10.584,9.161-4,7.79-14.765-13.147a6.159,6.159,0,0,1,3.242-11.794Z" transform="translate(-385.894 -247.708)" fill="#ffb6b6"/>
    <path id="Tracé_595" data-name="Tracé 595" d="M668.647,384.92l-7.079-11.262,7.871-8.047,5.59,6.8,6.925,3.09,9.5,5.79c1.89-2.224,16.452-18.953,22.949-14.136a6.541,6.541,0,0,1,2.817,4.688c.459,4.478-3.555,9.034-3.707,9.2l-8.583,11.579c-.267.727-3.107,8.225-7.539,10.242a5.04,5.04,0,0,1-4.052.132c-11.744-4.578-19.656-9.742-23.187-15.09A13.571,13.571,0,0,1,668.647,384.92Z" transform="translate(-390.373 -252.247)" fill="#2f2e41"/>
    <path id="Tracé_596" data-name="Tracé 596" d="M702.758,429.384s-20.337,32.394-16.653,36.079,9.418,4.652,9.418,4.652l12.689-16.442Z" transform="translate(-398.291 -273.206)" fill="#2f2e41"/>
    <path id="Tracé_597" data-name="Tracé 597" d="M727.9,363.484l-9.585,6.484a24.724,24.724,0,0,0-9.633,28.206l2.7,8.2Z" transform="translate(-405.449 -251.548)" fill="#2f2e41"/>
    <path id="Tracé_598" data-name="Tracé 598" d="M477.683,279.918l1.282,4.463,4.373,53.823,21.846,40.714-10.427,7.447-29.79-38.727-11.782-38.454-18.5,85.125-13.9-.993,9.655-118.025,18.322-33.221Z" transform="translate(-138.285 -79.555)" fill="#2f2e41"/>
    <path id="Tracé_599" data-name="Tracé 599" d="M724.752,365.912l-13.341,10.9a18.169,18.169,0,0,0-6.031,9.287h0a18.171,18.171,0,0,0-.638,5.085l.4,23.674-12.231,32.689s33.16,12.527,37.582,1.474S724.752,365.912,724.752,365.912Z" transform="translate(-400.673 -252.346)" fill="#ec910a"/>
    <path id="Tracé_600" data-name="Tracé 600" d="M711.585,432.549l-2.211-8.843.54-22c.043-1.278,6.858-21.176,15.446-42.311L732.748,352l3.983-2.592,8.768,8.093s-1.115,22.153-.754,44.831c.1,6.274-1,13.6-1.474,19.159l4.029,17.9v9.963l-.262.053c-.262.053-4.3-.072-20.864-.072C712.448,449.34,721.585,439.608,711.585,432.549Z" transform="translate(-406.084 -246.924)" fill="#2f2e41"/>
    <path id="Tracé_601" data-name="Tracé 601" d="M494.34,194.141l2.015,12.57-13.634,5.624Z" transform="translate(-158.643 -63.803)" opacity="0.2"/>
    <circle id="Ellipse_131" data-name="Ellipse 131" cx="13.348" cy="13.348" r="13.348" transform="translate(308.616 73.435)" fill="#ffb6b6"/>
    <path id="Tracé_602" data-name="Tracé 602" d="M754.675,426.9h0a24.518,24.518,0,0,1-29.431,5.949l-2.905-1.438Z" transform="translate(-410.345 -272.388)" opacity="0.2"/>
    <path id="Tracé_603" data-name="Tracé 603" d="M700.544,420.607a6.126,6.126,0,0,1,9.389.284l13.477-3.783,4.3,7.629L708.6,429.812a6.159,6.159,0,0,1-8.055-9.2Z" transform="translate(-402.661 -269.171)" fill="#ffb6b6"/>
    <path id="Tracé_604" data-name="Tracé 604" d="M736.594,410.629l-13.3-.3-2.377-11,8.757-.916,6.394-4.076,10.069-4.739c-.815-2.8-6.749-24.173.851-26.94a6.541,6.541,0,0,1,5.464.233c3.99,2.085,5.579,7.944,5.636,8.164l4.932,13.543c.46.623,5.151,7.125,4.392,11.935a5.04,5.04,0,0,1-2.122,3.454c-10.292,7.276-18.962,11.033-25.369,11.033A13.569,13.569,0,0,1,736.594,410.629Z" transform="translate(-409.878 -251.116)" fill="#2f2e41"/>
    <path id="Tracé_605" data-name="Tracé 605" d="M713.349,307.188c1.069,1.39,4.75,2.619,9.122,3.611-.007-.091-.007-.182-.007-.272a19.139,19.139,0,0,1,.517-4.128,12.4,12.4,0,0,0,1.872,4.638c.07.1.14.209.216.314,3.751.74,7.718,1.313,10.826,1.7-2.137,7.7-10.33,14.011-9.443,18.691l24.006,4.9a18.823,18.823,0,0,1,.461-5.8,12.478,12.478,0,0,0,3.478,6.6l2.039.419.608-3c5.266-12.649-2.074-25.6-14.1-32.3a14.62,14.62,0,0,0-9.262-6.216l-3-.615A14.69,14.69,0,0,0,713.349,307.188Z" transform="translate(-407.391 -229.185)" fill="#2f2e41"/>
    <path id="Tracé_606" data-name="Tracé 606" d="M269.188,671.925l-.323-7.272a23.487,23.487,0,0,0-10.955-2.773c5.261,4.3,4.6,12.594,8.171,18.378a14.127,14.127,0,0,0,10.36,6.528l4.4,2.7a23.672,23.672,0,0,0-4.99-19.183,22.867,22.867,0,0,0-4.2-3.9C270.6,669.175,269.188,671.925,269.188,671.925Z" transform="translate(-257.714 -349.613)" fill="#f2f2f2"/>
    <path id="Tracé_607" data-name="Tracé 607" d="M258.418,702.464H716.54a.8.8,0,0,0,0-1.6H258.418a.8.8,0,1,0,0,1.6Z" transform="translate(-257.618 -362.426)" fill="#cacaca"/>
  </g>
</svg>
