<svg id="struggle1" xmlns="http://www.w3.org/2000/svg" width="475.576" height="218.771" viewBox="0 0 475.576 218.771">
  <path id="Tracé_523" data-name="Tracé 523" d="M933.7,287.882H968V270.829c0-.153,0-.3,0-.461A17.179,17.179,0,0,0,950.855,253.4a16.9,16.9,0,0,0-12.123,5.1,17.218,17.218,0,0,0-1.686,1.991,17.464,17.464,0,0,0-3.341,10.334Z" transform="translate(-546.203 -253.402)" fill="#2f2e41"/>
  <circle id="Ellipse_116" data-name="Ellipse 116" cx="13.91" cy="13.91" r="13.91" transform="translate(275.117 189.922)" fill="#3f3d56"/>
  <circle id="Ellipse_117" data-name="Ellipse 117" cx="13.91" cy="13.91" r="13.91" transform="translate(323.304 189.922)" fill="#3f3d56"/>
  <path id="Tracé_524" data-name="Tracé 524" d="M232.58,500.73H164.811L150.79,533.252H125.474L188.179,394.6h20.447l62.9,138.653H246.406Zm-8.374-19.474-25.511-59.4-25.511,59.4Z" transform="translate(-115.751 -316.038)" fill="#ec910a"/>
  <path id="Tracé_525" data-name="Tracé 525" d="M501.485,465.03v98.343H477.533V547.6a31.6,31.6,0,0,1-12.852,12.756A39.193,39.193,0,0,1,445.6,564.93a41.964,41.964,0,0,1-22.784-6.231,41.143,41.143,0,0,1-15.384-17.721q-5.454-11.488-5.453-26.679t5.55-26.971a43.464,43.464,0,0,1,15.482-18.306A40.24,40.24,0,0,1,445.6,462.5a39.156,39.156,0,0,1,19.084,4.576,31.621,31.621,0,0,1,12.853,12.756v-14.8Zm-30.573,72.443q6.618-8.37,6.621-23.563,0-15.578-6.621-23.953t-18.89-8.374q-12.077,0-18.792,8.666t-6.719,24.05q0,15.19,6.719,23.369t18.987,8.179Q464.289,545.846,470.912,537.472Z" transform="translate(-246.667 -346.159)" fill="#ec910a"/>
  <rect id="Rectangle_152" data-name="Rectangle 152" width="475.576" height="1.113" transform="translate(0 216.629)" fill="#3f3d56"/>
  <path id="Tracé_526" data-name="Tracé 526" d="M1007.61,434.974c1.328,1.4,3.351,18.591,9.339,15.979,4.837-5.462-3.293-16.314-4.122-18.617Z" transform="translate(-578.988 -332.778)" fill="#ffb8b8"/>
  <path id="Tracé_527" data-name="Tracé 527" d="M883.9,143.8l14.721,19.739-7.026,5.353-10.372-14.721Z" transform="translate(-462.833 -63.789)" fill="#ec910a"/>
  <path id="Tracé_528" data-name="Tracé 528" d="M948.465,402.611s-10.037,19.07-2.007,30.11,24.757,35.129,24.757,35.129c2.428,20.671,7.054,40.367,19.787,57.052l8.428-2.311-12.156-59.425s-6.691-34.794-14.386-43.493l-1.36-16.622Z" transform="translate(-550.479 -319.592)" fill="#2f2e41"/>
  <path id="Tracé_529" data-name="Tracé 529" d="M928.9,453.12l-6.691,33.121c-5.708,3.585-17.573,39.247-22.212,51.607l9.051,3.366c9.979-15.761,32.973-57.14,38.252-74.712Z" transform="translate(-531.251 -341.998)" fill="#2f2e41"/>
  <path id="Tracé_530" data-name="Tracé 530" d="M974.163,273.148c-.263,15.392-23.159,15.39-23.419,0C951.007,257.756,973.9,257.758,974.163,273.148Z" transform="translate(-553.762 -257.041)" fill="#ffb8b8"/>
  <path id="Tracé_531" data-name="Tracé 531" d="M965.343,294.648c-5.914,8.868-5.755,11.939,1.338,20.074l-10.706-7.695s-7.695,0-6.022-3.68,5.018-11.375,5.018-11.375Z" transform="translate(-553.306 -270.512)" fill="#ffb8b8"/>
  <path id="Tracé_532" data-name="Tracé 532" d="M956.654,317.644s-7.695-5.688-11.375-2.007c-3.658,7,.022,37.7,1.337,40.147,1.674,2.676,2.009.335,1.674,3.346s-1.673,5.353-1.338,5.688,26.1,3.011,26.1,3.011-2.007-9.368-1.338-13.048-.669-7.36-.669-8.7,2.007-7.026,0-11.375-9.528-13.295-9.528-13.295l-.509.582Z" transform="translate(-550.638 -280.46)" fill="#ec910a"/>
  <path id="Tracé_533" data-name="Tracé 533" d="M930.9,449.246c.739,2.082-5.145,21.026,2.341,21.078,7.608-3.468,4.145-18.615,4.35-21.412Z" transform="translate(-544.294 -340.132)" fill="#ffb8b8"/>
  <path id="Tracé_534" data-name="Tracé 534" d="M939.6,317.227s-8.7.335-8.7,10.706-3.011,28.772-3.011,28.772v35.8H939.27L937.6,358.712l7.026-22.081S953.656,322.579,939.6,317.227Z" transform="translate(-543.626 -281.715)" fill="#ec910a"/>
  <path id="Tracé_535" data-name="Tracé 535" d="M1049.7,628.421h0a4.377,4.377,0,0,0-1.959-4.294l-12.565-6.166-9.473,1.2-2.237,8.021a4.269,4.269,0,0,0,3.734,4.939l17.677.039a4.378,4.378,0,0,0,4.824-3.734Z" transform="translate(-585.995 -415.123)" fill="#2f2e41"/>
  <path id="Tracé_536" data-name="Tracé 536" d="M907.483,622.9h0a4.378,4.378,0,0,0,1.651-4.421l-4.525-13.245-7.544-5.853-7.253,4.089a4.268,4.268,0,0,0-.852,6.133l12.472,12.527a4.378,4.378,0,0,0,6.051.77Z" transform="translate(-513.33 -406.878)" fill="#2f2e41"/>
  <path id="Tracé_537" data-name="Tracé 537" d="M947.787,260.2l3.125,9.942,27.016-.48a16.7,16.7,0,0,0-30.141-9.462Z" transform="translate(-552.45 -253.404)" fill="#2f2e41"/>
</svg>
