<svg id="struggle_4" data-name="struggle 4" xmlns="http://www.w3.org/2000/svg" width="407.696" height="315.536" viewBox="0 0 407.696 315.536">
  <ellipse id="Ellipse_118" data-name="Ellipse 118" cx="21.708" cy="44.294" rx="21.708" ry="44.294" transform="translate(290.391 198.634)" fill="#3f3d56"/>
  <path id="Tracé_538" data-name="Tracé 538" d="M835.3,673.083c8.694-52.165.088-104.142,0-104.66l-1.691.286c.088.516,8.645,52.219,0,104.092Z" transform="translate(-525.201 -357.652)" fill="#cacaca"/>
  <rect id="Rectangle_153" data-name="Rectangle 153" width="1.716" height="22.262" transform="translate(292.176 234.918) rotate(-61.858)" fill="#cacaca"/>
  <rect id="Rectangle_154" data-name="Rectangle 154" width="22.263" height="1.716" transform="translate(312.897 249.171) rotate(-28.158)" fill="#cacaca"/>
  <ellipse id="Ellipse_119" data-name="Ellipse 119" cx="42.459" cy="86.634" rx="42.459" ry="86.634" transform="translate(321.799 86.193)" fill="#e6e6e6"/>
  <path id="Tracé_539" data-name="Tracé 539" d="M945.746,547.854c16.983-101.894.171-203.418,0-204.431l-1.691.286c.171,1.011,16.933,102.261,0,203.863Z" transform="translate(-586.217 -233.356)" fill="#cacaca"/>
  <rect id="Rectangle_155" data-name="Rectangle 155" width="1.716" height="43.543" transform="translate(325.679 156.435) rotate(-61.858)" fill="#cacaca"/>
  <rect id="Rectangle_156" data-name="Rectangle 156" width="43.543" height="1.716" transform="translate(366.206 185.753) rotate(-28.158)" fill="#cacaca"/>
  <path id="Tracé_540" data-name="Tracé 540" d="M455.455,616.914H229.612a3.137,3.137,0,0,1-3.133-3.133V471.075a3.136,3.136,0,0,1,3.133-3.133H455.455a3.137,3.137,0,0,1,3.133,3.133V613.781a3.137,3.137,0,0,1-3.133,3.133Z" transform="translate(-189.808 -302.144)" fill="#e4e4e4"/>
  <path id="Tracé_541" data-name="Tracé 541" d="M278.227,506.579a1.344,1.344,0,0,0-1.343,1.343v111.7a1.344,1.344,0,0,0,1.343,1.343h184.3a1.344,1.344,0,0,0,1.343-1.343v-111.7a1.344,1.344,0,0,0-1.343-1.343Z" transform="translate(-217.653 -323.488)" fill="#fff"/>
  <path id="Tracé_542" data-name="Tracé 542" d="M461.135,534.8v-7.078H435.071V505.579h-7.078v22.139h-46.4V505.579h-7.078v22.139H302.944V505.579h-7.078v22.139H271.117V534.8h24.748v27.527H271.117V569.4h24.748v29.493H271.117v7.078h62.892V620.86h7.078V605.972h33.425V620.86h7.078V605.972h79.544v-7.078H381.591V569.4h79.544v-7.078H435.071V534.8Zm-86.622,0v8.651H302.944V534.8Zm-71.569,15.729h71.569v11.8H302.944Zm0,48.368V569.4H334.01v29.493Zm71.569,0H341.088V569.4h33.425Zm53.48-36.571h-46.4V534.8h46.4Z" transform="translate(-214.467 -322.935)" fill="#e6e6e6"/>
  <path id="Tracé_543" data-name="Tracé 543" d="M407.52,703.791H0v-.977H407.7Z" transform="translate(0 -388.255)" fill="#cacaca"/>
  <circle id="Ellipse_121" data-name="Ellipse 121" cx="55.792" cy="55.792" r="55.792" transform="translate(108.877 78.509)" fill="#ec910a"/>
  <path id="Tracé_544" data-name="Tracé 544" d="M325.624,427.861,308,397.751l-17.626-30.11,34.889-.21,34.889-.21-17.263,30.32Z" transform="translate(-160.409 -202.863)" fill="#ec910a"/>
  <circle id="Ellipse_122" data-name="Ellipse 122" cx="20.017" cy="20.017" r="20.017" transform="translate(145.099 113.933)" fill="#fff"/>
  <path id="Tracé_545" data-name="Tracé 545" d="M488.029,97.789s-11.938-3.363-15.469,12.947-1.288,14.255-1.288,14.255l26.651-3.111S505.936,102.749,488.029,97.789Z" transform="translate(-324.65 -97.502)" fill="#2f2e41"/>
  <path id="Tracé_546" data-name="Tracé 546" d="M451.958,258.012s-18.011.834-14.892,7.9q.331.75.616,1.4a126.453,126.453,0,0,0,7.682,14.87l11.07,18.341,4.028-2.238-11.336-29.467,10.189-.832Z" transform="translate(-305.942 -186.172)" fill="#ffb6b6"/>
  <path id="Tracé_547" data-name="Tracé 547" d="M560.979,273.715,566.8,286.4s4.367,4.367,9.149,21.833,5.822,16.843,5.822,16.843l-4.727,1.574-19.393-35.26-9.565-12.06L551,272.884Z" transform="translate(-367.473 -194.388)" fill="#ffb6b6"/>
  <path id="Tracé_548" data-name="Tracé 548" d="M491.849,236.575l8.366,15.572s18.968,37.272,17.008,37.148c-2.2-.139-8.394,2.43-10.294,4.923-.917,1.2-14.322-28.2-19.031-34.77l-10.189-7.9s-28.929,4.869-28.965,3.286c-.017-.776,9.578,17.832,7.609,17.008-2.243-.939-7.52,3.632-9.847,2.685-.96-.39-7.742-16.834-10.487-23.572a3.647,3.647,0,0,1,1.687-4.615c2.063-1.073,30.731-7.619,30.731-7.619l-.5-2.56L470.016,232Z" transform="translate(-305.414 -171.802)" fill="#2f2e41"/>
  <circle id="Ellipse_123" data-name="Ellipse 123" cx="8.11" cy="8.11" r="8.11" transform="translate(151.971 24.275) rotate(-80.783)" fill="#ffb6b6"/>
  <path id="Tracé_549" data-name="Tracé 549" d="M516.9,195.22c.448,1.343-2.452,2.115-6.495,1.36-3.5-.653-7.326-1.429-10.345-2.057-3.233-.674-5.544-1.177-5.544-1.177s-.832,5.2-3.535,4.575c-2.329-.536-9.288-24.846-11.17-31.565a2.337,2.337,0,0,1,1.033-2.626l9.559-5.837s6.587-2.262,8.989-2.327,6.56-.688,6.56-.688,4.783.416,5.614,3.951,4.3,24.494,4.367,29.527C516.007,193.877,515.56,191.191,516.9,195.22Z" transform="translate(-329.71 -129.198)" fill="#cacaca"/>
  <path id="Tracé_550" data-name="Tracé 550" d="M495.674,113.485s-3.363,8.912-11.6,12.611l-1.345-7.9Z" transform="translate(-331.366 -106.331)" fill="#2f2e41"/>
  <ellipse id="Ellipse_124" data-name="Ellipse 124" cx="1.144" cy="2.183" rx="1.144" ry="2.183" transform="translate(168.033 12.268)" fill="#ffb6b6"/>
  <path id="Tracé_551" data-name="Tracé 551" d="M476.54,349.684l-16.075,7.39-.094-.2a6.887,6.887,0,0,1,3.38-9.134h0l9.818-4.514Z" transform="translate(-318.668 -233.246)" fill="#2f2e41"/>
  <path id="Tracé_552" data-name="Tracé 552" d="M607.433,384.445l9.861-4.42h0a6.887,6.887,0,0,1,9.1,3.467l.092.2-16.145,7.237Z" transform="translate(-400.258 -253.242)" fill="#2f2e41"/>
  <path id="Tracé_553" data-name="Tracé 553" d="M400.918,104.51l-1.882,20.705,3.346.158Z" transform="translate(-220.438 -57.734)" opacity="0.2"/>
  <path id="Tracé_554" data-name="Tracé 554" d="M498.186,235.682a4.089,4.089,0,0,0-.895-6.206l-7.232-36.533-8.305,3.177,9.721,34.912a4.111,4.111,0,0,0,6.712,4.65Z" transform="translate(-330.829 -150.226)" fill="#ffb6b6"/>
  <path id="Tracé_555" data-name="Tracé 555" d="M490.084,187.767l-9.119,1.606a1.833,1.833,0,0,1-2.151-1.756l-.252-9.228a5.092,5.092,0,0,1,10.034-1.737l2.909,8.73a1.833,1.833,0,0,1-1.422,2.385Z" transform="translate(-329.024 -138.893)" fill="#cacaca"/>
  <path id="Tracé_556" data-name="Tracé 556" d="M526.493,233.815a4.089,4.089,0,0,0,1.142-6.165l4.865-36.923-8.886.346-1.988,36.185a4.111,4.111,0,0,0,4.866,6.556Z" transform="translate(-352.144 -149.002)" fill="#ffb6b6"/>
  <path id="Tracé_557" data-name="Tracé 557" d="M533.756,184.229l-9.153-1.4a1.833,1.833,0,0,1-1.474-2.352l2.721-8.822a5.092,5.092,0,0,1,10.062,1.572l-.044,9.2a1.833,1.833,0,0,1-2.111,1.8Z" transform="translate(-353.641 -136.086)" fill="#cacaca"/>
  <text id="_" data-name="+" transform="translate(151.555 256.609) rotate(45)" fill="#f11717" font-size="56" font-family="Poppins-Medium, Poppins" font-weight="500"><tspan x="-19.992" y="0">+</tspan></text>
</svg>
