<svg xmlns="http://www.w3.org/2000/svg" width="386.04" height="276.049" viewBox="0 0 386.04 276.049">
  <g id="struggle3" transform="translate(-0.001 0.003)">
    <path id="Tracé_226" data-name="Tracé 226" d="M785.936,315.049c-.722-1.856.309-2.784.722-4.434s-.928-6.806-.928-6.806-4.331-17.841-5.672-21.347a6.445,6.445,0,0,0-3.032-3.19c-.084-.455-.2-.749-.371-.832a28.813,28.813,0,0,0-6.153-2.254,10.062,10.062,0,0,0-1.311-1.773,4.192,4.192,0,0,0,.467-2.171c-.126-1.946-1.6-3.689-1.408-5.629.145-1.472,1.221-2.68,1.636-4.1a4.821,4.821,0,0,0-.548-3.8l.915.974a3.42,3.42,0,0,0-.255-4.132c-.966-1.067-2.581-1.467-3.331-2.7-.77-1.263-.357-2.978-1.085-4.266-1.784-3.154-6.351-.918-9.086-2.019a7.548,7.548,0,0,0-3.243-.914,12.672,12.672,0,0,0-3.164.591,6.684,6.684,0,0,0-3.626,2.6,2.249,2.249,0,0,1,.283-.271,1.465,1.465,0,0,1,2.175.29,1.283,1.283,0,0,1,.1.612,2.877,2.877,0,0,1-1.666,2.075,6.261,6.261,0,0,0-2.226,1.612c-.863,1.259-.356,2.949-.355,4.476a6.489,6.489,0,0,1-2.459,5.039l2.91-1.19a21.994,21.994,0,0,0-2.687,7.881l3.935-3.25a17.3,17.3,0,0,0-2.584,7.68l3.158-3.236a1.6,1.6,0,0,1,.208.831l-.329,1.27a8.255,8.255,0,0,1-.386.737c-.508.873-1.034,1.947-.558,2.838h0c-.5,1.683-1.255,3.368-2.934,4.186a4.888,4.888,0,0,0,4.647-2.218,4.151,4.151,0,0,0,.494.749l.161.2-.464.309-1.244.829s-8.147,1.65-7.631,4.744l.075.45-2.344,3.985-3.4,11.55s-1.753,3.713-1.444,5.259,0,2.166,0,4.95-1.341,3.919,0,6.188,5.363,8.869,5.363,8.869l.883.663a4.125,4.125,0,0,0,.045,1.194c.825,4.125,8.559,43.622,8.559,43.622s-3.919,31.247,4.022,33.207c1,.246,1.974.469,2.924.667l1.2,7.892-.722,10s-5.466,12.375,4.538,13.1,5.466-10.725,5.466-10.725a5.438,5.438,0,0,0,.619-3.2c-.1-.918-.961-5.7-1.8-10.29,3.8-.455,3.086-4.484,2.58-6.256a1.025,1.025,0,0,0,.46-.573,17.6,17.6,0,0,0-.635-4.3c-.393-2.254-1.065-5.9-1.523-8.376l2.467.4,10.416-61.05s.069-.972.037-2.393a38.656,38.656,0,0,1,4.4-1.938c3.4-1.341,4.744-6.291,5.878-8.353S786.658,316.9,785.936,315.049Zm-36.981-38.871a2.206,2.206,0,0,1,1.141-.387c-.088.48-.913.62-1.6.871a2.04,2.04,0,0,1,.464-.484Zm-5.2,30.724c.836,1.373-.677,5.092-2.04,8.044-.781-.673-1.6-.461-.641-2.372a9.7,9.7,0,0,0,1.134-3.919,3.776,3.776,0,0,1,1.137-2.688,5.423,5.423,0,0,0,.41.935Zm-3.13,11.847c.473-.192,1.189-.488,2.156-.817-.463.608-.992,1.332-1.524,2.123a1.6,1.6,0,0,1-.632-1.306Zm33.449,1.353c-.627-.666-1.134-1.262-1.551-1.8q1.167.307,2.376.661a2.827,2.827,0,0,0,1.2-.08c.036.713.036,1.73.036,1.73l-1.13.782a6.624,6.624,0,0,0-.933-1.3Zm3.2-3.577-.037.034a6.847,6.847,0,0,0-.275-1.2,45.147,45.147,0,0,1-1.229-9.141l1.951,6.563s.1,3.3-.409,3.746Z" transform="translate(-485.441 -189.867)" fill="#d0cde1"/>
    <path id="Tracé_227" data-name="Tracé 227" d="M650.267,270.225s-10.58-18.184-10.911-20.168-5.621-5.621-5.621-5.621c-1.807-1.807-4.773-2.379-7.894-2.35,1.175-.972-3.021-1.626-3.348-2.279s-1.323-.661-2.645-1.653-4.623-.165-4.624-.165a12.184,12.184,0,0,1-1.026-3.3,9.218,9.218,0,0,0,2.178-5.962c0-.024,0-.047,0-.071.084.131.168.263.253.4.619-3.71,1.713-6.794-.371-10.178a11.411,11.411,0,0,0-6.491-4.962l-1.985,1.588.772-1.852a10.505,10.505,0,0,0-1.962-.113l-1.786,2.3.739-2.217a11.3,11.3,0,0,0-7.8,4.638,10.015,10.015,0,0,0,.115,11.135c.008-.023.013-.046.021-.069a9.255,9.255,0,0,0,4.73,7.494l.561,4.492h0a3.079,3.079,0,0,1-1.841.812c-.992,0-1.984,2.645-1.984,2.645s-.562.284-1.168,1.623c-1.561,1.063-6.322,4.4-8.088,6.733-1.045.514-2.167,1.658-1.985,4.208.331,4.629,0,26.119,0,26.119s-2.976,18.184-1.984,19.507-.331,5.621-.331,5.621l.992.22v1.1s-2.983,13.83,1.653,13.225c7.6-.992,1.984-12.233,1.984-12.233v-1.286l1.323.294s.661-4.629,1.984-4.959c.46-.115,1-1.351,1.509-2.913l.475,3.9,2.069-.46.576,2.113a2.849,2.849,0,0,0,.444.2l-.444,2.444a17.145,17.145,0,0,0,0,4.3c.167.834,6.3,18.654,12.347,36.115l-.114,4.221s-2.976,3.306-2.314,5.621-1.653,21.491-1.653,21.491l-1.984,9.588.5.154-.458,1.68a3.335,3.335,0,0,0-1.033.811c-2.645,2.976-5.951,11.572-5.951,11.572s-5.951,8.927,3.306,8.6,9.919-3.637,9.919-3.637,1.323-8.6,1.323-8.927-.661-3.729-.661-3.729l-.257-.283.179-4.124,1.731.532s1.653-8.6,2.976-9.588c.462-.347,1.692-4.208,3.1-9.168,1.435,4.132,2.825,18.42,3.276,19.717a4.694,4.694,0,0,0-.42.692,80.349,80.349,0,0,1-4.959,8.266s-10.58,6.282,0,7.935c0,0,5.951.331,8.927-1.653s10.911-4.959,10.911-5.621-1.984-10.382-3.968-9.324h0l-1.329-3.056,1.329-.514L624.7,354.324a18.979,18.979,0,0,0,.436-2.434c0-1.731,4.281-35.445,5.37-44,4.795,1.358,9.177-8.574,9.177-8.574l1.087-1.956,1.558.965s1.323-3.306,3.306-3.637,5.621-17.854,5.621-20.168A10.76,10.76,0,0,0,650.267,270.225Zm-15.4,25.9a8.907,8.907,0,0,0-1.127-1.438,40.947,40.947,0,0,0,1.984-6.943c.661-3.637-.992-15.539-.992-15.539l-.029-.808c1.623,2.13,3.666,4.97,3.666,5.768a2.48,2.48,0,0,0,.992,1.984l-1.984,6.943a41.089,41.089,0,0,0-1.653,4.959,16.874,16.874,0,0,0-.331,2.976l.469.29Z" transform="translate(-398.49 -170.673)" fill="#d0cde1"/>
    <path id="Tracé_228" data-name="Tracé 228" d="M285.518,288.529l1.764-.4-7.274-20.5-15.7-5.786s-.06.067-.171.182a8.321,8.321,0,0,1-2.146-4.658,9.255,9.255,0,0,0,4.315-13.592c1.294-.311,1.756-1.485,2.19-2.885a5.787,5.787,0,0,0-.821-.179l.611-1.369-1.073-.1.274-1.28-1.368.945a2.8,2.8,0,0,0-.466-2.669,5.339,5.339,0,0,0-2.289-1.614,10.211,10.211,0,0,0-10.478,1.831l-.1-.385a13.3,13.3,0,0,0-5.079,8.8c-.438,3.45,1.22,6.963,3.374,9.694-.018-.119-.038-.238-.057-.357q.14.192.288.378l.265,10.063-.663.569s-11.128,5.035-11.562,11.048v0c-.668,2.927-1,18.136-1,18.136h.916l-.916,5.951L232.4,323.508s-7.6,9.919-.992,11.9c4.109,1.233,5.281-3.535,5.58-7.322a2.325,2.325,0,0,0,2.355,1.7c.111.01.229.018.343.028-3.127,8.08-1,34.357-1,34.357-1.653,3.306,17.854,26.119,17.854,26.119l1.175-.626.254.508c-.654.063-1.1.118-1.1.118v10.249s-2.976,10.249.992,12.233a2.827,2.827,0,0,0,3.121-.694c-.2,3.163-.476,7.883-.476,8.96,0,1.653,4.3,4.629,4.3,4.629s.992,3.637,8.927,3.637,1.984-9.588,1.984-9.588l-4.3-9.588s-.322.157-1.295-.635l.349-3.834,1.938.171,2.645-38.683s2.314-34.385,2.645-39.675a36.817,36.817,0,0,0-.12-5.086l9.708-20.042Zm-7.163,12.828-.992,3.457v-7.645Zm-41.276,24.518c.008-1.212-.052-2.036-.052-2.036l6.464-12.927-.182,4S238.132,321.461,237.078,325.875Zm15.157,37.308,6.282-22.152,3.637,26.781-.261,9.736a15.524,15.524,0,0,1-1.062-2.793C259.84,370.788,252.236,363.183,252.236,363.183Z" transform="translate(-185.103 -182.856)" fill="#d0cde1"/>
    <path id="Tracé_229" data-name="Tracé 229" d="M374.6,406.843c-3.1-1.276-9.111-4.009-9.84-5.467s-4.373-12.756-4.373-12.756l-.939.068c-.121-5.133-.638-25.024-1.43-27.4,0,0,3.827-31.525-3.827-44.1l-1.379-5.571a31.1,31.1,0,0,0,.1-8.278c-.365-1.093,4.191-4.556,2.916-6.742s-4.738-9.658-4.738-9.658.364-4.738-4.556-9.111c0,0-1.438-8.14-7.917-8.261-.876-1.529-2.1-3.959-1.741-5.041.386-1.159,1.863-4.771,2.7-6.793a8.729,8.729,0,0,0,1.272-.708,15.557,15.557,0,0,0,8.785-14.342c0-6.94-4.161-12.814-9.9-14.784a4.918,4.918,0,1,0-9.516-1.765,4.915,4.915,0,0,1,5.485-6.73,4.916,4.916,0,0,0-5.267,8.208,4.871,4.871,0,0,0,.2.529c-5.4,2.177-9.245,7.866-9.245,14.541a15.655,15.655,0,0,0,8.1,14.012c-.025,2.014-.525,5.41-3.3,7.479-1.435-.656-3.426-1.375-4.7-1.049-.661-.515-1.658-.685-3.014.672-2.733,2.733-5.1,9.84-5.1,14.214s.547,29.7.547,29.7-2.916,1.093-.911,2.733a2.363,2.363,0,0,0,1.472.547l1.99,14.76s-1.276,14.214,3.645,14.4a1.947,1.947,0,0,0,1.1-.27l-3.652,16.488a54.913,54.913,0,0,0-14.943,16.218,86.491,86.491,0,0,0-5.9,10.95l-1.2-.745-4.191,8.018s-9.294,5.649-7.289,9.84,3.827,5.285,3.827,5.285l1.276-.547,2.369,4.373s6.2,8.929,16.218,4.373a3.663,3.663,0,0,0,0-4.373c-1.64-2.369-5.831-7.471-5.831-7.471l2.733-13.849-.566-.351,17.33-20.97s5.1-3.1,6.925-5.831,13.12-30.978,13.12-30.978l6.378,29.521s-.364,10.751,1.276,17.676a75.028,75.028,0,0,1,1.743,11.811l-.468.034,1.093,8.2s-4.738,11.662-1.458,12.574a48.055,48.055,0,0,0,7.107,1.276l.364-1.276s14.031,7.654,19.134,2C376.609,412.128,377.7,408.119,374.6,406.843Zm-49.93-89.473c.547.547.364,3.1.364,3.1l-1.093,7.107-1.092,4.929a52.946,52.946,0,0,0-.913-6.934l-.5-13.619a1.053,1.053,0,0,0,.322.135c.364,0,.182-3.1.182-3.1s.213-.553.478-1.426c.708,2.121,1.573,3.5,2.62,3.8l.182,2.369s-2.369,1.093-.182,1.093a1.723,1.723,0,0,0,.376-.056l-.193.967S324.128,316.823,324.674,317.37Z" transform="translate(-217.999 -173.895)" fill="#d0cde1"/>
    <ellipse id="Ellipse_63" data-name="Ellipse 63" cx="146.484" cy="2.415" rx="146.484" ry="2.415" transform="translate(7.006 236.608)" fill="#3f3d56"/>
    <ellipse id="Ellipse_64" data-name="Ellipse 64" cx="161.132" cy="6.238" rx="161.132" ry="6.238" transform="translate(43.627 239.023)" fill="#3f3d56"/>
    <ellipse id="Ellipse_65" data-name="Ellipse 65" cx="79.077" cy="6.238" rx="79.077" ry="6.238" transform="translate(95.943 248.278)" fill="#3f3d56"/>
    <ellipse id="Ellipse_66" data-name="Ellipse 66" cx="35.212" cy="3.219" rx="35.212" ry="3.219" transform="translate(254.097 258.742)" fill="#3f3d56"/>
    <ellipse id="Ellipse_67" data-name="Ellipse 67" cx="16.701" cy="3.219" rx="16.701" ry="3.219" transform="translate(224.317 269.607)" fill="#3f3d56"/>
    <ellipse id="Ellipse_68" data-name="Ellipse 68" cx="16.701" cy="3.219" rx="16.701" ry="3.219" transform="translate(88.296 255.925)" fill="#3f3d56"/>
    <path id="Tracé_230" data-name="Tracé 230" d="M465.909,551.662l1.61,11.268,8.049-.8-.8-11.67Z" transform="translate(-278.414 -328.938)" fill="#ffb8b8"/>
    <path id="Tracé_231" data-name="Tracé 231" d="M356.567,551.662l-1.61,11.268-8.049-.8.8-11.67Z" transform="translate(-207.303 -328.938)" fill="#ffb8b8"/>
    <path id="Tracé_232" data-name="Tracé 232" d="M453.555,370.088a29.691,29.691,0,0,0-5.634,21.731c1.61,13.28,4.427,43.462,4.427,43.462L454.36,488.8l12.878-.8,2.012-45.474,6.439-36.621,17.3,42.657s8.451,39.84,8.853,39.84,12.073-1.207,12.073-1.207l-5.634-47.084S499.432,371.7,494.2,370.49,453.555,370.088,453.555,370.088Z" transform="translate(-315.961 -264.068)" fill="#2f2e41"/>
    <path id="Tracé_233" data-name="Tracé 233" d="M595.3,679.618s-7.244-4.829-10.061.8-.4,9.658-.4,9.658,2.415,1.61,1.207,3.219-1.61,12.073,8.853,10.463,5.232-12.475,5.232-12.475Z" transform="translate(-397.343 -448.04)" fill="#2f2e41"/>
    <path id="Tracé_234" data-name="Tracé 234" d="M456.155,679.618s7.244-4.829,10.061.8.4,9.658.4,9.658-2.415,1.61-1.207,3.219,1.61,12.073-8.853,10.463-5.232-12.475-5.232-12.475Z" transform="translate(-317.354 -448.04)" fill="#2f2e41"/>
    <path id="Tracé_235" data-name="Tracé 235" d="M486.768,172.99s3.622,10.061.8,15.695S492,200.758,492,200.758s18.914-9.658,16.5-14.487S502.06,175,502.865,170.978Z" transform="translate(-339.315 -145.242)" fill="#ffb8b8"/>
    <circle id="Ellipse_69" data-name="Ellipse 69" cx="12.878" cy="12.878" r="12.878" transform="translate(141.618 5.815)" fill="#ffb8b8"/>
    <path id="Tracé_236" data-name="Tracé 236" d="M472.9,206.821s12.921,10.752,22.558-4.483l10.039,5.691L510.73,269.2s-29.377,16.9-43.462,2.415l2.012-56.742Z" transform="translate(-327.662 -163.982)" fill="#d0cde1"/>
    <path id="Tracé_237" data-name="Tracé 237" d="M341.064,91.488l-18.143,12.06,6.439,29.78-8.451,46.279,13.683-20.524Z" transform="translate(-191.766 -54.672)" fill="#575a89"/>
    <path id="Tracé_238" data-name="Tracé 238" d="M523.922,190.169l4.456,2.941,18.109,6.439-2.817,49.9,7.646,32.194-10.866,5.634s-2.012-15.292-14.487-22.938S521.076,192.46,523.922,190.169Z" transform="translate(-358.59 -156.71)" fill="#575a89"/>
    <path id="Tracé_239" data-name="Tracé 239" d="M449.1,384.478l5.232,3.622s-6.64,7.042-7.847,5.835a3.3,3.3,0,0,1-1.006-2.616l-1.207-2.817Z" transform="translate(-313.918 -272.824)" fill="#ffb8b8"/>
    <path id="Tracé_240" data-name="Tracé 240" d="M533.8,382.532l-1.779,2.8s-5.232,2.415-4.024,4.024,11.268,5.232,13.28,1.61l2.012-3.622Z" transform="translate(-363.845 -271.661)" fill="#ffb8b8"/>
    <path id="Tracé_241" data-name="Tracé 241" d="M440.1,227.478l-2.817.4-4.628,29.981s-1.811,5.433.2,18.311,4,21.263,4,21.263l8.873-6.374L441.711,280.6l5.232-38.231Z" transform="translate(-306.532 -179.005)" fill="#575a89"/>
    <path id="Tracé_242" data-name="Tracé 242" d="M552.146,211.478l6.439.8s7.244,7.646,8.451,15.695.8,30.987.8,30.987l-18.512,29.377L539.268,281.1l14.085-24.951-6.841-29.78Z" transform="translate(-370.687 -169.444)" fill="#575a89"/>
    <path id="Tracé_243" data-name="Tracé 243" d="M494.8,114.068a15.044,15.044,0,0,0-8.558-6.542l-2.616,2.093,1.017-2.441a13.849,13.849,0,0,0-2.586-.149l-2.354,3.027.974-2.923a14.9,14.9,0,0,0-10.279,6.114c-3,4.32-3.5,10.328-.555,14.683.809-2.486,1.791-4.819,2.6-7.3a7.358,7.358,0,0,0,1.917.009l.984-2.3.275,2.2c3.051-.266,7.575-.849,10.467-1.384l-.281-1.687,1.682,1.4c.886-.2,1.412-.389,1.369-.53,2.151,3.467,4.282,5.682,6.433,9.15C496.107,122.6,497.548,118.53,494.8,114.068Z" transform="translate(-328.025 -107.022)" fill="#2f2e41"/>
    <ellipse id="Ellipse_70" data-name="Ellipse 70" cx="0.872" cy="1.744" rx="0.872" ry="1.744" transform="translate(165.191 16.545)" fill="#ffb8b8"/>
    <path id="Tracé_244" data-name="Tracé 244" d="M829.048,675.943c.371,12.7-7.05,17.354-16.362,17.626q-.324.009-.646.012-.648,0-1.283-.022c-8.422-.35-15.089-4.82-15.434-16.631-.357-12.223,14.814-28.1,15.952-29.279h0l.065-.067S828.677,663.244,829.048,675.943Z" transform="translate(-523.694 -430.047)" fill="#ec910a"/>
    <path id="Tracé_245" data-name="Tracé 245" d="M825.8,691.647l5.916-8.8-5.9,9.744.012.99q-.648,0-1.283-.022l.293-12.725-.008-.1.011-.019.028-1.2-6.478-9.406,6.471,8.506.023.254.222-9.614-5.6-9.752,5.611,8.063-.059-19.917v-.066l0,.065.371,15.7,5.1-6.377-5.083,7.729.111,8.6,4.693-8.393-4.676,9.657.062,4.782,6.824-11.691-6.8,13.359Z" transform="translate(-537.483 -430.049)" fill="#3f3d56"/>
    <path id="Tracé_246" data-name="Tracé 246" d="M293.048,628.943c.371,12.7-7.05,17.354-16.362,17.626q-.324.009-.646.012-.648,0-1.283-.022c-8.422-.35-15.089-4.82-15.434-16.631-.357-12.223,14.814-28.1,15.952-29.279h0l.065-.067S292.677,616.244,293.048,628.943Z" transform="translate(-203.396 -401.961)" fill="#ec910a"/>
    <path id="Tracé_247" data-name="Tracé 247" d="M289.8,644.647l5.916-8.8-5.9,9.744.012.99q-.648,0-1.283-.022l.293-12.724-.008-.1.011-.019.028-1.2-6.478-9.406,6.471,8.506.023.254.222-9.614-5.6-9.752,5.611,8.063-.059-19.917v-.066l0,.065.371,15.7,5.1-6.377-5.083,7.729.111,8.6,4.693-8.393-4.675,9.657.062,4.782,6.824-11.691-6.8,13.359Z" transform="translate(-217.185 -401.964)" fill="#3f3d56"/>
    <path id="Tracé_248" data-name="Tracé 248" d="M714.254,737.828c.218,7.455-4.138,10.187-9.6,10.346q-.191.006-.379.007-.38,0-.753-.013c-4.944-.205-8.857-2.829-9.059-9.762-.21-7.174,8.7-16.5,9.364-17.186h0l.038-.039S714.036,730.374,714.254,737.828Z" transform="translate(-463.422 -474.028)" fill="#ec910a"/>
    <path id="Tracé_249" data-name="Tracé 249" d="M712.349,747.047l3.472-5.164-3.465,5.719.007.581q-.38,0-.753-.013l.172-7.469,0-.058.006-.011.016-.706-3.8-5.521,3.8,4.993.013.149.13-5.643-3.284-5.724,3.294,4.733-.034-11.691v0l.218,9.214,2.993-3.743-2.984,4.537.065,5.048,2.754-4.926-2.744,5.668.036,2.807,4.006-6.862-3.994,7.841Z" transform="translate(-471.515 -474.029)" fill="#3f3d56"/>
    <path id="Tracé_250" data-name="Tracé 250" d="M1079.55,158.045l.035-.111c-.005.016-.011.032-.016.048Z" transform="translate(-693.544 -137.448)" fill="#2f2e41"/>
    <path id="Tracé_251" data-name="Tracé 251" d="M884.35,359.162l29.807-44.326L884.411,363.93l.062,4.988q-3.264.025-6.465-.109l1.478-64.115-.04-.495.055-.1.142-6.058L847,250.653l32.6,42.859.116,1.281,1.117-48.441-28.194-49.136,28.274,40.626-.3-100.358v-.334l.01.329,1.872,79.1,25.7-32.128-25.611,38.942.561,43.329,23.645-42.288-23.558,48.658.312,24.093,34.386-58.907-34.282,67.312Z" transform="translate(-554.579 -125.027)" fill="#3f3d56"/>
    <path id="Tracé_252" data-name="Tracé 252" d="M145.774,460.231l20.283-30.163-20.241,33.408.042,3.394q-2.221.017-4.4-.074l1.006-43.628-.028-.337.037-.065.1-4.123-22.212-32.249,22.186,29.164.079.871.76-32.963L124.2,350.031l19.24,27.645-.2-68.29v-.227l.007.224,1.274,53.822L162,341.341l-17.428,26.5.382,29.485,16.09-28.776-16.031,33.111.212,16.395,23.4-40.084-23.328,45.8Z" transform="translate(-120.359 -227.815)" fill="#3f3d56"/>
  </g>
</svg>
