<svg id="website_icon" xmlns="http://www.w3.org/2000/svg" width="51.596" height="51.596" viewBox="0 0 51.596 51.596">
  <path id="Tracé_6" data-name="Tracé 6" d="M27.8,53.6A25.8,25.8,0,1,1,53.6,27.8,25.8,25.8,0,0,1,27.8,53.6Zm0-47.911A22.113,22.113,0,1,0,49.911,27.8,22.113,22.113,0,0,0,27.8,5.685Z" transform="translate(-2 -2)"      />
  <path id="Tracé_7" data-name="Tracé 7" d="M16.843,53.6A1.843,1.843,0,0,1,15,51.753V3.843a1.843,1.843,0,1,1,3.685,0V51.753A1.843,1.843,0,0,1,16.843,53.6Z" transform="translate(8.955 -2)"      />
  <path id="Tracé_8" data-name="Tracé 8" d="M29.742,29.641A1.843,1.843,0,0,1,27.9,27.8c0-11.978-5.067-22.113-11.056-22.113a1.843,1.843,0,1,1,0-3.685c8.274,0,14.742,11.333,14.742,25.8A1.843,1.843,0,0,1,29.742,29.641Z" transform="translate(8.955 -2)"      />
  <path id="Tracé_9" data-name="Tracé 9" d="M16.843,42.641a1.843,1.843,0,0,1,0-3.685c5.989,0,11.056-10.135,11.056-22.113a1.843,1.843,0,1,1,3.685,0C31.584,31.308,25.116,42.641,16.843,42.641Z" transform="translate(8.955 8.955)"      />
  <path id="Tracé_10" data-name="Tracé 10" d="M9.843,29.641A1.843,1.843,0,0,1,8,27.8C8,13.333,14.468,2,22.742,2a1.843,1.843,0,0,1,0,3.685c-5.989,0-11.056,10.135-11.056,22.113A1.843,1.843,0,0,1,9.843,29.641Z" transform="translate(3.056 -2)"      />
  <path id="Tracé_11" data-name="Tracé 11" d="M22.742,42.641C14.468,42.641,8,31.308,8,16.843a1.843,1.843,0,1,1,3.685,0c0,11.978,5.067,22.113,11.056,22.113a1.843,1.843,0,0,1,0,3.685Z" transform="translate(3.056 8.955)"      />
  <path id="Tracé_12" data-name="Tracé 12" d="M51.753,18.685H3.843a1.843,1.843,0,1,1,0-3.685H51.753a1.843,1.843,0,1,1,0,3.685Z" transform="translate(-2 8.955)"      />
  <path id="Tracé_13" data-name="Tracé 13" d="M46.382,12.685H5.843A1.843,1.843,0,0,1,5.843,9h40.54a1.843,1.843,0,0,1,0,3.685Z" transform="translate(-0.315 3.899)"      />
  <path id="Tracé_14" data-name="Tracé 14" d="M46.382,24.685H5.843a1.843,1.843,0,1,1,0-3.685h40.54a1.843,1.843,0,0,1,0,3.685Z" transform="translate(-0.315 14.012)"      />
</svg>
