<svg id="whatsapp_icon" xmlns="http://www.w3.org/2000/svg" width="63.008" height="63.311" viewBox="0 0 63.008 63.311">
  <path id="Tracé_346" data-name="Tracé 346" d="M57.94,12.69A31.379,31.379,0,0,0,8.562,50.543L4.112,66.8l16.631-4.363a31.345,31.345,0,0,0,14.992,3.819h.013A31.386,31.386,0,0,0,57.94,12.69ZM35.747,60.957h-.011a26.037,26.037,0,0,1-13.272-3.635l-.952-.565-9.869,2.589,2.634-9.622-.62-.987a26.075,26.075,0,1,1,22.089,12.22Z" transform="translate(-4.112 -3.489)" fill-rule="evenodd"/>
  <path id="Tracé_347" data-name="Tracé 347" d="M46.68,37.8c-.784-.392-4.638-2.288-5.356-2.55s-1.241-.392-1.764.392-2.025,2.55-2.482,3.074-.915.589-1.7.2a21.408,21.408,0,0,1-6.3-3.891,23.627,23.627,0,0,1-4.361-5.43c-.457-.785-.049-1.209.344-1.6.353-.351.784-.916,1.176-1.373a5.353,5.353,0,0,0,.784-1.308,1.443,1.443,0,0,0-.065-1.373c-.2-.392-1.764-4.251-2.417-5.821-.636-1.528-1.283-1.321-1.764-1.346-.457-.023-.98-.028-1.5-.028a2.88,2.88,0,0,0-2.09.981,8.792,8.792,0,0,0-2.744,6.539c0,3.859,2.809,7.586,3.2,8.109s5.528,8.441,13.391,11.836A45.009,45.009,0,0,0,37.5,45.863a10.743,10.743,0,0,0,4.937.311c1.506-.225,4.638-1.9,5.291-3.727a6.551,6.551,0,0,0,.457-3.728C47.986,38.392,47.464,38.2,46.68,37.8Z" transform="translate(-0.741 0.136)"  fill-rule="evenodd"/>
</svg>
