<svg xmlns="http://www.w3.org/2000/svg" width="312.079" height="112.626" viewBox="0 0 312.079 112.626">
  <g id="logo" transform="translate(-844.593 -88.618)">
    <g id="I" transform="translate(844.593 88.618)">
      <g id="XMLID_49_" transform="translate(62.942 0)">
        <path id="XMLID_54_" d="M361.85,423.159A19.782,19.782,0,0,1,356.5,436.7a17.7,17.7,0,0,1-3.2,2.731,20.186,20.186,0,0,1-6.741,3.022,19.852,19.852,0,0,1-4.591.523,19.584,19.584,0,0,1-11.332-3.545c-.116-.116-.291-.174-.407-.291a19.242,19.242,0,0,1-2.557-2.267c0-.116.058-.174.058-.291a.524.524,0,0,0-.291.058,20.7,20.7,0,0,1-2.383-3.08,19.912,19.912,0,0,1-2.964-10.4,14.148,14.148,0,0,1,.058-1.569,22.59,22.59,0,0,1,.755-4.126,18.682,18.682,0,0,1,1.279-3.138,19.9,19.9,0,0,1,37.658,8.833Z" transform="translate(-322.1 -403.4)" fill="#fff"/>
        <path id="XMLID_53_" d="M331.691,460.6c0,.116-.058.174-.058.291l-.232-.232A.632.632,0,0,1,331.691,460.6Z" transform="translate(-325.995 -427.358)" fill="#fff"/>
      </g>
      <g id="XMLID_56_" transform="translate(23.192 17.435)">
        <path id="XMLID_58_" d="M284.094,448.684a15.187,15.187,0,0,1-4.126,10.4,17.023,17.023,0,0,1-2.441,2.15,15.4,15.4,0,0,1-5.172,2.325,15.148,15.148,0,0,1-6.974,0,14.9,14.9,0,0,1-5.172-2.325,1.021,1.021,0,0,1-.291-.232,14.142,14.142,0,0,1-1.976-1.743.439.439,0,0,1,.058-.232.44.44,0,0,0-.232.058,14.26,14.26,0,0,1-1.8-2.383,15.017,15.017,0,0,1-2.266-8.02,8.579,8.579,0,0,1,.058-1.22,19.37,19.37,0,0,1,.581-3.2,12.637,12.637,0,0,1,.988-2.441,15.175,15.175,0,0,1,28.767,6.857Z" transform="translate(-253.7 -433.4)" fill="#fff"/>
        <path id="XMLID_57_" d="M260.732,477.5a.439.439,0,0,1-.058.232l-.174-.174C260.616,477.558,260.674,477.5,260.732,477.5Z" transform="translate(-256.548 -451.872)" fill="#fff"/>
      </g>
      <path id="XMLID_43_" d="M259.005,504.622a34.571,34.571,0,0,0-2.673,13.25v14.064c-19.352,6.625-32.777,15.226-33.532,15.807h0v-20.4A31.415,31.415,0,0,1,245.348,497.3,25.552,25.552,0,0,0,259.005,504.622Z" transform="translate(-217.566 -442.73)" fill="#fff"/>
      <g id="XMLID_31_" transform="translate(44.81 41.029)">
        <path id="XMLID_39_" d="M366.972,512.888v3.08c-.232,0-.465-.058-.639-.058a.736.736,0,0,1-.349-.058h-.291c-27.43-2.731-54.163,2.615-74.793,9.066v-12.03a28.287,28.287,0,0,1,3.08-12.843,31.164,31.164,0,0,1,1.976-3.313,29.262,29.262,0,0,1,3.487-4.068c.581-.581,1.22-1.1,1.86-1.627a27.893,27.893,0,0,1,5.87-3.719,26.209,26.209,0,0,1,5.056-1.8.737.737,0,0,1,.349-.058,16.026,16.026,0,0,0,2.266,1.627,25.863,25.863,0,0,0,30.51-1.685A28.353,28.353,0,0,1,366.972,512.888Z" transform="translate(-290.9 -478.775)" fill="#fff"/>
        <path id="XMLID_37_" d="M331.5,474.058c.058.058.116.174.232.232,0-.116.058-.174.058-.291A.632.632,0,0,1,331.5,474.058Z" transform="translate(-307.906 -474)" fill="#fff"/>
      </g>
      <path id="XMLID_26_" d="M213.8,575.573c-.581.116,64.565-39.169,127.91-28.011l-10.693,12.553C331.014,560.173,276.619,549.6,213.8,575.573Z" transform="translate(-213.793 -462.947)" fill="#fff"/>
      <path id="XMLID_12_" d="M419.933,537.8h0Z" transform="translate(-300.038 -459.694)" fill="#fff"/>
      <path id="XMLID_59_" d="M257.9,495.61s9.705-3.836,24.815-4.01c0,0-7.09,5.23-9.938,13.134s-8.891,5.172-8.891,5.172Z" transform="translate(-232.268 -440.343)" fill="#fff"/>
      <path id="XMLID_60_" d="M363.523,486.585s-23.478-15.342-49.223,0l18.248,21.5Z" transform="translate(-255.891 -435.386)" fill="#fff"/>
    </g>
    <g id="Groupe_14" data-name="Groupe 14" transform="translate(996.218 124.068)">
      <path id="XMLID_75_" d="M517.758,451.3h9.415v40.854H517.7V451.3Z" transform="translate(-517.7 -451.3)" fill="#fff"/>
      <path id="XMLID_77_" d="M545.8,508.579a5.637,5.637,0,0,1,11.274,0,5.637,5.637,0,1,1-11.274,0Z" transform="translate(-529.47 -472.955)" fill="#fff"/>
      <path id="XMLID_79_" d="M614.251,492.255l-.058-24.524-12.03,20.224h-4.242l-11.972-19.7v24H577V451.4h7.846l15.284,25.4,15.052-25.4h7.787l.116,40.854Z" transform="translate(-542.538 -451.342)" fill="#fff"/>
      <path id="XMLID_81_" d="M699.972,484.641v7.613H668.3V451.4h30.917v7.613h-21.5V467.9h19v7.381h-19v9.473h22.258Z" transform="translate(-580.78 -451.342)" fill="#fff"/>
      <path id="XMLID_83_" d="M745.576,459.029H732.5V451.3h35.624v7.729H755.048v33.183h-9.473Z" transform="translate(-607.67 -451.3)" fill="#fff"/>
    </g>
  </g>
</svg>
