<svg id="solution_5" data-name="solution 5" xmlns="http://www.w3.org/2000/svg" width="740.245" height="712.818" viewBox="0 0 740.245 712.818">
  <g id="Group_191" data-name="Group 191">
    <path id="Path_5" data-name="Path 5" d="M403.382,575.156A10.819,10.819,0,0,1,383.8,566.3l-41.809-85.893,20.013-12.136,36.107,91.236q.207.08.408.169t.4.184l.4.2a4.057,4.057,0,0,1,.39.223,10.832,10.832,0,0,1,3.678,14.868Z" transform="translate(-229.878 -93.591)" fill="#feb8b8"/>
    <path id="Path_8" data-name="Path 8" d="M349.974,513.524l29.7-7.613s-.97-2.192-2.546-5.824-3.778-8.7-6.255-14.446-5.225-12.174-7.91-18.525-5.3-12.625-7.494-18.063-4.7-8.7-7.207-10.521a9.909,9.909,0,0,0-7.283-1.936,14.074,14.074,0,0,0-5.635,2.145,15.338,15.338,0,0,0-2.262,1.717L326.2,452.981Z" transform="translate(-229.878 -93.591)" fill="#ccc"/>
    <path id="Path_1-2" data-name="Path 1-2" d="M320.459,744.87l18.176-.071-5.861,47.494-12.315.062Z" transform="translate(-229.878 -93.591)" fill="#feb8b8"/>
    <path id="Path_2" data-name="Path 2" d="M317.319,804.3l39.687-.21v-.5a15.567,15.567,0,0,0-.3-3.034,15.177,15.177,0,0,0-2.288-5.513,15.585,15.585,0,0,0-4.292-4.271,15.186,15.186,0,0,0-5.525-2.264,15.568,15.568,0,0,0-3.036-.28h0l-24.25.119Z" transform="translate(-229.878 -93.591)" fill="#2f2e41"/>
    <path id="Path_3" data-name="Path 3" d="M378.657,744.646l18.124-.071L390.939,792l-12.281.062Z" transform="translate(-229.878 -93.591)" fill="#feb8b8"/>
    <path id="Path_4" data-name="Path 4" d="M375.526,804l39.583-.208v-.5a15.573,15.573,0,0,0-.3-3.029,15.168,15.168,0,0,0-2.282-5.506,15.536,15.536,0,0,0-4.282-4.267,15.129,15.129,0,0,0-5.51-2.259,15.5,15.5,0,0,0-3.028-.279h0l-24.183.118Z" transform="translate(-229.878 -93.591)" fill="#2f2e41"/>
    <path id="Path_6" data-name="Path 6" d="M379.427,550.526,409.9,664.263,398.748,773.289l-24.7.681,5.378-98.444L348.611,626.4l-6.683,148.242-22.409-1.583L307.058,645.6a144.741,144.741,0,0,1-9.256-30.992,138,138,0,0,1-2.19-25.321,118.405,118.405,0,0,1,1.314-17.073,62.493,62.493,0,0,1,1.231-6.26l9.087-9.212Z" transform="translate(-229.878 -93.591)" fill="#2f2e41"/>
    <path id="Path_2616" data-name="Path 2616" d="M339.047,569.549c5.125,0,9.935-.164,14.3-.489a107.337,107.337,0,0,0,13.268-1.746,47.249,47.249,0,0,0,10.821-3.407,17.363,17.363,0,0,0,7.019-5.539l.208-.3-8.33-54.214L367.35,442.9a16.613,16.613,0,0,0-16.95-14.2l-28.134.862A15.768,15.768,0,0,0,306.988,445.8q.007.238.022.476L310.7,506.9,297.08,566.7l.965.135c.388.051,1.883.249,4.225.512,3.061.344,6.187.654,9.29.922,4.39.378,8.687.676,12.769.885C329.5,569.416,334.464,569.544,339.047,569.549Z" transform="translate(-229.878 -93.591)" fill="#ccc"/>
    <path id="Path_9" data-name="Path 9" d="M354.659,417.927h.022a4.5,4.5,0,0,0,4.492-4.5V388.346a33.522,33.522,0,0,0-2.644-13.082,34.061,34.061,0,0,0-17.9-17.99,33.54,33.54,0,0,0-46.761,30.772v25.121a4.5,4.5,0,0,0,.356,1.76,4.576,4.576,0,0,0,2.41,2.416,4.517,4.517,0,0,0,1.761.363l58.264.221Z" transform="translate(-229.878 -93.591)" fill="#2f2e41"/>
    <path id="Ellipse_1" data-name="Ellipse 1" d="M310.328,379.744a24.725,24.725,0,0,0,28.59,35.616,24.437,24.437,0,0,0,14.7-11.777,24.725,24.725,0,0,0-28.571-35.606,24.437,24.437,0,0,0-14.719,11.768Z" transform="translate(-229.878 -93.591)" fill="#feb8b8"/>
    <path id="Path_10" data-name="Path 10" d="M367.129,390.388a26.517,26.517,0,0,0-2.092-10.346,26.927,26.927,0,0,0-14.152-14.224,26.529,26.529,0,0,0-10.346-2.144l-5.02-.025h-.169A26.472,26.472,0,0,0,308.9,390.137v.5l10.62.043,3.621-10.117.724,10.137,5.485.024,1.826-5.1.366,5.111,35.587.159Z" transform="translate(-229.878 -93.591)" fill="#2f2e41"/>
    <path id="Path_11" data-name="Path 11" d="M409.885,443.154a11.652,11.652,0,0,1,4.48,2.2,11.345,11.345,0,0,1,2.6,2.917,11.838,11.838,0,0,1,1.711,7.385,11.339,11.339,0,0,1-1.046,3.761,11.529,11.529,0,0,1-16.556,4.856q-.153-.1-.3-.2t-.294-.207q-.145-.106-.286-.215t-.279-.222l-58.6,20.857a8.832,8.832,0,0,1-10.129-3.164l-13.9-19.237,16.8-11.311,8.812,10.011,53.632-10.669q.088-.209.182-.415t.2-.411q.1-.2.214-.406t.233-.4a11.52,11.52,0,0,1,12.527-5.128Z" transform="translate(-229.878 -93.591)" fill="#feb8b8"/>
    <path id="Path_12" data-name="Path 12" d="M341.954,454.268c-1.753-2.188-4.2-5.028-6.694-7.846s-5.017-5.61-6.924-7.7-3.189-3.473-3.189-3.473a13.81,13.81,0,0,0-25.087,10.189,13.611,13.611,0,0,0,2.06,5.048s1.912,2.5,4.8,6.236,6.747,8.706,10.642,13.648,7.828,9.859,10.86,13.488,5.167,5.974,5.467,5.773l10.577-31.442C344.765,457.987,343.707,456.456,341.954,454.268Z" transform="translate(-229.878 -93.591)" fill="#ccc"/>
    <path id="Path_13" data-name="Path 13" d="M335.675,417.136a4.423,4.423,0,0,1-.186,2.428,4.523,4.523,0,0,1-.593,1.114,4.575,4.575,0,0,1-.734.79,4.487,4.487,0,0,1-2.916,1.06q-.1,0-.2-.006l-.2-.014q-.1-.008-.2-.022t-.2-.032l-3.769-.685-5.192-11.092v10.16l-17.138-3.085V374.636l28.73.138-.71.825a19.759,19.759,0,0,0-4.474,9.724,32.212,32.212,0,0,0,.207,10.957,58.1,58.1,0,0,0,3.059,10.7,85.613,85.613,0,0,0,4.086,8.97,4.515,4.515,0,0,1,.43,1.186Z" transform="translate(-229.878 -93.591)" fill="#2f2e41"/>
  </g>
  <path id="Path_2533" data-name="Path 2533" d="M969.032,806.409H229.878v-2.1H970.123Z" transform="translate(-229.878 -93.591)" fill="#cacaca"/>
  <path id="Path_339" data-name="Path 339" d="M773.113,262.483h-3.9V155.506A61.915,61.915,0,0,0,707.3,93.591H480.648a61.915,61.915,0,0,0-61.916,61.915V742.389A61.915,61.915,0,0,0,480.647,804.3H707.295a61.915,61.915,0,0,0,61.915-61.915V338.631h3.9Z" transform="translate(-229.878 -93.591)" fill="#3f3d56"/>
  <path id="Path_340" data-name="Path 340" d="M756.586,151.359V746.534a46.957,46.957,0,0,1-46.935,46.952H478.344a46.968,46.968,0,0,1-46.973-46.959V151.359a46.965,46.965,0,0,1,46.971-46.951H506.4a22.329,22.329,0,0,0,20.656,30.74H658.924a22.329,22.329,0,0,0,20.656-30.74h30.055a46.957,46.957,0,0,1,46.951,46.934Z" transform="translate(-229.878 -93.591)" fill="#fff"/>
  <path id="Path_45" data-name="Path 45" d="M596.458,389.465a99.3,99.3,0,0,1-99.337-99.254v-.088c0-.208,0-.427.012-.635.3-54.4,44.863-98.7,99.325-98.7a99.337,99.337,0,1,1,.005,198.674h-.005Zm0-196.587a97.454,97.454,0,0,0-97.233,96.677c-.011.222-.011.4-.011.569a97.258,97.258,0,1,0,97.258-97.246Z" transform="translate(-229.878 -93.591)" fill="#ccc"/>
  <path id="Path_39" data-name="Path 39" d="M699.18,493.908H493.643a3.81,3.81,0,0,1-3.806-3.806V439.118a3.811,3.811,0,0,1,3.806-3.806H699.18a3.811,3.811,0,0,1,3.806,3.806V490.1a3.811,3.811,0,0,1-3.806,3.806ZM493.643,436.834a2.286,2.286,0,0,0-2.284,2.284V490.1a2.286,2.286,0,0,0,2.284,2.284H699.18a2.286,2.286,0,0,0,2.284-2.284V439.118a2.286,2.286,0,0,0-2.284-2.284Z" transform="translate(-229.878 -93.591)" fill="#e6e6e6"/>
  <circle id="Ellipse_5" data-name="Ellipse 5" cx="15.986" cy="15.986" r="15.986" transform="translate(274.422 355.032)" fill="#ccc"/>
  <path id="Path_40" data-name="Path 40" d="M557.207,453.952a2.665,2.665,0,0,0,0,5.329h125.6a2.665,2.665,0,1,0,.2-5.326l-.117,0H557.207Z" transform="translate(-229.878 -93.591)" fill="#e6e6e6"/>
  <path id="Path_41" data-name="Path 41" d="M557.207,469.937a2.664,2.664,0,0,0,0,5.329h125.6a2.665,2.665,0,1,0,.2-5.326l-.117,0H557.207Z" transform="translate(-229.878 -93.591)" fill="#e6e6e6"/>
  <path id="Path_42" data-name="Path 42" d="M699.18,579.167H493.643a3.81,3.81,0,0,1-3.806-3.806V524.377a3.811,3.811,0,0,1,3.806-3.806H699.18a3.811,3.811,0,0,1,3.806,3.806v50.985a3.811,3.811,0,0,1-3.806,3.805ZM493.643,522.093a2.286,2.286,0,0,0-2.284,2.284v50.985a2.286,2.286,0,0,0,2.284,2.284H699.18a2.286,2.286,0,0,0,2.284-2.284V524.377a2.286,2.286,0,0,0-2.284-2.284Z" transform="translate(-229.878 -93.591)" fill="#e6e6e6"/>
  <circle id="Ellipse_6" data-name="Ellipse 6" cx="15.986" cy="15.986" r="15.986" transform="translate(274.422 440.292)" fill="#ccc"/>
  <path id="Path_43" data-name="Path 43" d="M557.207,539.208a2.664,2.664,0,0,0,0,5.329h125.6a2.665,2.665,0,1,0,.087-5.329H557.207Z" transform="translate(-229.878 -93.591)" fill="#e6e6e6"/>
  <path id="Path_44" data-name="Path 44" d="M557.207,555.2a2.665,2.665,0,0,0,0,5.329h125.6a2.665,2.665,0,1,0,.087-5.329H557.207Z" transform="translate(-229.878 -93.591)" fill="#e6e6e6"/>
  <path id="Path_39-2" data-name="Path 39-2" d="M699.18,664.425H493.643a3.81,3.81,0,0,1-3.806-3.806V609.635a3.811,3.811,0,0,1,3.806-3.806H699.18a3.811,3.811,0,0,1,3.806,3.806V660.62a3.811,3.811,0,0,1-3.806,3.806ZM493.643,607.351a2.286,2.286,0,0,0-2.284,2.284V660.62a2.286,2.286,0,0,0,2.284,2.284H699.18a2.286,2.286,0,0,0,2.284-2.284V609.635a2.286,2.286,0,0,0-2.284-2.284Z" transform="translate(-229.878 -93.591)" fill="#e6e6e6"/>
  <circle id="Ellipse_5-2" data-name="Ellipse 5-2" cx="15.986" cy="15.986" r="15.986" transform="translate(274.422 525.551)" fill="#ccc"/>
  <path id="Path_40-2" data-name="Path 40-2" d="M557.207,624.469a2.664,2.664,0,0,0,0,5.329h125.6a2.665,2.665,0,0,0,.2-5.326l-.117,0H557.207Z" transform="translate(-229.878 -93.591)" fill="#e6e6e6"/>
  <path id="Path_41-2" data-name="Path 41-2" d="M557.207,640.456a2.664,2.664,0,0,0,0,5.329h125.6a2.665,2.665,0,1,0,.2-5.326l-.117,0H557.207Z" transform="translate(-229.878 -93.591)" fill="#e6e6e6"/>
  <path id="Path_2596" data-name="Path 2596" d="M473.247,526.066H511.14c2.37-17.488-2.859-33.814,0-45.472H473.247Q462.546,503.332,473.247,526.066Z" transform="translate(-229.878 -93.591)" fill="#ff6584"/>
  <path id="Path_2597" data-name="Path 2597" d="M719.258,613.813H681.364c1.421-17.484,6-33.811,0-45.472h37.893Q729.958,591.076,719.258,613.813Z" transform="translate(-229.878 -93.591)" fill="#ff9102"/>
  <path id="Path_2597-2" data-name="Path 2597-2" d="M649.166,701.914H611.272c1.421-17.484,6-33.811,0-45.472h37.893Q659.867,679.177,649.166,701.914Z" transform="translate(-229.878 -93.591)" fill="#ff9102"/>
  <path id="Path_2595" data-name="Path 2595" d="M647.224,375.807a94.181,94.181,0,0,1-102.6-3.189,38.671,38.671,0,0,1,34.9-22.069h31.458a38.627,38.627,0,0,1,36.245,25.265Z" transform="translate(-229.878 -93.591)" fill="#ff9102"/>
  <g id="Group_192" data-name="Group 192">
    <path id="Path_1133" data-name="Path 1133" d="M553.547,284.61c4.758-15.163,15.578-29.07,30.541-34.2s41.068-.335,48.125,13.894c10.169,20.507,5.6,45.62.208,67.885-2.812-.149-5.65-.266-8.5-.372L619.9,318.4v13.287c-22.215-.687-45.343-.257-68.483.188C549.342,316.113,548.789,299.773,553.547,284.61Z" transform="translate(-229.878 -93.591)" fill="#2f2e41"/>
    <circle id="Ellipse_507" data-name="Ellipse 507" cx="34.067" cy="34.067" r="34.067" transform="translate(322.204 171.695)" fill="#feb8b8"/>
    <path id="Path_1145" data-name="Path 1145" d="M563.928,258.308a40.308,40.308,0,0,1,61.283,35.179c-17.939.825-36.783,1.04-55.89,1.077L564.8,283.511l-2.662,11.06q-8.733,0-17.5-.023A41.157,41.157,0,0,1,563.928,258.308Z" transform="translate(-229.878 -93.591)" fill="#2f2e41"/>
  </g>
  <path id="Path_2352" data-name="Path 2352" d="M904.161,774.243a106.361,106.361,0,0,1-4.968,29.4c-.069.221-.142.439-.214.659H880.436c.02-.2.04-.419.059-.659,1.236-14.213,8.364-100.716-.158-115.509C881.083,689.335,905.595,729.082,904.161,774.243Z" transform="translate(-229.878 -93.591)" fill="#f0f0f0"/>
  <path id="Path_2353" data-name="Path 2353" d="M901.185,802.925c-.324.462-.662.924-1.007,1.379H871.09c.221-.393.476-.855.772-1.379,4.806-8.674,19.029-34.6,32.233-61.487,14.189-28.889,27.206-58.873,26.11-69.726C930.542,674.16,940.357,748.774,901.185,802.925Z" transform="translate(-229.878 -93.591)" fill="#f0f0f0"/>
</svg>
