<svg xmlns="http://www.w3.org/2000/svg" width="428.008" height="232.619" viewBox="0 0 428.008 232.619">
  <g id="struggle1" transform="translate(-191.004 -236.949)">
    <ellipse id="Ellipse_47" data-name="Ellipse 47" cx="144.109" cy="5.823" rx="144.109" ry="5.823" transform="translate(191.004 457.923)" fill="#e6e6e6"/>
    <path id="Tracé_119" data-name="Tracé 119" d="M680.114,443.354a6.134,6.134,0,0,0-.139.955l-25.012,14.43-6.08-3.5-6.481,8.485,13.006,9.27,28.535-22.512a6.111,6.111,0,1,0-3.829-7.128Z" transform="translate(-281.679 -159.978)" fill="#ffb8b8"/>
    <path id="Tracé_120" data-name="Tracé 120" d="M607,451.843,626.7,465.88l8.808-11.044L616.36,439.474a7.758,7.758,0,0,0-11.173,1.548h0A7.758,7.758,0,0,0,607,451.843Z" transform="translate(-265.531 -159.614)" fill="#ec910a"/>
    <path id="Tracé_121" data-name="Tracé 121" d="M425.519,587.848l6.906,1.809,10.265-25.773L432.5,561.213Z" transform="translate(-124.702 -135.459)" fill="#ffb8b8"/>
    <path id="Tracé_122" data-name="Tracé 122" d="M0,0H22.435V8.668H8.668A8.668,8.668,0,0,1,0,0H0Z" transform="matrix(-0.967, -0.253, 0.253, -0.967, 319.36, 464.101)" fill="#2f2e41"/>
    <path id="Tracé_123" data-name="Tracé 123" d="M527.469,594.625l7.027-1.255-1.5-27.7-10.371,1.853Z" transform="translate(-165.268 -137.32)" fill="#ffb8b8"/>
    <path id="Tracé_124" data-name="Tracé 124" d="M0,0H22.435V8.668H8.668A8.668,8.668,0,0,1,0,0H0Z" transform="translate(383.943 460.156) rotate(169.872)" fill="#2f2e41"/>
    <path id="Tracé_125" data-name="Tracé 125" d="M612.378,394.3c1.732.422,3.14,2.186,3.986,4.23a29.509,29.509,0,0,1,1.575,6.646c.665,4.225,1.3,8.8-.072,12.713-1.612,4.587-5.905,6.989-9.63,5.86s-6.687-5.366-7.7-10.244a24.809,24.809,0,0,1,1.7-14.606c1.058-2.409,2.516-4.631,4.454-5.718a4.4,4.4,0,0,1,5.862,1.222" transform="translate(-264.015 -140.725)" fill="#2f2e41"/>
    <path id="Tracé_126" data-name="Tracé 126" d="M596.019,526.948,609.4,646.773l-11.049,4.2-20.379-80.352L549.6,644.086l-12.095.672S554.1,530.442,566.395,527.844Z" transform="translate(-237.858 -196.869)" fill="#2f2e41"/>
    <circle id="Ellipse_48" data-name="Ellipse 48" cx="14.301" cy="14.301" r="14.301" transform="translate(332.623 240.268)" fill="#ffb8b8"/>
    <path id="Tracé_127" data-name="Tracé 127" d="M610.2,430.682l-15.454-2.016s-10.079,12.095-9.407,32.924-1.68,27.213-1.68,27.213l32.222.582C611.226,482.98,630.709,446.195,610.2,430.682Z" transform="translate(-257.141 -155.812)" fill="#ec910a"/>
    <path id="Tracé_128" data-name="Tracé 128" d="M618.745,514.954a6.13,6.13,0,0,0-.962.083L598.013,493.99l2.016-6.719-9.743-4.367-6.048,14.782,28.445,22.626a6.111,6.111,0,1,0,6.062-5.358Z" transform="translate(-257.382 -178.47)" fill="#ffb8b8"/>
    <path id="Tracé_129" data-name="Tracé 129" d="M599.742,442.731l-9.157,22.384,12.766,6.047,10.573-22.152a7.758,7.758,0,0,0-4.064-10.522h0a7.758,7.758,0,0,0-10.118,4.243Z" transform="translate(-260.033 -159.673)" fill="#ec910a"/>
    <path id="Tracé_130" data-name="Tracé 130" d="M595.871,397.622c2.241-1.293,2.48-4.411,2.175-6.98s-.813-5.433.7-7.533c1.8-2.507,5.423-2.557,8.509-2.639s6.845-.986,7.645-3.968a5.315,5.315,0,0,0-2.225-5.322,15.611,15.611,0,0,0-5.625-2.3c-4.413-1.163-8.97-2.335-13.489-1.7a17.2,17.2,0,0,0-14.651,19.2c.731,5.736,1.792,8.24,1.1,10.77-1.3,4.711-6.889,7.737-7,12.621-.087,3.821,3.288,6.768,6.581,8.708a22.088,22.088,0,0,0,8.44,3.2,10.761,10.761,0,0,0,8.493-2.37c2.892-2.631,3.607-7.027,2.778-10.848s-2.956-7.214-5.061-10.509" transform="translate(-252.688 -130.052)" fill="#2f2e41"/>
    <path id="Tracé_131" data-name="Tracé 131" d="M924.942,426.948H718.24a5.248,5.248,0,0,0-5.24,5.24V564.943a5.248,5.248,0,0,0,5.24,5.24h206.7a5.248,5.248,0,0,0,5.24-5.24V432.188A5.248,5.248,0,0,0,924.942,426.948Zm4.076,138a4.08,4.08,0,0,1-4.076,4.076H718.24a4.08,4.08,0,0,1-4.076-4.076V432.188a4.08,4.08,0,0,1,4.076-4.076h206.7a4.08,4.08,0,0,1,4.076,4.076Z" transform="translate(-311.171 -155.095)" fill="#3f3d56"/>
    <path id="Tracé_132" data-name="Tracé 132" d="M770.833,509.948H738.226A4.955,4.955,0,0,1,733.277,505V472.392a4.955,4.955,0,0,1,4.949-4.949h32.606a4.955,4.955,0,0,1,4.949,4.949V505A4.955,4.955,0,0,1,770.833,509.948Z" transform="translate(-319.642 -172.011)" fill="#ec910a"/>
    <path id="Tracé_133" data-name="Tracé 133" d="M922.954,594.522H737.8a3.785,3.785,0,1,1,0-7.569H922.956a3.785,3.785,0,0,1,0,7.569Z" transform="translate(-319.949 -221.935)" fill="#ccc"/>
    <path id="Tracé_134" data-name="Tracé 134" d="M923.173,563.022H738.015a3.785,3.785,0,1,1,0-7.569H923.173a3.785,3.785,0,1,1,0,7.569Z" transform="translate(-320.04 -208.776)" fill="#ccc"/>
    <path id="Tracé_135" data-name="Tracé 135" d="M879.378,520.012H852.012a3.785,3.785,0,0,1,0-7.569h27.366a3.785,3.785,0,0,1,0,7.569Z" transform="translate(-367.661 -190.809)" fill="#ccc"/>
    <path id="Tracé_136" data-name="Tracé 136" d="M970.8,488.022H852.015a3.785,3.785,0,0,1,0-7.569H970.8a3.785,3.785,0,1,1,0,7.569Z" transform="translate(-367.662 -177.446)" fill="#ccc"/>
    <path id="Tracé_137" data-name="Tracé 137" d="M827.008,626.522H737.8a3.785,3.785,0,1,1,0-7.569h89.21a3.785,3.785,0,0,1,0,7.569Z" transform="translate(-319.949 -235.303)" fill="#ccc"/>
  </g>
</svg>
