<svg id="hero_image" xmlns="http://www.w3.org/2000/svg" width="802.784" height="565.74" viewBox="0 0 802.784 565.74">
  <ellipse id="Ellipse_28" data-name="Ellipse 28" cx="43.719" cy="43.719" rx="43.719" ry="43.719" transform="translate(366.28 477.104)" fill="#fff"/>
  <path id="Tracé_52" data-name="Tracé 52" d="M841.326,716.78c24.458-7.346,50.461-15.005,69.858-32.467,17.333-15.6,29.035-39.431,21.854-62.833-7.166-23.353-28.63-38.925-50.791-46.67-12.569-4.393-25.719-6.83-38.863-8.744-14.289-2.081-28.642-3.786-42.987-5.427q-87.131-9.965-174.917-12.176c-28.878-.727-57.75-.71-86.632-.29-25.793.374-52.959.365-76.887-10.6-18.608-8.525-35.5-24.035-40.68-44.416-5.985-23.527,5.054-47.486,20.89-64.525,8.347-8.981,18.1-16.541,28.166-23.492,10.918-7.541,22.216-14.547,33.759-21.088A470.107,470.107,0,0,1,575.154,351.3c12.113-4.4,24.407-8.2,36.807-11.71,10.471-2.96,20.974-5.925,31.093-9.958,19.563-7.8,38.169-21,43.143-42.656,4.714-20.521-3.234-42.8-17.169-58.042-16.122-17.637-40.43-25.368-63.734-26.619-26.163-1.4-51.723,5.144-76.315,13.454-26.228,8.864-51.891,19.055-78.673,26.234-25.257,6.764-23.732,5.747-27.411,5.792-16.565-.961-4.8-30.25-21.127-28.38-5.412.086-2.544,1.178-3.445-3.23,28.331-1.711,4.551,34.169,32.207,27.787,27.174-6.207,53.378-15.079,79.552-24.558,24.859-9,50.273-17.788,76.831-19.737,23.044-1.692,47.284,1.665,67.359,13.708a74.517,74.517,0,0,1,34.751,48.488c4.04,19.792-1.555,39.713-16.537,53.524-15.512,14.3-36.781,20.414-56.6,26.045-25.14,7.142-49.742,15.49-73.554,26.329a461.742,461.742,0,0,0-69.189,38.9c-21.143,14.448-42.009,32.628-48.7,58.4-3.115,12.007-2.54,24.741,2.672,36.082,4.634,10.084,12.267,18.566,21.158,25.108,21.214,15.61,47.951,18.815,73.575,19.134,28.78.358,57.56-.613,86.349-.141q88.007,1.444,175.653,10.714,21.962,2.325,43.869,5.139c13.136,1.688,26.316,3.365,39.231,6.363,22.964,5.33,45.309,15.579,59.583,35.049a58.278,58.278,0,0,1,11.354,28.936c1,10.952-1.682,21.925-6.634,31.668-10.96,21.565-31.49,35.282-53.292,44.293-11.677,4.827-23.79,8.483-35.879,12.114-1.761.529-2.514-2.222-.758-2.749Z" transform="translate(-170.149 -154.695)" fill="#f2f2f2"/>
  <ellipse id="Ellipse_29" data-name="Ellipse 29" cx="22.81" cy="22.81" rx="22.81" ry="22.81" transform="translate(213.187 48.947)" fill="#f2f2f2"/>
  <ellipse id="Ellipse_31" data-name="Ellipse 31" cx="22.81" cy="22.81" rx="22.81" ry="22.81" transform="translate(389.089)" fill="#f2f2f2"/>
  <ellipse id="Ellipse_32" data-name="Ellipse 32" cx="22.81" cy="22.81" rx="22.81" ry="22.81" transform="translate(472.725 96.941)" fill="#f2f2f2"/>
  <ellipse id="Ellipse_33" data-name="Ellipse 33" cx="22.81" cy="22.81" rx="22.81" ry="22.81" transform="translate(359.627 209.089)" fill="#f2f2f2"/>
  <ellipse id="Ellipse_34" data-name="Ellipse 34" cx="22.81" cy="22.81" rx="22.81" ry="22.81" transform="translate(216.116 263.262)" fill="#f2f2f2"/>
  <ellipse id="Ellipse_35" data-name="Ellipse 35" cx="22.81" cy="22.81" rx="22.81" ry="22.81" transform="translate(368.181 347.849)" fill="#f2f2f2"/>
  <ellipse id="Ellipse_36" data-name="Ellipse 36" cx="22.81" cy="22.81" rx="22.81" ry="22.81" transform="translate(531.65 395.369)" fill="#f2f2f2"/>
  <ellipse id="Ellipse_37" data-name="Ellipse 37" cx="22.81" cy="22.81" rx="22.81" ry="22.81" transform="translate(722.682 384.915)" fill="#f2f2f2"/>
  <path id="Tracé_53" data-name="Tracé 53" d="M597.592,220.373c-68.327.483-124.271,56.007-125.242,124.328-.009.631-.013,5.066-.012,10.867a32.074,32.074,0,0,0,32.069,32.072h0a32.092,32.092,0,0,0,32.087-32.114c0-3.953-.005-6.684-.005-6.852a60.826,60.826,0,1,1,93.634,51.207l.011.013s-45.646,29.386-59.563,69.7l.012,0a89.346,89.346,0,0,0-3.681,25.44c0,3.541.208,34.52.611,59.664a33.061,33.061,0,0,0,33.065,32.525h0a33.07,33.07,0,0,0,33.068-33.274c-.14-23.028-.215-49.841-.215-51.787,0-24.753,23.879-49.416,43.494-65.5,22.587-18.521,38.841-43.759,45.37-72.23a82.473,82.473,0,0,0,2.375-17.9A126.167,126.167,0,0,0,597.592,220.373Z" transform="translate(-192.277 -155.742)" fill="#f2f2f2"/>
  <path id="Tracé_54" data-name="Tracé 54" d="M979.318,747.513H178.794a1.132,1.132,0,1,1,0-2.263H979.315a1.132,1.132,0,0,1,0,2.263Z" transform="translate(-177.662 -181.772)" fill="#171717"/>
  <ellipse id="Ellipse_38" data-name="Ellipse 38" cx="28.512" cy="28.512" rx="28.512" ry="28.512" transform="translate(568.769 202.433)" fill="#003e79"/>
  <path id="Tracé_55" data-name="Tracé 55" d="M572.115,579.784H560.464l-5.544-44.943h17.2Z" transform="translate(-27.521 -26.525)" fill="#ffb8b8"/>
  <path id="Tracé_56" data-name="Tracé 56" d="M551.258,578.626h22.471v14.148h-36.62A14.149,14.149,0,0,1,551.258,578.626Z" transform="translate(-26.637 -28.696)" fill="#171717"/>
  <path id="Tracé_57" data-name="Tracé 57" d="M667.115,579.784H655.464l-5.544-44.943h17.2Z" transform="translate(-32.232 -26.525)" fill="#ffb8b8"/>
  <path id="Tracé_58" data-name="Tracé 58" d="M646.258,578.626h22.471v14.148h-36.62A14.149,14.149,0,0,1,646.258,578.626Z" transform="translate(-31.349 -28.696)" fill="#171717"/>
  <ellipse id="Ellipse_39" data-name="Ellipse 39" cx="23.343" cy="23.343" rx="23.343" ry="23.343" transform="translate(569.606 212.938)" fill="#ffb8b8"/>
  <path id="Tracé_59" data-name="Tracé 59" d="M811.836,501.3l10.445-24a29.826,29.826,0,0,0-6.6-33.834,30.291,30.291,0,0,0-2.918-2.538,29.4,29.4,0,0,0-18.048-6.244,30.583,30.583,0,0,0-12.735,2.832c-.343.152-.675.314-1.017.475-.656.314-1.3.656-1.929,1.007a30.107,30.107,0,0,0-14.922,22.7L759.5,500.32c-1.159,3.032-42.521,112.519-28.055,196.107a4.245,4.245,0,0,0,3.63,3.488l14.665,2a4.274,4.274,0,0,0,4.761-3.355L779.1,581.266a3.329,3.329,0,0,1,6.462-.219l34.766,123.344a4.25,4.25,0,0,0,4.1,3.117,4.868,4.868,0,0,0,.827-.076l17.915-3.45a4.249,4.249,0,0,0,3.45-4.571C843.988,670.053,830,523,811.836,501.3Z" transform="translate(-204.975 -166.37)" fill="#171717"/>
  <path id="Tracé_60" data-name="Tracé 60" d="M706.1,420.973a9.557,9.557,0,0,0,10.069,10.647l13.048,31.356,9.87-14.631-13.9-27.533a9.609,9.609,0,0,0-19.083.16Z" transform="translate(-203.867 -165.266)" fill="#ffb8b8"/>
  <path id="Tracé_61" data-name="Tracé 61" d="M799.626,535.989a9.557,9.557,0,0,0,8.008-12.273l27.453-20-16.528-6.189-23.536,19.936a9.609,9.609,0,0,0,4.6,18.521Z" transform="translate(-207.972 -169.487)" fill="#ffb8b8"/>
  <path id="Tracé_62" data-name="Tracé 62" d="M751.341,485.169a16.212,16.212,0,0,1-3.135-.309,15.5,15.5,0,0,1-11.355-9.139l-18.281-22.29a4.278,4.278,0,0,1,1.056-6.349l13.006-8.051a4.277,4.277,0,0,1,5.907,1.416l12.884,21.226L776.1,443.439a9.239,9.239,0,0,1,10.749,14.79L762.22,480.693A15.447,15.447,0,0,1,751.341,485.169Z" transform="translate(-204.44 -166.554)" fill="#171717"/>
  <path id="Tracé_63" data-name="Tracé 63" d="M822.426,519.057h-.1a4.284,4.284,0,0,1-3.146-1.492l-11.563-13.489a4.277,4.277,0,0,1,.875-6.342L830.142,483.3l-19.615-23.582a9.239,9.239,0,0,1,14.149-11.578l23.839,23.3a15.705,15.705,0,0,1-3.493,25.6l-19.485,20.675a4.284,4.284,0,0,1-3.113,1.343Z" transform="translate(-208.853 -166.918)" fill="#171717"/>
  <path id="Tracé_64" data-name="Tracé 64" d="M794.633,468.68a4.409,4.409,0,0,1-.554-.035,4.24,4.24,0,0,1-3.527-2.917l-8.689-26.639a2.93,2.93,0,0,1,1.515-3.54l.282-.133c.256-.122.509-.242.767-.357a30.957,30.957,0,0,1,12.928-2.873,29.773,29.773,0,0,1,16.31,4.9,2.975,2.975,0,0,1,.857,4.082l-16.3,25.535a4.234,4.234,0,0,1-3.59,1.977Z" transform="translate(-207.62 -166.246)" fill="#e6e6e6"/>
  <path id="Tracé_65" data-name="Tracé 65" d="M794.822,361.365h0a24.711,24.711,0,0,0-24.711,24.71V396.53h12.858l6.15-10.454,1.845,10.454h39.022l-10.454-10.455A24.711,24.711,0,0,0,794.822,361.365Z" transform="translate(-207.044 -162.734)" fill="#003e79"/>
  <path id="Tracé_67" data-name="Tracé 67" d="M513.44,375.2h0a32.073,32.073,0,0,1-32.07-32.069c0-5.8,0-10.24.012-10.871a124.985,124.985,0,0,1,14.6-56.938,125.267,125.267,0,0,0-24.1,72.144c-.009.631-.013,5.066-.013,10.867A32.074,32.074,0,0,0,503.934,390.4h0a32.1,32.1,0,0,0,30.877-23.372A31.956,31.956,0,0,1,513.44,375.2Z" transform="translate(-192.253 -158.467)" fill="#003e79"/>
  <path id="Tracé_68" data-name="Tracé 68" d="M603.848,290.681a60.83,60.83,0,0,1,52.9,84.979A60.823,60.823,0,1,0,554.648,312,60.7,60.7,0,0,1,603.848,290.681Z" transform="translate(-196.359 -158.471)" fill="#003e79"/>
  <path id="Tracé_69" data-name="Tracé 69" d="M614.544,583.64h0a33.063,33.063,0,0,1-33.065-32.533c-.4-25.137-.611-56.116-.611-59.657a89.347,89.347,0,0,1,3.681-25.44l-.012,0a90.339,90.339,0,0,1,5.222-12.071,104.593,104.593,0,0,0-14.725,27.278l.011,0a89.35,89.35,0,0,0-3.681,25.44c0,3.541.208,34.52.611,59.664a33.062,33.062,0,0,0,33.065,32.525h0a33.075,33.075,0,0,0,31.744-23.8A32.942,32.942,0,0,1,614.544,583.64Z" transform="translate(-197.188 -167.325)" fill="#003e79"/>
  <path id="Tracé_70" data-name="Tracé 70" d="M126.541,580.24h11.651l5.544-44.943h-17.2Z" transform="translate(-6.276 -26.547)" fill="#ffb8b8"/>
  <path id="Tracé_71" data-name="Tracé 71" d="M0,0H36.62V14.149H14.149A14.149,14.149,0,0,1,0,0Z" transform="translate(154.385 564.511) rotate(179.997)" fill="#171717"/>
  <path id="Tracé_72" data-name="Tracé 72" d="M82.541,580.24H94.192L99.736,535.3h-17.2Z" transform="translate(-4.093 -26.547)" fill="#ffb8b8"/>
  <path id="Tracé_73" data-name="Tracé 73" d="M0,0H36.62V14.149H14.149A14.149,14.149,0,0,1,0,0Z" transform="translate(112.568 564.511) rotate(179.997)" fill="#171717"/>
  <path id="Tracé_74" data-name="Tracé 74" d="M270.1,712.275l-11.381-.6a4.442,4.442,0,0,1-4.2-4.721l13.6-150.607,62.642,16.9,6.035-1.646L317.93,704.933a4.463,4.463,0,0,1-4.142,3.749l-12.269.572a4.443,4.443,0,0,1-4.687-4.558l2.223-80.021a1.481,1.481,0,0,0-2.93-.342L274.686,708.74a4.415,4.415,0,0,1-4.343,3.541C270.264,712.281,270.184,712.279,270.1,712.275Z" transform="translate(-181.474 -172.404)" fill="#171717"/>
  <ellipse id="Ellipse_41" data-name="Ellipse 41" cx="23.343" cy="23.343" rx="23.343" ry="23.343" transform="translate(99.014 214.03)" fill="#ffb8b8"/>
  <path id="Tracé_75" data-name="Tracé 75" d="M265.51,472.357l2.567,55.378L269,547.882a4.412,4.412,0,0,0,2.922,3.968l60.195,21.805a4.258,4.258,0,0,0,1.52.267,4.413,4.413,0,0,0,4.432-4.551L335.606,469.8a35.1,35.1,0,0,0-29.219-33.908c-.582-.089-1.175-.178-1.767-.257a34.452,34.452,0,0,0-27.719,8.973,35.39,35.39,0,0,0-11.391,27.748Z" transform="translate(-182.017 -166.404)" fill="#ccc"/>
  <path id="Tracé_76" data-name="Tracé 76" d="M364.524,567.017a9.564,9.564,0,0,1-5.1-14.471L339.008,525.4l17.615-1.09,16.684,25.943a9.61,9.61,0,0,1-8.783,16.762Z" transform="translate(-185.664 -170.815)" fill="#ffb8b8"/>
  <path id="Tracé_77" data-name="Tracé 77" d="M348.974,544.044a4.414,4.414,0,0,1-2.415-2.394L315.806,468.38a11.845,11.845,0,1,1,21.845-9.169L368.4,532.483a4.447,4.447,0,0,1-2.376,5.815l-13.653,5.73a4.411,4.411,0,0,1-3.4.016Z" transform="translate(-184.468 -167.226)" fill="#ccc"/>
  <path id="Tracé_78" data-name="Tracé 78" d="M298.481,543.05l29.538-56.558a4.636,4.636,0,0,1,6.249-1.961l42.874,22.392a4.636,4.636,0,0,1,1.961,6.249l-29.538,56.557a4.636,4.636,0,0,1-6.249,1.961L300.441,549.3A4.636,4.636,0,0,1,298.481,543.05Z" transform="translate(-183.628 -168.816)" fill="#003e79"/>
  <path id="Tracé_79" data-name="Tracé 79" d="M317.1,517.742a9.565,9.565,0,0,0-14.748-4.239l-28.3-18.774L274,512.377,300.887,527.5a9.61,9.61,0,0,0,16.214-9.758Z" transform="translate(-182.44 -169.348)" fill="#ffb8b8"/>
  <path id="Tracé_80" data-name="Tracé 80" d="M279.914,519.2l-23.13-18.322a16.312,16.312,0,0,1-7.435-25.789l21-27.523a9.6,9.6,0,0,1,16.28,9.774l-16.617,27.182,24.42,11.582a4.442,4.442,0,0,1,1.852,6.386l-9.857,15.6a4.45,4.45,0,0,1-3.01,2.006l-.073.011A4.461,4.461,0,0,1,279.914,519.2Z" transform="translate(-181.035 -166.835)" fill="#ccc"/>
  <path id="Tracé_81" data-name="Tracé 81" d="M287.246,416.043a2.029,2.029,0,0,1,1.764-2.679,4.686,4.686,0,0,1,3.3,1.63,13.145,13.145,0,0,0,2.919,2.506,2.511,2.511,0,0,0,3.3-.6c.6-1.019.19-2.384-.176-3.567a35.073,35.073,0,0,1-1.549-9.285c-.105-3.517.391-7.187,2.338-9.93,2.513-3.54,7.006-4.884,11.258-4.786s8.435,1.41,12.647,2.24c1.454.286,3.163.433,4.136-.694,1.034-1.2.654-3.138.214-4.756-1.141-4.2-2.352-8.539-5-11.93a17.961,17.961,0,0,0-11.463-6.453,27.5,27.5,0,0,0-12.795,1.453A34.306,34.306,0,0,0,281.338,380.9a27.786,27.786,0,0,0-5.3,20.529,25.345,25.345,0,0,0,9.4,16.019Z" transform="translate(-182.528 -163.04)" fill="#003e79"/>
  <path id="Tracé_82" data-name="Tracé 82" d="M597.137,731.6a43.713,43.713,0,0,1-16.223-67.943,43.716,43.716,0,1,0,59.466,63.168,43.689,43.689,0,0,1-43.242,4.776Z" transform="translate(-196.772 -177.726)" fill="#003e79"/>
</svg>
