<svg xmlns="http://www.w3.org/2000/svg" width="30.592" height="30.593" viewBox="0 0 30.592 30.593">
  <g id="instagram" transform="translate(-3.401 -4.8)">
    <path id="Tracé_344" data-name="Tracé 344" d="M23.295,16.7a7.895,7.895,0,1,0,7.895,7.895A7.91,7.91,0,0,0,23.295,16.7Zm0,12.952a5.058,5.058,0,1,1,5.058-5.058A5.08,5.08,0,0,1,23.295,29.652Z" transform="translate(-4.599 -4.56)" fill="#fff"/>
    <circle id="Ellipse_80" data-name="Ellipse 80" cx="1.789" cy="1.789" r="1.789" transform="translate(25.111 10.166)" fill="#fff"/>
    <path id="Tracé_345" data-name="Tracé 345" d="M31.525,7.329A8.784,8.784,0,0,0,25.049,4.8H12.343C6.977,4.8,3.4,8.377,3.4,13.743V26.387a8.875,8.875,0,0,0,2.59,6.6,9,9,0,0,0,6.415,2.405H24.987a9.107,9.107,0,0,0,6.476-2.405,8.83,8.83,0,0,0,2.529-6.538V13.743A8.842,8.842,0,0,0,31.525,7.329Zm-.247,19.12a6.027,6.027,0,0,1-1.789,4.5,6.375,6.375,0,0,1-4.5,1.6H12.405a6.375,6.375,0,0,1-4.5-1.6,6.2,6.2,0,0,1-1.665-4.564V13.743A6.149,6.149,0,0,1,7.9,9.241a6.272,6.272,0,0,1,4.5-1.6H25.111a6.149,6.149,0,0,1,4.5,1.665,6.365,6.365,0,0,1,1.665,4.441V26.449Z" transform="translate(0 0)" fill="#fff"/>
  </g>
</svg>
