<svg xmlns="http://www.w3.org/2000/svg" width="25.543" height="25.453" viewBox="0 0 25.543 25.453">
  <g id="linkedin" transform="translate(-4.95 -5)">
    <g id="Groupe_67" data-name="Groupe 67" transform="translate(5.041 12.272)">
      <path id="Tracé_612" data-name="Tracé 612" d="M10.454,27.18H5V9h5.454Zm20,0H25V17.468c0-2.531-.9-3.791-2.689-3.791A2.687,2.687,0,0,0,19.544,15.8V27.18H14.09s.073-16.362,0-18.18H18.4l.333,3.636h.113A6.071,6.071,0,0,1,24.2,9.585a5.646,5.646,0,0,1,4.521,1.82,7.867,7.867,0,0,1,1.734,5.509Z" transform="translate(-5 -9)" fill="#fff"/>
    </g>
    <g id="Groupe_68" data-name="Groupe 68" transform="translate(4.95 5)">
      <ellipse id="Ellipse_138" data-name="Ellipse 138" cx="2.818" cy="2.727" rx="2.818" ry="2.727" fill="#fff"/>
    </g>
  </g>
</svg>
