<svg id="solution_4" data-name="solution 4" xmlns="http://www.w3.org/2000/svg" width="728.857" height="644.499" viewBox="0 0 728.857 644.499">
  <path id="Tracé_558" data-name="Tracé 558" d="M766.209,704.473l-.971-.364c-.213-.08-21.439-8.213-31.383-26.653s-5.075-40.644-5.024-40.865l.229-1.011.97.364c.213.08,21.439,8.213,31.383,26.653s5.075,40.644,5.024,40.865ZM735.448,676.6c8.407,15.591,25.18,23.583,29.43,25.408.808-4.555,3.342-22.975-5.057-38.551s-25.178-23.579-29.43-25.408C729.583,642.605,727.05,661.023,735.448,676.6Z" transform="translate(-69.638 -60.831)" fill="#3f3d56"/>
  <path id="Tracé_559" data-name="Tracé 559" d="M738.693,673.939c17.869,10.751,24.751,32.1,24.751,32.1s-22.09,3.924-39.959-6.827-24.751-32.1-24.751-32.1S720.823,663.188,738.693,673.939Z" transform="translate(-66.876 -63.782)" fill="#ff9102"/>
  <path id="Tracé_560" data-name="Tracé 560" d="M424.6,376.62a11.322,11.322,0,0,1,16.693-2.6,10.771,10.771,0,0,1,1.095,1.045l44.5-6.479,2.477-33.463a9.706,9.706,0,1,1,19.36,1.43q-.007.089-.015.179l-4.338,46.956-.021.1a8.793,8.793,0,0,1-8.5,6.168l-52.343-.9a10.61,10.61,0,0,1-.657.9,11.323,11.323,0,0,1-16.881.691q-.338-.346-.64-.715a11.358,11.358,0,0,1-.734-13.306Z" transform="translate(-40.466 -31.214)" fill="#ffb7b7"/>
  <path id="Tracé_561" data-name="Tracé 561" d="M522.024,692.3H509.331l-6.038-48.956h18.732Z" transform="translate(-48.17 -61.574)" fill="#ffb7b7"/>
  <path id="Tracé_562" data-name="Tracé 562" d="M523.254,709.343l-40.925,0v-.517A15.93,15.93,0,0,1,498.256,692.9h25Z" transform="translate(-46.164 -66.317)" fill="#2f2e41"/>
  <path id="Tracé_563" data-name="Tracé 563" d="M618.533,679.85l-12.013,4.1L585,639.562l17.73-6.047Z" transform="translate(-55.99 -60.634)" fill="#ffb7b7"/>
  <path id="Tracé_564" data-name="Tracé 564" d="M625.654,694.827,586.92,708.038l-.167-.49a15.93,15.93,0,0,1,9.934-20.219h0l23.657-8.069Z" transform="translate(-56.076 -65.012)" fill="#2f2e41"/>
  <path id="Tracé_565" data-name="Tracé 565" d="M535.068,223.822s-12.633-4.172-20.754,12.516-20.754,35.045-20.754,35.045l7.219,1.669s1.8-11.682,6.316-13.35l-1.8,15.019s54.141,17.523,78.5-1.669l-.9-5.841s3.609.834,3.609,5.841l2.707-2.5s-2.707-5.006-10.828-11.682c-5.33-4.381-7.162-12.717-7.792-17.928a20.891,20.891,0,0,0-5.4-11.815C559.791,223.34,549.957,217.193,535.068,223.822Z" transform="translate(-47.239 -21.147)" fill="#2f2e41"/>
  <circle id="Ellipse_127" data-name="Ellipse 127" cx="23.073" cy="23.073" r="23.073" transform="translate(469.413 214.835)" fill="#ffb7b7"/>
  <path id="Tracé_566" data-name="Tracé 566" d="M509.11,309.465l-4.2-1.4s-8.39,3.5-8.39,9.789-1.4,31.463-1.4,31.463l18.878,2.1Z" transform="translate(-47.388 -29.485)" fill="#cbcbcb"/>
  <path id="Tracé_567" data-name="Tracé 567" d="M592.348,448.773a10.909,10.909,0,0,1-.25-14.237l-11.777-98.627a8.791,8.791,0,1,1,17.56-.9q0,.048,0,.1l10.535,98.733a10.587,10.587,0,0,1,1.053,1.233,10.981,10.981,0,0,1-2.464,15.334q-.182.131-.368.255h0A10.992,10.992,0,0,1,597.355,452a10.858,10.858,0,0,1-5.007-3.225Z" transform="translate(-55.541 -31.265)" fill="#ffb7b7"/>
  <path id="Tracé_568" data-name="Tracé 568" d="M581.7,349.1l18.878-2.1s-1.4-25.171-1.4-31.463-8.39-9.789-8.39-9.789l-4.2,1.4Z" transform="translate(-55.674 -29.263)" fill="#cbcbcb"/>
  <path id="Tracé_569" data-name="Tracé 569" d="M511.833,392.3s-16.081,29.4-16.081,65.06-1.4,199.268-1.4,199.268,20.975,9.789,33.561-2.1L539.1,473.444,583.15,651.038s20.976,4.2,30.764-2.8L595.036,524.485S587.345,408.42,566.369,400.03,511.833,392.3,511.833,392.3Z" transform="translate(-47.314 -37.546)" fill="#2f2e41"/>
  <path id="Tracé_570" data-name="Tracé 570" d="M516.951,260.34c8.168-5.911,14.78-12.72,19.154-20.819,0,0,14.99,16.655,24.15,17.488s.833-19.986.833-19.986l-16.655-4.164-15.823,1.666-12.492,8.328Z" transform="translate(-49.398 -22.287)" fill="#2f2e41"/>
  <path id="Tracé_571" data-name="Tracé 571" d="M563.984,301.1s.666-.357-39.152,1.093l-16.665,4.59-2.215.61s2.1,41.951,7.691,49.642,4.2,11.886,2.8,12.585-4.894-.7-2.8,2.8,4.894,1.4,2.1,3.5-4.2,9.789-4.2,9.789l61.528,8.39s2.1-27.268,7.691-41.252,6.992-19.577,6.992-19.577l-4.2-27.967Z" transform="translate(-48.424 -28.815)" fill="#cbcbcb"/>
  <path id="Tracé_572" data-name="Tracé 572" d="M406.783,153.028h-3.538V56.1A56.1,56.1,0,0,0,347.145,0H141.79a56.1,56.1,0,0,0-56.1,56.1V587.853a56.1,56.1,0,0,0,56.1,56.1H347.145a56.1,56.1,0,0,0,56.1-56.1h0V222.022h3.538Z" transform="translate(-8.201 0)" fill="#3f3d56"/>
  <path id="Tracé_573" data-name="Tracé 573" d="M392.943,58.038V589.01a41.858,41.858,0,0,1-41.821,41.9H144.707a41.866,41.866,0,0,1-41.9-41.837V58.038a41.866,41.866,0,0,1,41.837-41.9h25.09a19.9,19.9,0,0,0,18.429,27.418H305.815a19.9,19.9,0,0,0,18.429-27.418h26.8a41.858,41.858,0,0,1,41.9,41.821v.075Z" transform="translate(-9.84 -1.545)" fill="#fff"/>
  <path id="Tracé_574" data-name="Tracé 574" d="M392.943,136.594V118.509H365.571V18.729a41.765,41.765,0,0,0-14.523-2.586h-3.563V118.509H252.534V43.561H234.449v74.948H154.871V16.143H144.707a41.5,41.5,0,0,0-7.922.751V118.509H102.811v18.086h33.974v41.833l-33.974,19.614V218.93l33.974-19.614V323.782H102.811v18.086h33.974V521.821H102.811v18.086h33.974v90.249a41.513,41.513,0,0,0,7.922.751h10.164v-91h79.578v91h18.086v-91h94.95v91h3.563a41.763,41.763,0,0,0,14.523-2.586V539.908h27.373V521.822H365.57V443.149H392.7V425.063H365.57V341.868h27.373V323.783H365.57V213.459h27.373V195.373H365.57V136.595Zm-183.7,0h0l-54.375,31.4h0v-31.4Zm-54.376,52.278h0l79.577-45.947V323.782H154.871Zm0,332.95V341.868h79.578V521.822Zm192.614,0h-94.95V443.148h94.95Zm0-96.759h-94.95V341.868h94.95Zm0-101.28h-94.95V213.459h94.95Zm0-128.409h-94.95V136.594h94.95Z" transform="translate(-9.84 -1.545)" fill="#e5e5e5"/>
  <path id="Tracé_575" data-name="Tracé 575" d="M418.368,203.706c0,57.434-103.993,185.38-103.993,185.38S210.381,261.141,210.381,203.706a103.993,103.993,0,0,1,207.987,0Z" transform="translate(-20.136 -9.543)" fill="#002f65"/>
  <path id="Tracé_576" data-name="Tracé 576" d="M380.365,203.2a61.492,61.492,0,1,1-61.492-61.492h0a61.463,61.463,0,0,1,61.492,61.435Z" transform="translate(-24.634 -13.563)" fill="#fff"/>
  <circle id="Ellipse_128" data-name="Ellipse 128" cx="22.909" cy="22.909" r="22.909" transform="translate(271.118 168.097)" fill="#002f65"/>
  <path id="Tracé_577" data-name="Tracé 577" d="M354.918,266.445a61.557,61.557,0,0,1-66.076-.009,34.362,34.362,0,0,1,66.075,0Z" transform="translate(-27.645 -23.116)" fill="#002f65"/>
  <circle id="Ellipse_129" data-name="Ellipse 129" cx="28.033" cy="28.033" r="28.033" transform="translate(266.206 398.532)" fill="#002f65"/>
  <path id="Tracé_578" data-name="Tracé 578" d="M727.954,712.522H.9a.9.9,0,0,1,0-1.809H727.954a.9.9,0,0,1,0,1.809Z" transform="translate(0 -68.022)" fill="#cbcbcb"/>
</svg>
