<svg id="struggle2" xmlns="http://www.w3.org/2000/svg" width="409.063" height="294.547" viewBox="0 0 409.063 294.547">
  <path id="Tracé_85" data-name="Tracé 85" d="M82.448,368.47c0,5.754-3.186,10.05-7.876,10.05a4.183,4.183,0,0,1-3.565-1.827s-.848,3.377-1.029,4.034a12.123,12.123,0,0,1-1.44,3.1c-.28-.142-1.022-.454-1.742-.749a12.642,12.642,0,0,1,.259-3.207c.277-1.192,1.873-8,1.873-8a5.608,5.608,0,0,1-.468-2.317c0-2.171,1.252-3.8,2.813-3.8a1.958,1.958,0,0,1,1.969,2.2c0,1.341-.855,3.345-1.291,5.2a2.266,2.266,0,0,0,2.309,2.82c2.76,0,4.622-3.565,4.622-7.794,0-3.218-2.153-5.619-6.07-5.619a6.933,6.933,0,0,0-7.187,7.024,4.239,4.239,0,0,0,.965,2.874.727.727,0,0,1,.209.819c-.071.27-.227.915-.3,1.178a.5.5,0,0,1-.727.369c-2.04-.841-2.991-3.079-2.991-5.605,0-4.165,3.5-9.16,10.43-9.16C78.779,360.069,82.448,364.12,82.448,368.47Z" transform="translate(-48.83 -244.699)" fill="#ec910a"/>
  <path id="Tracé_86" data-name="Tracé 86" d="M1084.829,140.509h-9.607a6.688,6.688,0,0,0-6.723,6.609v9.44a6.685,6.685,0,0,0,6.723,6.606h9.607a6.685,6.685,0,0,0,6.723-6.606v-9.44A6.688,6.688,0,0,0,1084.829,140.509Zm-4.8,15.105a3.777,3.777,0,1,1,3.842-3.778A3.816,3.816,0,0,1,1080.026,155.614Zm6.244-8.5a1.425,1.425,0,1,1,1.014-.409A1.416,1.416,0,0,1,1086.27,147.118Z" transform="translate(-697.766 -103.029)" fill="#ec910a"/>
  <path id="Tracé_87" data-name="Tracé 87" d="M414.433,310.149H306.384a12.791,12.791,0,0,1-6.875-1.98,11.545,11.545,0,0,1-5.441-9.69V46.536c0-6.439,5.525-11.677,12.315-11.677h25.393v2.318a9.252,9.252,0,0,0,9.491,8.97h35.8a9.752,9.752,0,0,0,5.635-1.755,8.932,8.932,0,0,0,3.856-7.215V34.859h27.875c6.791,0,12.315,5.238,12.315,11.677V298.479a11.406,11.406,0,0,1-4.336,8.885A12.691,12.691,0,0,1,414.433,310.149ZM306.385,35.568c-6.4,0-11.606,4.92-11.606,10.968V298.479a10.838,10.838,0,0,0,5.113,9.092,12.08,12.08,0,0,0,6.493,1.868H414.433a11.979,11.979,0,0,0,7.533-2.626,10.7,10.7,0,0,0,4.073-8.334V46.536c0-6.047-5.206-10.968-11.606-10.968H387.267v1.608a9.641,9.641,0,0,1-4.162,7.8,10.453,10.453,0,0,1-6.039,1.881h-35.8a9.962,9.962,0,0,1-10.2-9.679V35.568Z" transform="translate(-198.068 -34.859)" fill="#3f3d56"/>
  <path id="Tracé_88" data-name="Tracé 88" d="M435.965,76.433V306.385a10.337,10.337,0,0,1-10.334,10.327H332.277a10.316,10.316,0,0,1-10.334-10.327V76.433A10.333,10.333,0,0,1,332.278,66.1h13.969v1.792a8.51,8.51,0,0,0,8.508,8.511h47.479a8.439,8.439,0,0,0,5.045-1.66,7.906,7.906,0,0,0,.837-.7,8.484,8.484,0,0,0,2.625-6.148V66.1h14.889a10.331,10.331,0,0,1,10.334,10.334Z" transform="translate(-216.053 -55.016)" fill="#f2f2f2"/>
  <path id="Tracé_89" data-name="Tracé 89" d="M457.557,464.46H395.164V397.283h62.393Zm-61.593-.8h60.793V398.083H395.964Z" transform="translate(-263.299 -268.711)" fill="#3f3d56"/>
  <rect id="Rectangle_52" data-name="Rectangle 52" width="40.962" height="0.8" transform="translate(140.048 59.74)" fill="#3f3d56"/>
  <rect id="Rectangle_53" data-name="Rectangle 53" width="40.962" height="0.8" transform="translate(140.048 70.629)" fill="#3f3d56"/>
  <rect id="Rectangle_54" data-name="Rectangle 54" width="40.962" height="0.8" transform="translate(140.048 81.517)" fill="#3f3d56"/>
  <path id="Tracé_90" data-name="Tracé 90" d="M355.9,761.968l-.381-.143c-.084-.031-8.411-3.222-12.312-10.456s-1.991-15.944-1.971-16.031l.09-.4.381.143c.084.031,8.411,3.222,12.311,10.456s1.991,15.945,1.971,16.031Zm-12.068-10.935c3.3,6.116,9.878,9.252,11.545,9.967.317-1.787,1.311-9.013-1.984-15.124s-9.878-9.25-11.545-9.967c-.317,1.787-1.311,9.013,1.984,15.123Z" transform="translate(-228.187 -486.584)" fill="#3f3d56"/>
  <path id="Tracé_91" data-name="Tracé 91" d="M327.562,768.726c7.01,4.218,9.71,12.595,9.71,12.595s-8.666,1.539-15.676-2.678-9.71-12.595-9.71-12.595S320.552,764.509,327.562,768.726Z" transform="translate(-209.564 -506.478)" fill="#ec910a"/>
  <path id="Tracé_92" data-name="Tracé 92" d="M534.757,757.21l-10.643-.71,3.547,15.964,12.062-4.966Z" transform="translate(-338.182 -488.128)" fill="#ffb9b9"/>
  <path id="Tracé_93" data-name="Tracé 93" d="M707.163,630.623,682.33,606.5l-14.19,11-28.026,33.7,3.193,4.967,34.057-23.059,23.059,30.154,21.995-11Z" transform="translate(-413.03 -391.341)" fill="#2f2e41"/>
  <path id="Tracé_94" data-name="Tracé 94" d="M707.163,630.623,682.33,606.5l-14.19,11-28.026,33.7,3.193,4.967,34.057-23.059,23.059,30.154,21.995-11Z" transform="translate(-413.03 -391.341)" opacity="0.1"/>
  <path id="Tracé_95" data-name="Tracé 95" d="M772.752,725.306l-3.193,2.483-25.9-8.869-6.031-2.483-12.062,2.483s0-9.933,11.352-9.578l11.707,2.838,13.835,1.064Z" transform="translate(-476.492 -470.06)" fill="#ffb9b9"/>
  <path id="Tracé_96" data-name="Tracé 96" d="M673.633,723.813l-7.8,4.967H656.6L613.68,712.816l-62.792,11.352-1.774-13.481,57.47-25.187,50.375,16.673Z" transform="translate(-354.313 -442.316)" fill="#2f2e41"/>
  <path id="Tracé_97" data-name="Tracé 97" d="M766.643,588.006l-5.321,1.064-1.16-1.353a7.168,7.168,0,0,1-.969-7.871h0l14.9-19.511s4.257-9.578,11-5.676-5.676,10.288-5.676,10.288l-7.45,11.707.709,6.031Z" transform="translate(-497.699 -369.654)" fill="#ffb9b9"/>
  <circle id="Ellipse_42" data-name="Ellipse 42" cx="13.835" cy="13.835" r="13.835" transform="translate(288.811 167.622)" fill="#ffb9b9"/>
  <path id="Tracé_98" data-name="Tracé 98" d="M859.07,568.365l6.386,15.255,15.255-6.386s-4.967-12.062-4.967-12.416S859.07,568.365,859.07,568.365Z" transform="translate(-562.632 -376.797)" fill="#ffb9b9"/>
  <path id="Tracé_99" data-name="Tracé 99" d="M847.844,631.466a79.493,79.493,0,0,1-3.9,24.587l-1.036,3.187-4.967,22.7-5.321,1.419-3.9-4.967-7.8-5.676-5.676-9.224-4.867-8.11-1.518-2.533-5.321-26.607L783.31,614.9l-6.74-1.064,1.419-3.9,6.031-8.159,6.031-.71,1.774-1.419,1.419.709,5.676-3.193,1.774.709,10.373.965,6.3-1.32,9.06-4.864,3.711.607L842.909,603.9A79.427,79.427,0,0,1,847.844,631.466Z" transform="translate(-509.399 -394.77)" fill="#575a89"/>
  <path id="Tracé_100" data-name="Tracé 100" d="M509.678,771.328s3.177-5.385,1.835-6.014-7.042-3.135-7.042-3.135l-8.358-2.77s-12.061-17.924-12.325-2.337,8.782,19.334,8.782,19.334,8.068,17.364,12.639,14.595,9.144-12.168,9.144-12.168S506.11,774.4,509.678,771.328Z" transform="translate(-320.479 -496.753)" fill="#2f2e41"/>
  <path id="Tracé_101" data-name="Tracé 101" d="M871.492,627.528,858.011,636.4l-20.122,18.142-1.518-2.533-4.257-21.285h1.064l11-20.221Z" transform="translate(-536.917 -393.922)" opacity="0.1"/>
  <path id="Tracé_102" data-name="Tracé 102" d="M824.173,604.5l-11,20.221h-3.9l-2.483,7.1-5.676,1.419,15.254,16.673,21.64-19.511,13.481-8.869Z" transform="translate(-516.915 -390.051)" fill="#575a89"/>
  <path id="Tracé_103" data-name="Tracé 103" d="M837.5,497.62l-1.5.577a2.093,2.093,0,0,1-.535-2.942l-2.77-.13a20.918,20.918,0,0,1,31.228-2.517c.126-.434,1.5.411,2.063,1.268.188-.707,1.478,2.71,1.933,5.125.211-.8,1.023.494.312,1.74.451-.066.654,1.087.305,1.729.493-.232.41,1.144-.125,2.064.7-.063-5.547,9.638-8.077,15.307-.735-3.376-1.561-6.931-3.93-9.446-.4-.427-.844-.817-1.284-1.206l-2.381-2.1c-2.769-2.444-5.288-5.461-8.977-6.375-2.535-.628-4.138-.77-2.757-3.626-1.248.521-2.414,1.3-3.673,1.779C837.346,498.467,837.522,498.02,837.5,497.62Z" transform="translate(-545.612 -326.451)" fill="#2f2e41"/>
  <circle id="Ellipse_43" data-name="Ellipse 43" cx="2.483" cy="2.483" r="2.483" transform="translate(307.081 180.57)" fill="#ffb9b9"/>
  <path id="Tracé_104" data-name="Tracé 104" d="M459.688,459.85c.014.273.02.553.02.832,0,8.513-6.48,18.328-18.328,18.328a17.979,17.979,0,0,1-9.85-2.913,12.7,12.7,0,0,0,1.535.1,12.908,12.908,0,0,0,7.994-2.756,6.453,6.453,0,0,1-6.016-4.475,6.485,6.485,0,0,0,1.214.116,6.327,6.327,0,0,0,1.692-.225,6.441,6.441,0,0,1-5.164-6.316v-.075a6.317,6.317,0,0,0,2.926.8,6.458,6.458,0,0,1-2.005-8.6,18.244,18.244,0,0,0,13.267,6.732,6.554,6.554,0,0,1-.164-1.473,6.433,6.433,0,0,1,11.132-4.4,12.864,12.864,0,0,0,4.093-1.562,6.5,6.5,0,0,1-2.831,3.567,13.085,13.085,0,0,0,3.69-1.016A13.077,13.077,0,0,1,459.688,459.85Z" transform="translate(-286.764 -304.976)" fill="#ec910a"/>
  <path id="Tracé_105" data-name="Tracé 105" d="M436.671,475.044a25.593,25.593,0,1,1,25.592-25.593A25.593,25.593,0,0,1,436.671,475.044Zm0-50.476a24.883,24.883,0,1,0,24.883,24.883,24.883,24.883,0,0,0-24.883-24.883Zm-5.833,38a18.355,18.355,0,0,1-10.044-2.969l-1.272-.828,1.508.179a12.741,12.741,0,0,0,1.494.091,12.466,12.466,0,0,0,7.026-2.135,6.79,6.79,0,0,1-5.384-4.633l-.184-.576.593.121a5.839,5.839,0,0,0,1.289.11,6.82,6.82,0,0,1-3.974-6.184v-.686l.528.3a5.946,5.946,0,0,0,1.567.606,6.8,6.8,0,0,1-1.123-8.272l.258-.445.324.4A17.943,17.943,0,0,0,436,444.216a6.921,6.921,0,0,1-.084-1.086,6.788,6.788,0,0,1,11.609-4.786,12.425,12.425,0,0,0,3.787-1.481l.8-.476-.283.889a6.757,6.757,0,0,1-1.786,2.846,12.661,12.661,0,0,0,2.168-.732l1.115-.493-.676,1.015a13.4,13.4,0,0,1-3.143,3.314c.008.217.012.437.012.657A18.5,18.5,0,0,1,430.838,462.568Zm-8.4-2.819a17.935,17.935,0,0,0,26.373-15.868c0-.273-.006-.547-.02-.814l-.009-.192.155-.113a12.718,12.718,0,0,0,2.41-2.278,13.465,13.465,0,0,1-2.644.6l-1.658.2,1.432-.859a6.113,6.113,0,0,0,2.309-2.471,13.072,13.072,0,0,1-3.315,1.123l-.193.037-.134-.143a6.078,6.078,0,0,0-10.52,4.158,5.973,5.973,0,0,0,.156,1.386l.11.46-.473-.024a18.646,18.646,0,0,1-13.182-6.454,6.093,6.093,0,0,0,2.13,7.673l1.016.68-1.223-.03a6.684,6.684,0,0,1-2.54-.574,6.1,6.1,0,0,0,4.859,5.462l1.474.3-1.451.394a6.807,6.807,0,0,1-2.455.2,6.085,6.085,0,0,0,5.479,3.678l1,.019-.783.615a13.174,13.174,0,0,1-8.215,2.834h-.087Z" transform="translate(-273.567 -285.859)" fill="#3f3d56"/>
  <path id="Tracé_106" data-name="Tracé 106" d="M1104.6,175.058a4.131,4.131,0,1,1,4.2-4.13A4.131,4.131,0,0,1,1104.6,175.058Zm0-7.551a3.421,3.421,0,1,0,3.487,3.421,3.459,3.459,0,0,0-3.487-3.421Z" transform="translate(-718.434 -119.991)" fill="#3f3d56"/>
  <path id="Tracé_107" data-name="Tracé 107" d="M1098.681,170.421h-9.6a5.185,5.185,0,0,1-3.639-1.487,4.978,4.978,0,0,1-1.518-3.587v-9.439a5.016,5.016,0,0,1,1.516-3.585,5.142,5.142,0,0,1,3.641-1.489h9.6a5.183,5.183,0,0,1,3.639,1.487,4.976,4.976,0,0,1,1.518,3.587v9.439a5.016,5.016,0,0,1-1.516,3.585A5.142,5.142,0,0,1,1098.681,170.421Zm-9.6-18.878a4.436,4.436,0,0,0-3.142,1.284,4.311,4.311,0,0,0-1.305,3.081v9.439a4.275,4.275,0,0,0,1.3,3.079,4.48,4.48,0,0,0,3.144,1.285h9.6a4.438,4.438,0,0,0,3.142-1.284,4.313,4.313,0,0,0,1.305-3.081v-9.439a4.273,4.273,0,0,0-1.3-3.079,4.479,4.479,0,0,0-3.144-1.286Zm4.8,15.1a6.019,6.019,0,1,1,6.118-6.018,6.019,6.019,0,0,1-6.118,6.018Zm0-11.327a5.31,5.31,0,1,0,5.408,5.309,5.365,5.365,0,0,0-5.409-5.309Zm6.243.944a1.771,1.771,0,1,1,1.8-1.771,1.771,1.771,0,0,1-1.8,1.771Zm0-2.832a1.061,1.061,0,1,0,1.086,1.061,1.075,1.075,0,0,0-1.086-1.061Z" transform="translate(-707.714 -109.691)" fill="#3f3d56"/>
  <path id="Tracé_108" data-name="Tracé 108" d="M1069.188,160.367a22.758,22.758,0,1,1,23.148-22.754A22.98,22.98,0,0,1,1069.188,160.367Zm0-44.8a22.048,22.048,0,1,0,22.438,22.045,22.27,22.27,0,0,0-22.438-22.045Zm5.049,33.528h-9.6a7.029,7.029,0,0,1-7.078-6.962v-9.439a7.029,7.029,0,0,1,7.078-6.962h9.6a7.028,7.028,0,0,1,7.078,6.962v9.439a7.029,7.029,0,0,1-7.075,6.962Zm-9.6-22.654a6.319,6.319,0,0,0-6.369,6.253v9.439a6.319,6.319,0,0,0,6.369,6.253h9.6a6.319,6.319,0,0,0,6.369-6.253v-9.439a6.319,6.319,0,0,0-6.369-6.253Z" transform="translate(-683.273 -86.478)" fill="#3f3d56"/>
  <path id="Tracé_109" data-name="Tracé 109" d="M48.546,370.284a25.213,25.213,0,1,1,25.09-25.213A25.18,25.18,0,0,1,48.546,370.284Zm0-49.716a24.5,24.5,0,1,0,24.381,24.5,24.47,24.47,0,0,0-24.381-24.5Zm.148,39.375a14.969,14.969,0,0,1-4.237-.617l-.449-.132.248-.4a11.668,11.668,0,0,0,1.424-3.047c.18-.645,1.019-3.993,1.028-4.026l.226-.9.432.824a3.847,3.847,0,0,0,3.249,1.637c4.428,0,7.521-3.987,7.521-9.695,0-3.954-3.323-8.045-8.883-8.045-6.949,0-10.075,5.148-10.075,8.8,0,2.629,1.01,4.552,2.77,5.276a.218.218,0,0,0,.164.016.222.222,0,0,0,.087-.145c.039-.143.1-.391.161-.632.053-.214.105-.422.139-.548.064-.238.067-.253-.138-.5a4.6,4.6,0,0,1-1.046-3.1,7.3,7.3,0,0,1,7.54-7.38c3.9,0,6.426,2.344,6.426,5.972,0,4.647-2.141,8.152-4.98,8.152a2.753,2.753,0,0,1-2.184-1.012,2.589,2.589,0,0,1-.468-2.245c.162-.689.379-1.393.588-2.074a12.084,12.084,0,0,0,.692-3.049,1.644,1.644,0,0,0-1.613-1.845c-1.379,0-2.46,1.512-2.46,3.442a5.343,5.343,0,0,0,.432,2.159l.057.114-.029.125s-1.6,6.8-1.876,7.994a12.488,12.488,0,0,0-.245,3.27l.022.568-.52-.23a14.922,14.922,0,1,1,5.993,1.268Zm-3.59-1.173a14.309,14.309,0,1,0-2.628-.981,12.35,12.35,0,0,1,.277-2.883c.258-1.1,1.636-6.971,1.849-7.877a6.181,6.181,0,0,1-.451-2.354c0-2.328,1.392-4.152,3.169-4.152a2.292,2.292,0,0,1,2.322,2.554,12.441,12.441,0,0,1-.724,3.258c-.206.669-.419,1.362-.575,2.028A1.893,1.893,0,0,0,48.675,350a2.048,2.048,0,0,0,1.628.743c2.435,0,4.271-3.2,4.271-7.442,0-3.246-2.191-5.262-5.717-5.262a6.608,6.608,0,0,0-6.831,6.67,3.924,3.924,0,0,0,.88,2.645,1.056,1.056,0,0,1,.28,1.138c-.033.123-.084.328-.136.537-.062.248-.125.5-.164.644a.852.852,0,0,1-1.207.6c-2.009-.826-3.209-3.043-3.209-5.932,0-4.677,4.034-9.514,10.785-9.514,6,0,9.592,4.451,9.592,8.754,0,6.029-3.461,10.4-8.231,10.4a4.933,4.933,0,0,1-3.4-1.37c-.26,1.033-.719,2.848-.849,3.317A11.689,11.689,0,0,1,45.1,358.77Z" transform="translate(-23.456 -218.753)" fill="#3f3d56"/>
  <path id="Tracé_110" data-name="Tracé 110" d="M798.666,285.365a32.7,32.7,0,0,1-12.571-2.461c-11.123-4.637-18.489-14.621-25.612-24.276a132.029,132.029,0,0,0-12.365-15.141c-7.279-7.272-15.723-11.971-24.42-13.587-9.774-1.817-19.734.533-26.643,6.284a25.01,25.01,0,0,0-2.464,2.355q1.512.184,3.016.392c10.548,1.462,23.778,5.516,26.9,16.53a16.137,16.137,0,0,1-2.339,13.13A18,18,0,0,1,709.92,276.7a17.026,17.026,0,0,1-2.356.163c-8.63,0-17.132-6.414-19.65-15.232-2.132-7.467.019-16.169,5.265-22.548a186.2,186.2,0,0,0-19.1-1.187l.008-.71a186.852,186.852,0,0,1,19.645,1.246,25.721,25.721,0,0,1,2.87-2.8c7.069-5.884,17.247-8.29,27.226-6.436,8.839,1.643,17.412,6.409,24.792,13.783a132.576,132.576,0,0,1,12.434,15.222c7.391,10.019,14.372,19.482,25.314,24.043A32.625,32.625,0,0,0,830.709,244.8l.692-.16a33.171,33.171,0,0,1-32.734,40.726ZM694.021,239.184c-5.317,6.232-7.534,14.869-5.424,22.255,2.653,9.293,12.176,15.825,21.225,14.561a17.279,17.279,0,0,0,11.751-7.8,15.43,15.43,0,0,0,2.251-12.549c-3.017-10.646-15.975-14.588-26.314-16.021Q695.771,239.392,694.021,239.184Z" transform="translate(-443.268 -159.861)" fill="#3f3d56"/>
  <path id="Tracé_111" data-name="Tracé 111" d="M146.351,316.152a43,43,0,0,1-9.47-1.023,35.2,35.2,0,0,1-19.718-11.971c-1.664-1.993-3.18-4.23-4.645-6.394-2.225-3.284-4.526-6.681-7.352-9.208a12.864,12.864,0,0,0-9.66-3.456,7.865,7.865,0,0,0-5.677,3.49l-.586-.4A8.555,8.555,0,0,1,95.42,283.4a13.4,13.4,0,0,1,10.219,3.631c2.892,2.586,5.217,6.019,7.466,9.339,1.456,2.149,2.961,4.372,4.6,6.337,9.571,11.461,24.774,15.466,41.712,10.988l.181.686a51.993,51.993,0,0,1-13.25,1.774Z" transform="translate(-65.905 -195.179)" fill="#3f3d56"/>
</svg>
