<svg xmlns="http://www.w3.org/2000/svg" width="35.03" height="35.03" viewBox="0 0 35.03 35.03">
  <g id="web" transform="translate(-2 -2)">
    <path id="Tracé_6" data-name="Tracé 6" d="M19.515,37.03A17.515,17.515,0,1,1,37.03,19.515,17.515,17.515,0,0,1,19.515,37.03Zm0-32.528A15.013,15.013,0,1,0,34.528,19.515,15.013,15.013,0,0,0,19.515,4.5Z" transform="translate(0 0)" fill="#fff"/>
    <path id="Tracé_7" data-name="Tracé 7" d="M16.251,37.03A1.251,1.251,0,0,1,15,35.779V3.251a1.251,1.251,0,0,1,2.5,0V35.779A1.251,1.251,0,0,1,16.251,37.03Z" transform="translate(3.264 0)" fill="#fff"/>
    <path id="Tracé_8" data-name="Tracé 8" d="M25.009,20.766a1.251,1.251,0,0,1-1.251-1.251c0-8.132-3.44-15.013-7.506-15.013a1.251,1.251,0,1,1,0-2.5C21.868,2,26.26,9.694,26.26,19.515A1.251,1.251,0,0,1,25.009,20.766Z" transform="translate(3.264 0)" fill="#fff"/>
    <path id="Tracé_9" data-name="Tracé 9" d="M16.251,33.766a1.251,1.251,0,0,1,0-2.5c4.066,0,7.506-6.881,7.506-15.013a1.251,1.251,0,1,1,2.5,0C26.26,26.072,21.868,33.766,16.251,33.766Z" transform="translate(3.264 3.264)" fill="#fff"/>
    <path id="Tracé_10" data-name="Tracé 10" d="M9.251,20.766A1.251,1.251,0,0,1,8,19.515C8,9.694,12.391,2,18.009,2a1.251,1.251,0,0,1,0,2.5c-4.066,0-7.506,6.881-7.506,15.013A1.251,1.251,0,0,1,9.251,20.766Z" transform="translate(1.506 0)" fill="#fff"/>
    <path id="Tracé_11" data-name="Tracé 11" d="M18.009,33.766C12.391,33.766,8,26.072,8,16.251a1.251,1.251,0,1,1,2.5,0c0,8.132,3.44,15.013,7.506,15.013a1.251,1.251,0,0,1,0,2.5Z" transform="translate(1.506 3.264)" fill="#fff"/>
    <path id="Tracé_12" data-name="Tracé 12" d="M35.779,17.5H3.251a1.251,1.251,0,0,1,0-2.5H35.779a1.251,1.251,0,1,1,0,2.5Z" transform="translate(0 3.264)" fill="#fff"/>
    <path id="Tracé_13" data-name="Tracé 13" d="M32.775,11.5H5.251a1.251,1.251,0,0,1,0-2.5H32.775a1.251,1.251,0,0,1,0,2.5Z" transform="translate(0.502 1.758)" fill="#fff"/>
    <path id="Tracé_14" data-name="Tracé 14" d="M32.775,23.5H5.251a1.251,1.251,0,0,1,0-2.5H32.775a1.251,1.251,0,0,1,0,2.5Z" transform="translate(0.502 4.77)" fill="#fff"/>
  </g>
</svg>
